<svg version="1.1" xmlns="http://www.w3.org/2000/svg" x="0" y="0" viewBox="0 0 154.9 119" xml:space="preserve">
  <path d="M99.6 40.2s.8-2.5-1-2.7c-1.6-.1-1.5 2.3-1.5 2.3l2.5.4z" fill="#fddbbb"/>
  <circle transform="rotate(-.826 99.197 20.997)" cx="99.2" cy="21" fill="#fbb03b" r="17.6"/>
  <path d="M99.4 37.1c-8.9.1-16.2-7-16.3-15.8-.1-8.9 7-16.2 15.9-16.4 8.9-.1 16.2 7 16.3 15.8.1 8.9-7 16.2-15.9 16.4zM99 6.2c-8.2.1-14.7 6.9-14.6 15 .1 8.2 6.9 14.7 15 14.6 8.2-.1 14.7-6.9 14.6-15-.1-8.2-6.9-14.7-15-14.6z" fill="#d9901d"/>
  <path d="M94.3 21.7h-1.8l-.7 4.1h-2.2l1.9-11.1h3.7c1.2 0 2.2.3 2.8.9.7.6 1 1.4.9 2.4-.1 1.5-.9 2.6-2.4 3.2l1.6 4.5v.1h-2.4l-1.4-4.1zm-1.4-1.8h1.7c.6 0 1.1-.2 1.5-.5.4-.3.6-.7.7-1.3.1-.5 0-.9-.2-1.2-.2-.3-.6-.4-1.1-.4h-1.9l-.7 3.4zm9.3 2l-.7 3.9h-2.2l1.9-11.1h3.9c1.2 0 2.1.3 2.8 1 .7.7 1 1.5.9 2.6-.1 1.1-.5 2-1.4 2.6-.8.7-1.9 1-3.2 1h-2zm.4-1.9h1.9c.6 0 1.1-.2 1.5-.5.4-.3.6-.7.7-1.3.1-.5 0-.9-.3-1.3s-.6-.5-1.1-.5h-2.1l-.6 3.6z" fill="#d9901d"/>
  <path d="M66.9 64.3C53.6 68.3 51 83 39.9 83c8.4 9.5 18.3 0 21.5 11.4 14.4-1.3 16.6-19.1 23.2-20L66.9 64.3z" fill="#ba5535"/>
  <path d="M66.1 64.6c.2.3.3.5.3.5l-.5.1s-17.4 4.4 0 12.9c-.1.8-.2 1.5-.3 2.2l-1.1 5.1-4.7 5.5c.7.9 1.2 2 1.6 3.6.4 0 .7-.1 1.1-.1 0-1.6-1.6-3.1-1.6-3.1l5.5-4.9 1.5-3.8c3 .8 5.7 1.4 8 1.8 3.2-4.7 5.4-9.4 8.6-9.8L66.9 64.3c-.2.1-.5.2-.8.3zm.1 10.1c-3-1.4-8.7-4.9-.1-6.7.1 1.8.2 4.2.1 6.7zM42.3 84s2.2 2 4.8 2.6c0 0-2.2-1.3-2.9-2.2 0 0 7.2-3 10.2-10.1 0 .2-4.6 7.6-12.1 9.7z" fill="#e6e6e6"/>
  <path fill="#f5f5f5" d="M96.9 40.2l.1-.7 2.8.5-.1.7z"/>
  <path d="M89.2 63.7s8-7.8 10.7-23.1l-3.1-.7s-1.5 11.2-8.5 20.4l.9 3.4z" fill="#414042"/>
  <path d="M88.3 60.2c.7-.9 1.3-1.8 1.8-2.7.2.8.5 2.4.7 4.3-1 1.2-1.6 1.8-1.6 1.8l-.9-3.4z" fill="#e6e6e6"/>
  <path d="M99.2 42c0-.2-.1-.3-.3-.3-.2 0-.3.1-.3.3 0 .2.1.3.3.3.1 0 .3-.1.3-.3zm.2-.9c0-.2-.1-.3-.3-.3-.2 0-.3.1-.3.3 0 .2.1.3.3.3.2-.1.3-.2.3-.3z" fill="#6d6e71"/>
  <path d="M66.4 65.1s-4.6-20.4 7.9-23.6C89.6 37.6 90 62.2 90 62.2l-23.6 2.9z" fill="#fddbbb"/>
  <path d="M86.3 83.6l-3.1 6.9-5.5 4.9s3.3.6 2.2 4c-1 3-4.1-3.8-4.1-3.8l5.8-6.1 1.6-4.6s-6.4-.1-15.8-3l-1.6 3.8-5.7 4.8s3.4 3.4 0 5.5c-1.8 1.1-1.4-5.4-1.4-5.4l5.1-5.7 1.3-5.1c0-.1 8.8-1 21.2 3.8z" fill="#414042"/>
  <path d="M73.6 63.4l8.7 8.6 5.9-10.6 2.1-.3s1.1 10.4-4 22.4l-21.2-3.9c1.3-6.3.7-15.1.7-15.1l7.8-1.1z" fill="#414042"/>
  <path fill="#f5f5f5" d="M88.2 61.4L82.3 72l-8.7-8.6z"/>
  <path fill="#6d6e71" d="M88.2 61.4l.6 4.1-2.3.8.8 3.1-5 2.6zM82.3 72l-5.4-1.8-.1-2.3-2.6-.6-.6-3.9z"/>
  <path fill="#414042" d="M83.4 64.1l-1-1.1-1.9.2-.6 1.5.9.8-.5 4.5 2 2 1.6-2.8-1.3-3.8z"/>
  <path d="M81.6 74c.1.4.5.5.9.4.4-.1.5-.5.4-.9-.1-.4-.5-.5-.9-.4-.3.2-.5.6-.4.9zm-.3 2.8c.1.4.5.5.9.4.4-.1.5-.5.4-.9-.1-.4-.5-.5-.9-.4-.3.1-.5.5-.4.9z" fill="#6d6e71"/>
  <path d="M87.6 31.8S93.5 47.3 70 48.2l.2 5.2s-2.3-1.7-2.6.7c-.3 2.8 2.2 1.2 2.2 1.2s-1.4 6.5-3.5 9.1c-.4-.4-11.1-22.8-.4-22.9 0-.6.8-5 6.7-6.8 8.9-2.5 9.8 4.6 15-2.9z" fill="#4f423a"/>
  <path d="M75.9 52.4c.2.9.1 1.7-.4 1.9-.5.1-1-.5-1.3-1.4-.2-.9-.1-1.7.4-1.9.5-.2 1.1.5 1.3 1.4zm9.8-2.8c.2.9.1 1.7-.4 1.9-.5.1-1-.5-1.3-1.4-.2-.9-.1-1.7.4-1.9.5-.1 1.1.5 1.3 1.4z" fill="#4f423a"/>
  <path d="M66.1 77.4s2.3 1.6 3.1-.3c.8-1.9-2-1.9-2-1.9l-1.1 2.2z" fill="#fddbbb"/>
  <path fill="#f5f5f5" d="M66.8 74.9l.7.2-1.3 2.5-.6-.3z"/>
  <path d="M65.8 64.6s-17.6 3.9-.1 13.1l1.6-2.8s-12.6-5.4-1.1-7.4l-.4-2.9z" fill="#414042"/>
  <path d="M64.4 76.5c.2.1.3 0 .4-.2.1-.2 0-.3-.2-.4-.2-.1-.3 0-.4.2 0 .2.1.4.2.4zm.9.5c.2.1.3 0 .4-.2.1-.2 0-.3-.2-.4-.2-.1-.3 0-.4.2 0 .2 0 .4.2.4z" fill="#6d6e71"/>
  <path d="M84.5 55.4s-4.4.6-7 1.9c0 0 .3 3.6 4.5 2.6 4.1-.9 2.5-4.5 2.5-4.5z" fill="#eb7d86"/>
  <path d="M46.5 105.2s.6-.6 1.5-1.4c.9-.8 2.1-1.9 3.2-3 .6-.5 1.2-1.1 1.7-1.6.6-.5 1.1-1 1.5-1.4.4-.4.8-.7 1.1-1 .3-.2.4-.4.4-.4s-.1.2-.3.4c-.2.3-.5.7-.9 1.1l-.3.3c-.1.1-.2.2-.3.4l-.8.8-.8.8c-.3.3-.6.5-.9.8-.3.3-.6.5-.9.8-.3.3-.6.5-.9.7-.3.2-.6.5-.8.7-.3.2-.5.4-.8.6-1 1-1.7 1.4-1.7 1.4zm-.5 10.1s1-1 2.6-2.5c.4-.4.8-.8 1.3-1.2.4-.4.9-.9 1.4-1.3 1-.9 2-1.9 3.1-2.8 1-1 2.1-1.9 3.1-2.8.5-.5 1-.9 1.4-1.3.4-.4.9-.8 1.3-1.2.4-.4.7-.7 1.1-1 .2-.1.3-.3.4-.4l.4-.4c.5-.4.7-.7.7-.7s-.2.3-.6.7c-.1.1-.2.2-.3.4-.1.1-.3.3-.4.5-.3.3-.6.7-1 1.1l-1.2 1.2-1.4 1.4c-.5.5-1 1-1.5 1.4-.5.5-1 1-1.6 1.5-.5.5-1.1 1-1.6 1.4-.5.5-1 .9-1.5 1.4-.5.4-1 .9-1.5 1.3s-.9.8-1.3 1.1c-.8.7-1.5 1.2-2 1.6-.6.3-.9.6-.9.6zm14.8-4.7s.7-.6 1.7-1.5 2.4-2.1 3.8-3.4c1.4-1.2 2.8-2.5 3.8-3.4.5-.5 1-.8 1.3-1.1.3-.3.5-.4.5-.4s-.2.2-.4.5c-.3.3-.7.7-1.1 1.2-.2.3-.5.5-.8.8l-.9.9c-.3.3-.6.6-1 .9-.3.3-.7.6-1 .9-.4.3-.7.6-1 .9-.3.3-.7.6-1 .9-.3.3-.7.5-1 .8-.3.2-.6.5-.9.7-.6.4-1 .7-1.4 1l-.6.3z" fill="#414042"/>
  <path d="M97.1 39.5c.1-1-.3-1.8 0-1.9.4-.1.7 1.3.7 1.3l-.7.6z" fill="#fddbbb"/>
</svg>
