<svg version="1.1" xmlns="http://www.w3.org/2000/svg" x="0" y="0" viewBox="0 0 154.9 119" xml:space="preserve">
  <path d="M-38.1-253.4c-1.2 0-2.2-1-2.2-2.2v-4.1h-22.3v4.1c0 1.2-1 2.2-2.2 2.2-2.3 0-4.2 1.9-4.2 4.2v25.3c0 2.3 1.9 4.2 4.2 4.2h26.6c2.3 0 4.2-1.9 4.2-4.2v-25.3c.1-2.4-1.8-4.2-4.1-4.2z" fill="#d3d4e7"/>
  <path d="M-51.4-225.6c-6.3 0-12.1 1.3-17 3.5.7 1.3 2.1 2.2 3.7 2.2h26.6c1.6 0 3-.9 3.7-2.2-4.9-2.2-10.7-3.5-17-3.5z" fill="#8d6600"/>
  <path d="M-62.4-223.6c-1.8 0-3.3-1.5-3.3-3.3v-19.2c0-1.8 1.5-3.3 3.3-3.3 1.8 0 3.3 1.5 3.3 3.3v19.2c0 1.8-1.5 3.3-3.3 3.3zm22.8 0h-6.2c-1.4 0-2.5-1.1-2.5-2.5v-20.7c0-1.4 1.1-2.5 2.5-2.5h6.2c1.4 0 2.5 1.1 2.5 2.5v20.7c0 1.4-1.1 2.5-2.5 2.5z" fill="#fff"/>
  <path d="M-51.9-237.4s-1.4.4-2.5-.2c-1.1-.6-1.5-2-1.5-2s1.4-.4 2.5.2c1.2.6 1.5 2 1.5 2z" fill="#766600"/>
  <path d="M-55.8-239.6s.4 1.4 1.5 2c1.1.6 2.5.2 2.5.2l-4-2.2z" fill="#6c4a00"/>
  <path d="M-52.9-246.5s-.1-1.4.8-2.3c.8-.9 2.3-1 2.3-1s.1 1.4-.8 2.3c-.9 1-2.3 1-2.3 1z" fill="#766600"/>
  <path d="M-49.9-249.8s-1.4.1-2.3 1c-.8.9-.8 2.3-.8 2.3l3.1-3.3z" fill="#6c4a00"/>
  <path d="M-50.3-269.6s-1.4 0-2.3-.9c-.9-.9-.8-2.3-.8-2.3s1.4 0 2.3.9c.8.9.8 2.3.8 2.3z" fill="#766600"/>
  <path d="M-53.4-272.8s0 1.4.8 2.3 2.3.9 2.3.9l-3.1-3.2z" fill="#6c4a00"/>
  <path d="M-52.8-262.4s-1-1-1-2.3c0-1.2 1-2.3 1-2.3s1 1 1 2.3c0 1.3-1 2.3-1 2.3z" fill="#766600"/>
  <path d="M-52.8-266.9s-1 1-1 2.3c0 1.2 1 2.3 1 2.3v-4.6z" fill="#6c4a00"/>
  <path d="M-47.7-226.2s-.7 1.2-1.9 1.6c-1.2.3-2.4-.4-2.4-.4s.7-1.2 1.9-1.6 2.4.4 2.4.4z" fill="#766600"/>
  <path d="M-52-225s1.2.7 2.4.4c1.2-.3 1.9-1.6 1.9-1.6L-52-225z" fill="#6c4a00"/>
  <path d="M-55.6-226.7s1.2-.8 2.4-.6c1.2.2 2.1 1.4 2.1 1.4s-1.2.8-2.4.6c-1.3-.2-2.1-1.4-2.1-1.4z" fill="#766600"/>
  <path d="M-51.1-226s-.8-1.2-2.1-1.4c-1.2-.2-2.4.6-2.4.6l4.5.8z" fill="#6c4a00"/>
  <path fill="#dfe0ed" d="M-64.1-257.1h25.4v1.5h-25.4z"/>
  <path fill="#fff" d="M-59.9-257.1h3v1.5h-3zm4.1 0h5.9v1.5h-5.9z"/>
  <path fill="#dfe0ed" d="M-64.1-259.7h25.4v.5h-25.4z"/>
  <path fill="#fff" d="M-59.9-259.7h3v.5h-3zm4.1 0h5.9v.5h-5.9z"/>
  <path d="M.5-253.4c-1.2 0-2.2-1-2.2-2.2v-4.1H-24v4.1c0 1.2-1 2.2-2.2 2.2-2.3 0-4.2 1.9-4.2 4.2v25.3c0 2.3 1.9 4.2 4.2 4.2H.5c2.3 0 4.2-1.9 4.2-4.2v-25.3c0-2.4-1.9-4.2-4.2-4.2z" fill="#d3d4e7"/>
  <path d="M-12.8-225.6c-6.3 0-12.1 1.3-17 3.5.7 1.3 2.1 2.2 3.7 2.2H.5c1.6 0 3-.9 3.7-2.2-4.9-2.2-10.7-3.5-17-3.5z" fill="#8d6600"/>
  <path d="M-6.6-232.6c-2.5 2.5-6.9 2.1-6.9 2.1s-.4-4.4 2.1-6.9 6.9-2.1 6.9-2.1.4 4.3-2.1 6.9z" fill="#5bb81f"/>
  <path d="M-13.3-234.2c.8 1.6-.1 3.6-.1 3.6s-2.2-.5-2.9-2.1c-.8-1.6.1-3.6.1-3.6s2.1.5 2.9 2.1z" fill="#5bb81f"/>
  <path fill="#5bb81f" d="M-13.5-231.3h.5v6.3h-.5z"/>
  <path d="M-23.8-223.6c-1.8 0-3.3-1.5-3.3-3.3v-19.2c0-1.8 1.5-3.3 3.3-3.3 1.8 0 3.3 1.5 3.3 3.3v19.2c0 1.8-1.5 3.3-3.3 3.3zm22.8 0h-6.2c-1.4 0-2.5-1.1-2.5-2.5v-20.7c0-1.4 1.1-2.5 2.5-2.5H-1c1.4 0 2.5 1.1 2.5 2.5v20.7c0 1.4-1.1 2.5-2.5 2.5z" fill="#fff"/>
  <path fill="#dfe0ed" d="M-25.5-257.1H-.1v1.5h-25.4z"/>
  <path fill="#fff" d="M-21.4-257.1h3v1.5h-3zm4.2 0h5.9v1.5h-5.9z"/>
  <path fill="#dfe0ed" d="M-25.5-259.7H-.1v.5h-25.4z"/>
  <path fill="#fff" d="M-21.4-259.7h3v.5h-3zm4.2 0h5.9v.5h-5.9z"/>
  <path d="M23.4-284.7c.2 0 .1-.3-.4-.6-.2-.1-.6-.2-.9-.3-.4-.1-.8-.2-1.3-.2-1-.2-2.1-.3-3.3-.7-1.2-.4-2.5-1.3-3.1-2.4-1.4-2.1-1.4-4.1-2-5.7-.3-.8-.7-1.6-1.3-2.1-.6-.6-1.5-1-2.5-.8.8-.5 2-.4 2.9 0 1 .4 1.8 1.2 2.4 2 .6.8 1.1 1.7 1.6 2.5.5.7 1 1.4 1.5 1.8.5.4 1 .4 1.6.5.6 0 1.4-.1 2.3-.2.4-.1 1-.1 1.5-.2h1.8c.7.1 1.4.2 2.2.5.8.3 1.6.8 2.3 1.5 1.2 1.5 1.1 3.6-.4 4.9s-3.7 1-4.9-.5z" fill="#b56600"/>
  <path d="M7.7-291.9c1.3-.5 2.5-1.3 3.4-2.5.7-.9 1.3-1.9 1.6-3 .8-2.9-.1-5.8-2.1-7.8-4.1.5-7.7 3.5-8.8 7.7-.5 1.9-.5 3.7 0 5.5l.9.3c1.8.5 3.5.3 5-.2z" fill="#fd0"/>
  <path d="M10.7-305.2c-1-1-2.2-1.8-3.7-2.1-4.3-1.2-8.8 1.4-9.9 5.7-1.1 4 1 8.1 4.8 9.6-.5-1.7-.5-3.6 0-5.5 1.1-4.2 4.7-7.2 8.8-7.7z" fill="#ffee7a"/>
  <path d="M2.5-305.4c3.2-1.2 6.9.4 8.1 3.6 1.2 3.2-.4 6.9-3.6 8.1-3.2 1.2-6.9-.4-8.1-3.6-1.3-3.3.4-6.9 3.6-8.1z" fill="#e1a32d"/>
  <path d="M2.6-305c3-1.2 6.4.4 7.6 3.4 1.2 3-.4 6.4-3.4 7.6-3 1.2-6.4-.4-7.6-3.4-1.1-3.1.4-6.5 3.4-7.6z" fill="#af7520"/>
  <path d="M1.4-294.9c.6.5 1.3.8 2.1 1 3.1.8 6.2-1 7-4 .7-2.6-.5-5.2-2.7-6.5.1 1 0 2.1-.3 3.2-.8 3.1-3.2 5.4-6.1 6.3z" fill="#fad351"/>
  <path d="M-.6-300.9c-.6 2.3.2 4.6 2 6 2.9-.9 5.2-3.2 6.1-6.3.3-1.1.4-2.2.3-3.2-.4-.2-.8-.4-1.3-.5-3.1-.8-6.3 1-7.1 4z" fill="#fac500"/>
  <path d="M39.1-253.4c-1.2 0-2.2-1-2.2-2.2v-4.1H14.6v4.1c0 1.2-1 2.2-2.2 2.2-2.3 0-4.2 1.9-4.2 4.2v25.3c0 2.3 1.9 4.2 4.2 4.2H39c2.3 0 4.2-1.9 4.2-4.2v-25.3c.1-2.4-1.8-4.2-4.1-4.2z" fill="#d3d4e7"/>
  <path d="M25.8-225.6c-6.3 0-12.1 1.3-17 3.5.7 1.3 2.1 2.2 3.7 2.2h26.6c1.6 0 3-.9 3.7-2.2-4.9-2.2-10.7-3.5-17-3.5z" fill="#8d6600"/>
  <path d="M14.8-223.6c-1.8 0-3.3-1.5-3.3-3.3v-19.2c0-1.8 1.5-3.3 3.3-3.3 1.8 0 3.3 1.5 3.3 3.3v19.2c-.1 1.8-1.5 3.3-3.3 3.3zm22.8 0h-6.2c-1.4 0-2.5-1.1-2.5-2.5v-20.7c0-1.4 1.1-2.5 2.5-2.5h6.2c1.4 0 2.5 1.1 2.5 2.5v20.7c0 1.4-1.1 2.5-2.5 2.5z" fill="#fff"/>
  <path fill="#b56600" d="M27.9-224.7h-3.6l.7-109.5h2.1z"/>
  <path d="M23.4-309.9c.7-1.4 1.8-2.5 2.9-3.2 1.1-.7 2.2-1 3.3-1.2 2.2-.4 4.1-.2 5.8-.2 1.7 0 3.2-.3 4.6-1.3 1.3-1 2.4-2.5 2.8-4.3.1 1.8-.6 3.8-1.8 5.3-.6.8-1.4 1.5-2.3 2-.9.5-1.9.9-2.8 1.2-1.9.6-3.7.9-4.9 1.5-.6.3-1.2.7-1.5 1.1-.4.4-.4.8-.4 1 .1 1.7-1.1 3.3-2.9 3.4-1.7.1-3.3-1.1-3.4-2.9 0-.6.1-1.1.3-1.5l.3-.9zm-.2 30c.6-2.2 2-4 3.5-5.1 1.5-1.2 3.2-1.9 4.8-2.4 3.2-.9 6-1.1 8.4-2.2 1.2-.6 2.3-1.3 3-2.3.8-1 1.1-2.3 1.2-3.7.1-1.4.1-3 .5-4.5.3-1.5 1.1-3 2.4-3.8-1.2 1-1.6 2.5-1.7 3.9-.1 1.4.2 2.9.3 4.4.1 1.5 0 3.3-.8 4.9-.8 1.6-2.1 2.8-3.4 3.7-2.8 1.9-5.9 2.6-8.3 3.8-1.2.6-2.2 1.3-2.9 2.1-.7.8-1.1 1.7-1.1 2.4 0 1.7-1.4 3-3.1 2.9-1.7 0-3-1.4-2.9-3.1 0-.2 0-.5.1-.7v-.3zm1.2-21.4c.9-.8 2-1.3 2.9-1.5 1-.3 1.8-.3 2.6-.3 1.6 0 2.9.1 4.1 0 2.3-.2 4.9-2 5.9-4.7 0 1.4-.5 2.9-1.3 4.3-.8 1.3-2.1 2.5-3.6 3.2-1.5.7-3 1.1-4.3 1.6-.6.2-1.1.5-1.5.8-.4.3-.5.6-.6.8-.5 1.7-2.3 2.6-4 2.1-1.7-.5-2.6-2.3-2.1-4 .2-.6.5-1.1 1-1.5l.9-.8z" fill="#b56600"/>
  <path d="M23.1-299.9c-.8-1.7-2-3.3-3.5-4.6-.8-.7-1.6-1.2-2.5-1.7-.4-.3-.9-.5-1.4-.7-.5-.2-1.1-.4-1.7-.7-.6-.3-1.4-.7-2-1.4-.6-.7-1-1.6-1-2.4 0-1.6.4-2.6.3-3.4-.1-.9-.7-1.8-1.6-2.4-.9-.6-2-1-3.1-1.4 1.2.1 2.3.2 3.5.6 1.1.5 2.3 1.3 2.9 2.7.5 1.4.3 2.7.6 3.5.1.4.3.5.5.6.2.1.6.2 1 .3.5.1 1 .1 1.6.2.6.1 1.3.2 1.9.4 1.3.3 2.5.8 3.7 1.4 2.4 1.2 4.6 2.9 6.4 5.1l.1.1c1.2 1.5 1.1 3.7-.4 4.9-1.5 1.2-3.7 1.1-4.9-.4-.1-.1-.3-.4-.4-.7zm10.5-14.3c1.1-.5 2.1-1.4 2.6-2.6.5-1.2.3-2.7 0-4.2-.2-.8-.3-1.6-.5-2.4-.1-.8-.2-1.6-.2-2.5 0-.8.1-1.7.5-2.5.4-.7 1-1.4 1.8-1.6-.7.3-1.2 1-1.4 1.7-.2.7-.2 1.5-.1 2.3.1.7.3 1.5.6 2.3.2.7.5 1.5.8 2.2.3.8.6 1.6.7 2.4.2.9.2 1.8 0 2.8-.4 1.9-1.6 3.6-3.3 4.6H35c-.7.4-1.6.2-2.1-.5s-.2-1.6.5-2.1c0 .2.1.1.2.1zm3.1 11.4c.7.9 2 1.5 3.3 1.5.7 0 1.3-.2 1.9-.5.6-.3 1-.9 1.5-1.5.8-1.2 1.6-2.7 3-3.6 1.3-.9 2.9-1.4 4.4-1.3-1.5.1-3 .7-4.1 1.7-1.2 1-1.7 2.3-2.4 3.7-.4.7-.9 1.4-1.6 1.9-.7.5-1.5.9-2.4 1-1.7.3-3.7-.3-5-1.7-.4-.4-.3-1 .1-1.4s.9-.3 1.3.2zm4.1 13c2.3.3 4.2 1 6.1.9 1.9-.2 3.9-1.2 5.1-2.9-.8 2-2.6 3.6-4.8 4.4-1.1.4-2.3.5-3.4.5s-2.2 0-3.1.1c-.8.1-1.5-.5-1.6-1.4s.5-1.5 1.4-1.6h.3zm-22.9 2.5c-.8.2-1.6.7-2.6 1.3-1 .5-2.2 1.1-3.4 1.1-2.4.2-4.7-.9-5.9-2.7 1.7 1.3 3.9 1.4 5.5.8.8-.3 1.4-.9 2.1-1.6.7-.7 1.4-1.5 2.4-2.3l.1-.1c.9-.7 2.2-.5 2.8.4.7.9.5 2.2-.4 2.8-.1.2-.3.3-.6.3z" fill="#b56600"/>
  <path d="M17.8-307.2c-.8-.4-1.3-1.1-1.5-1.7-.2-.6-.3-1.3-.2-1.9.2-1.2.7-2.1.8-3.1.3-1.9-.4-4.1-1.9-5.6 1.7 1.3 2.8 3.4 2.9 5.7 0 1.2-.3 2.2-.3 3.1 0 .9.5 1.7.9 1.7.6 0 1 .5.9 1.1s-.5 1-1.1.9c-.1 0-.2 0-.3-.1l-.2-.1z" fill="#b56600"/>
  <path d="M1.3-314.1c1.1.2 2.2.1 3.3-.3.8-.3 1.6-.8 2.2-1.4 1.6-1.6 2.2-3.9 1.6-6-3-1.2-6.5-.7-8.9 1.8-1.1 1.1-1.8 2.3-2.1 3.7.2.2.3.4.5.6 1 .8 2.2 1.4 3.4 1.6z" fill="#fd0"/>
  <path d="M8.4-321.8c-.3-1-.8-2-1.6-2.9-2.5-2.5-6.4-2.5-8.9 0-2.3 2.3-2.4 5.8-.5 8.3.4-1.3 1.1-2.6 2.1-3.7 2.4-2.4 6-3 8.9-1.7z" fill="#ffee7a"/>
  <path d="M3-325.2c2.7.4 4.5 2.9 4 5.6-.4 2.7-2.9 4.5-5.6 4-2.7-.4-4.5-2.9-4-5.6.5-2.6 3-4.4 5.6-4z" fill="#e1a32d"/>
  <path d="M3-324.8c2.5.4 4.2 2.8 3.8 5.2-.4 2.5-2.8 4.2-5.2 3.8-2.5-.4-4.2-2.8-3.8-5.2.3-2.6 2.7-4.3 5.2-3.8z" fill="#af7520"/>
  <path d="M-1.8-318.5c.2.5.5 1.1 1 1.5 1.7 1.7 4.5 1.7 6.3 0 1.5-1.5 1.7-3.7.7-5.4-.3.7-.8 1.4-1.4 2.1-1.8 1.7-4.3 2.3-6.6 1.8z" fill="#fad351"/>
  <path d="M-.8-323.3c-1.3 1.3-1.6 3.2-1 4.8 2.3.5 4.8-.1 6.5-1.9.6-.6 1.1-1.3 1.4-2.1-.2-.3-.4-.6-.7-.9-1.7-1.6-4.5-1.6-6.2.1z" fill="#fac500"/>
  <path d="M45.9-309c-2.1 3.4-7 4.2-7 4.2s-1.6-4.8.5-8.2c2.1-3.4 7-4.2 7-4.2s1.6 4.8-.5 8.2zm-30 6.3c.1 3.8-3.5 7-3.5 7s-3.8-3-3.9-6.8c-.1-3.8 3.5-7 3.5-7s3.8 3 3.9 6.8zm35.3 5.2c2 1.9 1.7 5.4 1.7 5.4s-3.4.3-5.4-1.6c-2-1.9-1.7-5.4-1.7-5.4s3.5-.3 5.4 1.6zM34.8-290c.1 2.7-2.5 5-2.5 5s-2.7-2.2-2.7-4.9c-.1-2.7 2.5-5 2.5-5s2.7 2.1 2.7 4.9zm4.5 3.6c2.5 1.1 3.5 4.4 3.5 4.4s-3.1 1.5-5.6.4c-2.5-1.1-3.5-4.4-3.5-4.4s3.1-1.5 5.6-.4zm11.4-22.7c-1 1.4-3.2 1.5-3.2 1.5s-.5-2.1.5-3.5 3.2-1.5 3.2-1.5.5 2.2-.5 3.5z" fill="#5bb81f"/>
  <path d="M50.9-306.5c-1.7.3-3.3-1-3.3-1s1.1-1.9 2.7-2.2c1.7-.3 3.3 1 3.3 1s-1 1.9-2.7 2.2zm-39.2 13.9c-1.1 1.3-3.3 1.2-3.3 1.2s-.3-2.1.8-3.4 3.3-1.2 3.3-1.2.4 2.2-.8 3.4zm-13.2.1c4.6.3 8.1 4.9 8.1 4.9s-4 4.2-8.6 3.9c-4.6-.3-8.1-4.9-8.1-4.9s4-4.2 8.6-3.9z" fill="#5bb81f"/>
  <path d="M4.1-283.6c.1-2.3 2.4-4 2.4-4s2.1 2 1.9 4.3c-.1 2.3-2.4 4-2.4 4s-2-2-1.9-4.3z" fill="#5bb81f"/>
  <path d="M52.9-292.6c.9.7 1.9 1.1 3.1 1.2.9.1 1.8 0 2.6-.3 2.2-.7 3.7-2.5 4.2-4.6-2.1-2.4-5.5-3.5-8.8-2.4-1.4.5-2.6 1.3-3.5 2.3.1.2.1.5.2.7.4 1.3 1.2 2.3 2.2 3.1z" fill="#fd0"/>
  <path d="M62.8-296.4c.2-1.1.2-2.2-.2-3.3-1.1-3.3-4.6-5.1-7.9-4-3 1-4.8 4.1-4.2 7.2.9-1 2.1-1.9 3.5-2.3 3.2-1.1 6.7 0 8.8 2.4z" fill="#ffee7a"/>
  <path d="M59.4-301.8c2.2 1.6 2.7 4.6 1.1 6.8s-4.6 2.7-6.8 1.1-2.7-4.6-1.1-6.8 4.7-2.7 6.8-1.1z" fill="#e1a32d"/>
  <path d="M59.2-301.5c2 1.5 2.5 4.3 1 6.4-1.5 2-4.3 2.5-6.4 1-2-1.5-2.5-4.3-1-6.4 1.5-2.1 4.4-2.5 6.4-1z" fill="#af7520"/>
  <path d="M52.1-298c0 .6 0 1.2.2 1.8.8 2.3 3.3 3.6 5.6 2.8 2-.7 3.2-2.6 3-4.5-.6.5-1.4.9-2.2 1.2-2.3.7-4.8.2-6.6-1.3z" fill="#fad351"/>
  <path d="M55.2-301.8c-1.7.6-2.9 2.1-3 3.8 1.8 1.5 4.3 2 6.7 1.3.8-.3 1.6-.7 2.2-1.2 0-.4-.1-.7-.2-1.1-.9-2.4-3.4-3.6-5.7-2.8z" fill="#fac500"/>
  <path d="M58.8-293.7c3.4.9 5.2 4.9 5.2 4.9s-3.6 2.5-7 1.5c-3.4-.9-5.2-4.9-5.2-4.9s3.6-2.4 7-1.5zm-22.7-31.1c-3.9 3.9-10.7 3.3-10.7 3.3s-.6-6.9 3.3-10.7c3.9-3.9 10.7-3.3 10.7-3.3s.6 6.9-3.3 10.7z" fill="#5bb81f"/>
  <path d="M24.4-322.4c1.5.3 3.1.1 4.6-.4 1.1-.4 2.2-1.1 3.1-2 2.3-2.3 3-5.5 2.3-8.4-4.1-1.7-9.1-.9-12.4 2.5-1.5 1.5-2.5 3.3-3 5.1.2.3.5.6.7.8 1.3 1.3 3 2.1 4.7 2.4z" fill="#fd0"/>
  <path d="M34.4-333.2c-.4-1.5-1.1-2.9-2.3-4-3.4-3.4-9-3.4-12.4 0-3.2 3.2-3.4 8.2-.7 11.6.5-1.9 1.5-3.7 3-5.1 3.3-3.4 8.2-4.2 12.4-2.5z" fill="#ffee7a"/>
  <path d="M26.8-337.9c3.7.6 6.2 4.1 5.6 7.8-.6 3.7-4.1 6.2-7.8 5.6-3.7-.6-6.2-4.1-5.6-7.8.6-3.6 4.1-6.2 7.8-5.6z" fill="#e1a32d"/>
  <path d="M26.7-337.4c3.5.6 5.8 3.8 5.3 7.3-.6 3.5-3.8 5.8-7.3 5.3-3.5-.6-5.8-3.8-5.3-7.3.6-3.5 3.9-5.9 7.3-5.3z" fill="#af7520"/>
  <path d="M20.1-328.6c.3.8.8 1.5 1.4 2.1 2.4 2.4 6.4 2.4 8.8 0 2-2 2.4-5.2.9-7.6-.5 1-1.1 2-2 2.9-2.5 2.5-5.9 3.4-9.1 2.6z" fill="#fad351"/>
  <path d="M21.5-335.3c-1.8 1.8-2.3 4.5-1.4 6.7 3.2.7 6.6-.1 9.1-2.6.9-.9 1.5-1.8 2-2.9l-.9-1.2c-2.5-2.4-6.4-2.4-8.8 0z" fill="#fac500"/>
  <path d="M22.2-328.9c3.5 2.1 4.4 7.1 4.4 7.1s-4.8 1.7-8.3-.4-4.4-7.1-4.4-7.1 4.8-1.6 8.3.4z" fill="#5bb81f"/>
  <path fill="#dfe0ed" d="M13.1-257.1h25.4v1.5H13.1z"/>
  <path fill="#fff" d="M17.2-257.1h3v1.5h-3zm4.2 0h5.9v1.5h-5.9z"/>
  <path fill="#dfe0ed" d="M13.1-259.7h25.4v.5H13.1z"/>
  <path fill="#fff" d="M17.2-259.7h3v.5h-3zm4.2 0h5.9v.5h-5.9z"/>
  <path d="M45.5-216.8v-2.8c0-.2.1-.3.3-.3h15.4c.2 0 .3.1.3.3v2.8c0 .2-.1.3-.3.3H45.7c-.1 0-.2-.1-.2-.3z" fill="#fac500"/>
  <path fill="#fd0" d="M59.797-219.883v3.4h-12v-3.4z"/>
  <path fill="#ffee7a" d="M56.443-219.83v3.4h-4.5v-3.4z"/>
  <path d="M45.5-220.4v-2.8c0-.2.1-.3.3-.3h15.4c.2 0 .3.1.3.3v2.8c0 .2-.1.3-.3.3H45.7c-.1 0-.2-.2-.2-.3z" fill="#fac500"/>
  <path fill="#fd0" d="M59.761-223.52v3.4h-12v-3.4z"/>
  <path fill="#ffee7a" d="M56.407-223.466v3.4h-4.5v-3.4z"/>
  <path d="M45.5-224.1v-2.8c0-.2.1-.3.3-.3h15.4c.2 0 .3.1.3.3v2.8c0 .2-.1.3-.3.3H45.7c-.1 0-.2-.1-.2-.3z" fill="#fac500"/>
  <path fill="#fd0" d="M59.825-227.155v3.4h-12v-3.4z"/>
  <path fill="#ffee7a" d="M56.371-227.102v3.4h-4.5v-3.4z"/>
  <path d="M45.5-227.7v-2.8c0-.2.1-.3.3-.3h15.4c.2 0 .3.1.3.3v2.8c0 .2-.1.3-.3.3H45.7c-.1 0-.2-.1-.2-.3z" fill="#fac500"/>
  <path fill="#fd0" d="M59.789-230.791v3.4h-12v-3.4z"/>
  <path fill="#ffee7a" d="M56.435-230.738v3.4h-4.5v-3.4z"/>
  <path d="M45.5-231.3v-2.8c0-.2.1-.3.3-.3h15.4c.2 0 .3.1.3.3v2.8c0 .2-.1.3-.3.3H45.7c-.1-.1-.2-.2-.2-.3z" fill="#fac500"/>
  <path fill="#fd0" d="M59.753-234.427v3.4h-12v-3.4z"/>
  <path fill="#ffee7a" d="M56.4-234.374v3.4h-4.5v-3.4z"/>
  <path fill="#e1a32d" d="M46.1-220.1h14.4v.3H46.1zm0-3.7h14.4v.3H46.1zm0-3.6h14.4v.3H46.1zm0-3.7h14.4v.3H46.1zm0-3.6h14.4v.3H46.1z"/>
  <path d="M45.5-235v-2.8c0-.2.1-.3.3-.3h15.4c.2 0 .3.1.3.3v2.8c0 .2-.1.3-.3.3H45.7c-.1 0-.2-.1-.2-.3z" fill="#fac500"/>
  <path fill="#fd0" d="M59.817-238.063v3.4h-12v-3.4z"/>
  <path fill="#ffee7a" d="M56.363-238.01v3.4h-4.5v-3.4z"/>
  <path d="M45.5-238.6v-2.8c0-.2.1-.3.3-.3h15.4c.2 0 .3.1.3.3v2.8c0 .2-.1.3-.3.3H45.7c-.1 0-.2-.1-.2-.3z" fill="#fac500"/>
  <path fill="#fd0" d="M59.781-241.7v3.4h-12v-3.4z"/>
  <path fill="#ffee7a" d="M56.428-241.646v3.4h-4.5v-3.4z"/>
  <path d="M45.5-242.2v-2.8c0-.2.1-.3.3-.3h15.4c.2 0 .3.1.3.3v2.8c0 .2-.1.3-.3.3H45.7c-.1-.1-.2-.2-.2-.3z" fill="#fac500"/>
  <path fill="#fd0" d="M59.745-245.335v3.4h-12v-3.4z"/>
  <path fill="#ffee7a" d="M56.392-245.282v3.4h-4.5v-3.4z"/>
  <path d="M45.5-245.9v-2.8c0-.2.1-.3.3-.3h15.4c.2 0 .3.1.3.3v2.8c0 .2-.1.3-.3.3H45.7c-.1 0-.2-.1-.2-.3z" fill="#fac500"/>
  <path fill="#fd0" d="M59.809-248.971v3.4h-12v-3.4z"/>
  <path fill="#ffee7a" d="M56.356-248.918v3.4h-4.5v-3.4z"/>
  <path d="M45.5-249.5v-2.8c0-.2.1-.3.3-.3h15.4c.2 0 .3.1.3.3v2.8c0 .2-.1.3-.3.3H45.7c-.1 0-.2-.2-.2-.3z" fill="#fac500"/>
  <path fill="#fd0" d="M59.773-252.607v3.4h-12v-3.4z"/>
  <path fill="#ffee7a" d="M56.42-252.554v3.4h-4.5v-3.4z"/>
  <path fill="#e1a32d" d="M46.1-238.3h14.4v.3H46.1zm0-3.7h14.4v.3H46.1zm0-3.6h14.4v.3H46.1zm0-3.6h14.4v.3H46.1z"/>
  <path d="M34.5-214.2v-2.8c0-.2.1-.3.3-.3h15.4c.2 0 .3.1.3.3v2.8c0 .2-.1.3-.3.3H34.8c-.2-.1-.3-.2-.3-.3z" fill="#fac500"/>
  <path fill="#fd0" d="M48.787-217.302v3.4h-12v-3.4z"/>
  <path fill="#ffee7a" d="M45.433-217.349v3.4h-4.5v-3.4z"/>
  <path d="M34.5-217.9v-2.8c0-.2.1-.3.3-.3h15.4c.2 0 .3.1.3.3v2.8c0 .2-.1.3-.3.3H34.8c-.2 0-.3-.1-.3-.3z" fill="#fac500"/>
  <path fill="#fd0" d="M48.85-220.938v3.4h-12v-3.4z"/>
  <path fill="#ffee7a" d="M45.497-220.985v3.4h-4.5v-3.4z"/>
  <path d="M34.5-221.5v-2.8c0-.2.1-.3.3-.3h15.4c.2 0 .3.1.3.3v2.8c0 .2-.1.3-.3.3H34.8c-.2 0-.3-.2-.3-.3z" fill="#fac500"/>
  <path fill="#fd0" d="M48.815-224.574v3.4h-12v-3.4z"/>
  <path fill="#ffee7a" d="M45.461-224.62v3.4h-4.5v-3.4z"/>
  <path d="M34.5-225.2v-2.8c0-.2.1-.3.3-.3h15.4c.2 0 .3.1.3.3v2.8c0 .2-.1.3-.3.3H34.8c-.2 0-.3-.1-.3-.3z" fill="#fac500"/>
  <path fill="#fd0" d="M48.879-228.21v3.4h-12v-3.4z"/>
  <path fill="#ffee7a" d="M45.425-228.257v3.4h-4.5v-3.4z"/>
  <path d="M34.5-228.8v-2.8c0-.2.1-.3.3-.3h15.4c.2 0 .3.1.3.3v2.8c0 .2-.1.3-.3.3H34.8c-.2 0-.3-.1-.3-.3z" fill="#fac500"/>
  <path fill="#fd0" d="M48.843-231.846v3.4h-12v-3.4z"/>
  <path fill="#ffee7a" d="M45.49-231.893v3.4h-4.5v-3.4z"/>
  <path fill="#e1a32d" d="M35.2-217.6h14.4v.3H35.2zm0-3.6h14.4v.3H35.2zm0-3.7h14.4v.3H35.2zm0-3.6h14.4v.3H35.2z"/>
  <path d="M24.8-330.8h-.7l-.3 1.5H23l.7-4.1H25c.4 0 .8.1 1 .3.2.2.3.5.3.9 0 .6-.3.9-.9 1.2l.6 1.6h-.9l-.3-1.4zm-.6-.7h.6c.2 0 .4-.1.5-.2.1-.1.2-.3.3-.5 0-.2 0-.3-.1-.4-.1-.1-.2-.2-.4-.2h-.7l-.2 1.3zm3.4.8l-.3 1.4h-.8l.7-4.1h1.4c.4 0 .8.1 1 .4.3.2.4.6.3 1 0 .4-.2.7-.5 1-.3.2-.7.4-1.2.4l-.6-.1zm.2-.7h.7c.2 0 .4-.1.5-.2s.2-.3.3-.5c0-.2 0-.3-.1-.5-.1-.1-.2-.2-.4-.2H28l-.2 1.4zM.7-320H.1l-.3 1.5H-1l.7-4.1H1c.4 0 .8.1 1 .3.2.2.3.5.3.9 0 .6-.3.9-.9 1.2l.6 1.6h-.8L.7-320zm-.5-.7h.6c.2 0 .4-.1.5-.2.1-.1.2-.3.3-.5 0-.2 0-.3-.1-.4-.1-.1-.2-.2-.4-.2H.4l-.2 1.3zm3.4.8l-.3 1.4h-.8l.7-4.1h1.4c.4 0 .8.1 1 .4.3.2.4.6.3 1 0 .4-.2.7-.5 1-.3.2-.7.4-1.2.4l-.6-.1zm.1-.7h.7c.2 0 .4-.1.5-.2.1-.1.2-.3.3-.5 0-.2 0-.3-.1-.5-.1-.1-.2-.2-.4-.2h-.8l-.2 1.4zm-.8 21.8h-.6l-.3 1.5h-.8l.7-4.1h1.3c.4 0 .8.1 1 .3.2.2.3.5.3.9 0 .6-.3.9-.9 1.2l.6 1.6h-.8l-.5-1.4zm-.5-.7H3c.2 0 .4-.1.5-.2.1-.1.2-.3.3-.5 0-.2 0-.3-.1-.4-.1-.1-.2-.2-.4-.2h-.7l-.2 1.3zm3.4.7l-.3 1.4h-.7l.7-4.1h1.4c.4 0 .8.1 1 .4.3.2.4.6.3 1 0 .4-.2.7-.5 1-.3.2-.7.4-1.2.4l-.7-.1zm.1-.6h.7c.2 0 .4-.1.5-.2s.2-.3.3-.5c0-.2 0-.3-.1-.5-.1-.1-.2-.2-.4-.2h-.8l-.2 1.4zm48.9 2h-.7l-.3 1.5H53l.7-4.1H55c.4 0 .8.1 1 .3.2.2.3.5.3.9 0 .6-.3.9-.9 1.2l.6 1.6h-.9l-.3-1.4zm-.5-.6h.6c.2 0 .4-.1.5-.2.1-.1.2-.3.3-.5 0-.2 0-.3-.1-.4-.1-.1-.2-.2-.4-.2h-.7l-.2 1.3zm3.4.7l-.3 1.4h-.8l.7-4.1h1.4c.4 0 .8.1 1 .4.3.2.4.6.3 1 0 .4-.2.7-.5 1-.3.2-.7.4-1.2.4l-.6-.1zm.1-.7h.7c.2 0 .4-.1.5-.2.1-.1.2-.3.3-.5 0-.2 0-.3-.1-.5-.1-.1-.2-.2-.4-.2H58l-.2 1.4z" fill="#d9901d"/>
  <path d="M200.7-13.3c-1 0-1.9-.8-1.9-1.9v-3.5h-19.3v3.5c0 1-.8 1.9-1.9 1.9-2 0-3.6 1.6-3.6 3.6v21.9c0 2 1.6 3.6 3.6 3.6h23c2 0 3.6-1.6 3.6-3.6V-9.6c.1-2-1.5-3.7-3.5-3.7z" fill="#d3d4e7"/>
  <path d="M189.2 10.8c-5.4 0-10.5 1.1-14.7 3.1.6 1.1 1.8 1.9 3.2 1.9h23c1.4 0 2.6-.8 3.2-1.9-4.2-1.9-9.2-3.1-14.7-3.1z" fill="#8d6600"/>
  <path d="M179.7 12.6c-1.6 0-2.8-1.3-2.8-2.8V-6.9c0-1.6 1.3-2.8 2.8-2.8 1.6 0 2.8 1.3 2.8 2.8V9.7c0 1.6-1.2 2.9-2.8 2.9zm19.7 0H194c-1.2 0-2.2-1-2.2-2.2V-7.5c0-1.2 1-2.2 2.2-2.2h5.4c1.2 0 2.2 1 2.2 2.2v17.9c0 1.2-1 2.2-2.2 2.2z" fill="#fff"/>
  <path d="M188.8.6s-1.2.3-2.1-.2c-.9-.5-1.3-1.7-1.3-1.7s1.2-.3 2.1.2c1 .5 1.3 1.7 1.3 1.7z" fill="#766600"/>
  <path d="M185.4-1.3s.3 1.2 1.3 1.7c.9.5 2.1.2 2.1.2l-3.4-1.9z" fill="#6c4a00"/>
  <path d="M187.9-7.2s-.1-1.2.7-2c.7-.8 2-.8 2-.8s.1 1.2-.7 2c-.8.7-2 .8-2 .8z" fill="#766600"/>
  <path d="M190.5-10.1s-1.2 0-2 .8c-.7.8-.7 2-.7 2l2.7-2.8z" fill="#6c4a00"/>
  <path d="M190.2-27.2s-1.2 0-2-.8c-.7-.8-.7-2-.7-2s1.2 0 2 .8c.7.8.7 2 .7 2z" fill="#766600"/>
  <path d="M187.5-30s0 1.2.7 2 2 .8 2 .8l-2.7-2.8z" fill="#6c4a00"/>
  <path d="M188-21s-.9-.9-.9-1.9c0-1.1.9-1.9.9-1.9s.9.9.9 1.9c0 1.1-.9 1.9-.9 1.9z" fill="#766600"/>
  <path d="M188-24.9s-.9.9-.9 1.9c0 1.1.9 1.9.9 1.9v-3.8z" fill="#6c4a00"/>
  <path d="M192.4 10.3s-.6 1.1-1.7 1.3c-1 .3-2.1-.4-2.1-.4s.6-1.1 1.7-1.3c1.1-.2 2.1.4 2.1.4z" fill="#766600"/>
  <path d="M188.7 11.3s1.1.6 2.1.4c1-.3 1.7-1.3 1.7-1.3l-3.8.9z" fill="#6c4a00"/>
  <path d="M185.6 9.9s1-.7 2.1-.6c1.1.2 1.8 1.2 1.8 1.2s-1 .7-2.1.6c-1.1-.2-1.8-1.2-1.8-1.2z" fill="#766600"/>
  <path d="M189.4 10.5s-.7-1-1.8-1.2c-1.1-.2-2.1.6-2.1.6l3.9.6z" fill="#6c4a00"/>
  <path fill="#dfe0ed" d="M178.2-16.4h22v1.3h-22z"/>
  <path fill="#fff" d="M181.8-16.4h2.6v1.3h-2.6zm3.6 0h5.1v1.3h-5.1z"/>
  <path fill="#dfe0ed" d="M178.2-18.6h22v.4h-22z"/>
  <path fill="#fff" d="M181.8-18.6h2.6v.4h-2.6zm3.6 0h5.1v.4h-5.1z"/>
  <path d="M234.1-13.3c-1 0-1.9-.8-1.9-1.9v-3.5H213v3.5c0 1-.8 1.9-1.9 1.9-2 0-3.6 1.6-3.6 3.6v21.9c0 2 1.6 3.6 3.6 3.6h23c2 0 3.6-1.6 3.6-3.6V-9.6c0-2-1.6-3.7-3.6-3.7z" fill="#d3d4e7"/>
  <path d="M222.6 10.8c-5.4 0-10.5 1.1-14.7 3.1.6 1.1 1.8 1.9 3.2 1.9h23c1.4 0 2.6-.8 3.2-1.9-4.2-1.9-9.3-3.1-14.7-3.1z" fill="#8d6600"/>
  <path d="M228 4.7c-2.2 2.2-6 1.9-6 1.9s-.3-3.8 1.9-6c2.2-2.2 6-1.9 6-1.9s.2 3.9-1.9 6z" fill="#5bb81f"/>
  <path d="M222.1 3.4c.7 1.4-.1 3.1-.1 3.1s-1.9-.5-2.5-1.8c-.7-1.4.1-3.1.1-3.1s1.9.4 2.5 1.8z" fill="#5bb81f"/>
  <path fill="#5bb81f" d="M222 5.9h.4v5.4h-.4z"/>
  <path d="M213.1 12.6c-1.6 0-2.8-1.3-2.8-2.8V-6.9c0-1.6 1.3-2.8 2.8-2.8 1.6 0 2.8 1.3 2.8 2.8V9.7c0 1.6-1.3 2.9-2.8 2.9zm19.7 0h-5.4c-1.2 0-2.2-1-2.2-2.2V-7.5c0-1.2 1-2.2 2.2-2.2h5.4c1.2 0 2.2 1 2.2 2.2v17.9c0 1.2-1 2.2-2.2 2.2z" fill="#fff"/>
  <path fill="#dfe0ed" d="M211.6-16.4h22v1.3h-22z"/>
  <path fill="#fff" d="M215.2-16.4h2.6v1.3h-2.6zm3.6 0h5.1v1.3h-5.1z"/>
  <path fill="#dfe0ed" d="M211.6-18.6h22v.4h-22z"/>
  <path fill="#fff" d="M215.2-18.6h2.6v.4h-2.6zm3.6 0h5.1v.4h-5.1z"/>
  <path d="M255.4-41.6c-.3-.4-.8-.7-1.5-.9-.7-.2-1.4-.2-2.2-.3-.8-.1-1.7-.1-2.6-.4-.9-.2-1.7-.8-2.3-1.5-1.1-1.4-1.4-3.1-2-4.5-.3-.7-.8-1.4-1.4-1.8-.6-.4-1.5-.7-2.3-.5.8-.3 1.7-.2 2.4.2s1.3 1.1 1.7 1.8c.9 1.4 1.3 3 2.4 4.1 1 1.1 2.5 1.1 4.1 1 .8 0 1.7-.1 2.6.1.9.1 1.9.5 2.7 1.3.4.4.4 1-.1 1.4-.4.6-1 .5-1.5 0 .1.1.1.1 0 0z" fill="#b56600"/>
  <path d="M240.4-46.6c1.2-.4 2.2-1.2 3-2.1.6-.7 1.1-1.6 1.4-2.6.7-2.5-.1-5-1.8-6.7-3.5.5-6.6 3-7.6 6.7-.4 1.6-.4 3.2 0 4.7.3.1.5.2.8.3 1.4.3 2.9.2 4.2-.3z" fill="#fd0"/>
  <path d="M242.9-58c-.8-.9-1.9-1.5-3.2-1.9-3.7-1-7.6 1.2-8.6 5-.9 3.5.9 7 4.1 8.3-.4-1.5-.4-3.1 0-4.7 1.1-3.7 4.2-6.3 7.7-6.7z" fill="#ffee7a"/>
  <path d="M235.9-58.2c2.8-1.1 5.9.3 7 3.2 1.1 2.8-.3 5.9-3.2 7-2.8 1.1-5.9-.3-7-3.2-1-2.8.4-6 3.2-7z" fill="#e1a32d"/>
  <path d="M236-57.9c2.6-1 5.6.3 6.6 3 1 2.6-.3 5.6-3 6.6-2.6 1-5.6-.3-6.6-3s.3-5.6 3-6.6z" fill="#af7520"/>
  <path d="M234.9-49.1c.5.4 1.1.7 1.8.9 2.6.7 5.4-.9 6.1-3.5.6-2.2-.4-4.5-2.4-5.6.1.9 0 1.8-.2 2.8-.8 2.6-2.8 4.6-5.3 5.4z" fill="#fad351"/>
  <path d="M233.2-54.3c-.5 2 .2 4 1.7 5.2 2.5-.8 4.5-2.7 5.3-5.4.2-.9.3-1.9.2-2.8-.4-.2-.7-.4-1.1-.5-2.7-.7-5.4.9-6.1 3.5z" fill="#fac500"/>
  <path d="M267.5-13.3c-1 0-1.9-.8-1.9-1.9v-3.5h-19.3v3.5c0 1-.8 1.9-1.9 1.9-2 0-3.6 1.6-3.6 3.6v21.9c0 2 1.6 3.6 3.6 3.6h23c2 0 3.6-1.6 3.6-3.6V-9.6c.1-2-1.5-3.7-3.5-3.7z" fill="#d3d4e7"/>
  <path d="M256 10.8c-5.4 0-10.5 1.1-14.7 3.1.6 1.1 1.8 1.9 3.2 1.9h23c1.4 0 2.6-.8 3.2-1.9-4.2-1.9-9.3-3.1-14.7-3.1z" fill="#8d6600"/>
  <path d="M246.5 12.6c-1.6 0-2.8-1.3-2.8-2.8V-6.9c0-1.6 1.3-2.8 2.8-2.8 1.6 0 2.8 1.3 2.8 2.8V9.7c0 1.6-1.3 2.9-2.8 2.9zm19.7 0h-5.4c-1.2 0-2.2-1-2.2-2.2V-7.5c0-1.2 1-2.2 2.2-2.2h5.4c1.2 0 2.2 1 2.2 2.2v17.9c0 1.2-1 2.2-2.2 2.2z" fill="#fff"/>
  <path fill="#b56600" d="M257.8 11.6h-3.1l.6-94.7h1.9z"/>
  <path d="M255.4-61.6c.4-.9 1.1-1.7 1.8-2.2.8-.5 1.6-.8 2.4-1 1.7-.4 3.3-.4 4.8-.5 1.5-.1 3-.6 4.1-1.6 1.1-1 2-2.4 2.2-4-.1 1.6-.7 3.1-1.8 4.3-.6.6-1.2 1.1-2 1.5-.7.4-1.5.6-2.3.8-1.6.3-3.2.5-4.5 1-1.3.5-2.5 1.4-2.8 2.5-.1.5-.7.9-1.2.7-.5-.1-.9-.7-.7-1.2v-.3zm-.1 25.7c.4-1.5 1.3-2.8 2.4-3.7 1.1-.9 2.4-1.5 3.6-2 2.5-.9 5.1-1.2 7.3-2.4 1.1-.6 2.1-1.3 2.7-2.4.7-1 .9-2.2 1-3.5.1-1.3 0-2.6.2-3.9.2-1.3.8-2.6 1.9-3.3-1.1.8-1.5 2.1-1.7 3.3-.2 1.3 0 2.5 0 3.8 0 1.3-.1 2.7-.8 3.9-.7 1.2-1.7 2.1-2.9 2.8-2.3 1.4-5 1.9-7.2 2.9-1.1.5-2.2 1.1-3 1.9-.8.8-1.4 1.8-1.6 2.8-.1.5-.6.9-1.1.8-.6.2-.9-.3-.8-1 0 .1 0 .1 0 0zm.6-17.7c1.2-1.1 2.7-1.4 3.9-1.5 1.3-.1 2.5-.2 3.6-.4 2.2-.5 4.2-2.4 4.9-4.8-.3 2.5-2.1 4.8-4.6 5.7-1.2.5-2.5.7-3.7 1-1.2.3-2.2.7-2.7 1.5-.3.4-1 .5-1.4.2-.4-.3-.5-1-.2-1.4.1-.2.1-.2.2-.3z" fill="#b56600"/>
  <path d="M255.3-54.5c-1-1.6-2.3-3-3.9-4.1-.8-.5-1.6-1-2.5-1.4-.9-.4-1.8-.6-2.8-1-.5-.2-1-.5-1.4-.9-.4-.4-.7-1-.7-1.6-.1-1.1.2-2.1 0-3-.2-.9-.9-1.7-1.7-2.2-.9-.5-1.8-.7-2.8-1 1 .2 2 .3 2.9.8.9.4 1.8 1.2 2.1 2.2.3 1.1.1 2.1.3 3 .1.9.9 1.4 1.8 1.6.9.2 2 .4 2.9.8 1 .3 1.9.8 2.9 1.3 1.8 1.1 3.4 2.5 4.7 4.2.3.4.2 1.1-.2 1.4-.6.5-1.2.4-1.6-.1zm7.8-10.6c1.1-.6 2-1.6 2.4-2.8.4-1.2.1-2.6-.2-3.9-.4-1.3-.7-2.7-.8-4.1 0-.7 0-1.4.3-2.1.3-.6.8-1.2 1.5-1.4-.6.3-1.1.8-1.3 1.5-.3.6-.3 1.3-.2 2 .2 1.4.6 2.7 1 4 .4 1.3.8 2.8.4 4.3-.4 1.4-1.3 2.7-2.7 3.5-.2.1-.5.1-.7-.2 0-.4.1-.7.3-.8zm2.1 9.4c.7.9 1.9 1.4 3.1 1.3.6 0 1.2-.2 1.7-.5s.9-.8 1.3-1.3c.7-1.1 1.3-2.4 2.5-3.1 1.1-.8 2.4-1.2 3.8-1.2-1.3 0-2.6.5-3.6 1.4-1 .8-1.5 2-2.2 3.2-.3.6-.8 1.2-1.4 1.6-.6.4-1.3.7-2 .8-1.4.2-3-.3-4-1.4-.2-.2-.2-.5 0-.7.3-.4.6-.3.8-.1zm3.8 11.8c1.9.2 3.6.7 5.4.3 1.7-.3 3.4-1.4 4.4-2.9-.8 1.6-2.4 2.9-4.2 3.4-1.9.5-3.8.1-5.5.2-.3 0-.5-.2-.5-.5-.2-.3.1-.5.4-.5zm-20.4.3c-.7.4-1.5.9-2.2 1.4-.8.5-1.6 1-2.6 1.1-1.9.3-3.8-.4-5-1.7 1.3 1.2 3.2 1.7 4.9 1.2.8-.2 1.5-.7 2.2-1.2.7-.6 1.3-1.2 2.2-1.7.2-.1.5-.1.7.2.2.3.1.6-.2.7.1 0 0 0 0 0z" fill="#b56600"/>
  <path d="M249.3-60.1c-.6-.3-1-.8-1.1-1.3-.2-.5-.2-1-.2-1.5.1-1 .5-1.8.6-2.7.2-1.7-.5-3.6-1.8-4.9 1.4 1.1 2.3 3 2.3 4.9 0 1-.3 1.9-.3 2.7 0 .8.3 1.7.9 1.8.3.1.4.4.3.6-.1.4-.4.5-.7.4z" fill="#b56600"/>
  <path d="M234.8-65.7c.9.2 1.9.1 2.8-.3.7-.3 1.4-.7 1.9-1.2 1.4-1.4 1.9-3.4 1.4-5.2-2.6-1.1-5.6-.6-7.7 1.5-.9.9-1.5 2-1.8 3.2.1.2.3.3.4.5.9.8 1.9 1.3 3 1.5z" fill="#fd0"/>
  <path d="M241-72.4c-.2-.9-.7-1.8-1.4-2.5-2.1-2.1-5.6-2.1-7.7 0-2 2-2.1 5.1-.4 7.2.3-1.2.9-2.3 1.8-3.2 2.1-2.1 5.1-2.6 7.7-1.5z" fill="#ffee7a"/>
  <path d="M236.3-75.3c2.3.4 3.9 2.5 3.5 4.8-.4 2.3-2.5 3.9-4.8 3.5-2.3-.4-3.9-2.5-3.5-4.8.4-2.3 2.5-3.9 4.8-3.5z" fill="#e1a32d"/>
  <path d="M236.3-75c2.2.4 3.6 2.4 3.3 4.5-.4 2.2-2.4 3.6-4.5 3.3-2.2-.4-3.6-2.4-3.3-4.5.3-2.2 2.3-3.7 4.5-3.3z" fill="#af7520"/>
  <path d="M232.1-69.6c.2.5.5.9.9 1.3 1.5 1.5 3.9 1.5 5.4 0 1.3-1.3 1.5-3.2.6-4.7-.3.6-.7 1.2-1.2 1.8-1.5 1.6-3.7 2.1-5.7 1.6z" fill="#fad351"/>
  <path d="M233-73.7c-1.1 1.1-1.4 2.8-.9 4.1 2 .5 4.1-.1 5.6-1.6.5-.5.9-1.1 1.2-1.8-.2-.3-.4-.5-.6-.8-1.4-1.4-3.8-1.4-5.3.1z" fill="#fac500"/>
  <path d="M273.4-61.3c-1.8 2.9-6.1 3.6-6.1 3.6s-1.3-4.1.5-7.1c1.8-2.9 6.1-3.6 6.1-3.6s1.3 4.2-.5 7.1zm-26 5.5c.1 3.3-3 6.1-3 6.1s-3.2-2.6-3.3-5.9c-.1-3.3 3-6.1 3-6.1s3.2 2.5 3.3 5.9zm30.6 4.4c1.7 1.7 1.5 4.6 1.5 4.6s-3 .3-4.7-1.4c-1.7-1.7-1.5-4.6-1.5-4.6s3-.3 4.7 1.4zm-14.2 6.5c.1 2.4-2.2 4.4-2.2 4.4s-2.3-1.9-2.4-4.2c-.1-2.4 2.2-4.4 2.2-4.4s2.4 1.8 2.4 4.2zm3.9 3.1c2.2 1 3 3.8 3 3.8s-2.7 1.3-4.9.3-3-3.8-3-3.8 2.8-1.2 4.9-.3zm9.9-19.6c-.9 1.2-2.7 1.3-2.7 1.3s-.4-1.8.5-3 2.7-1.3 2.7-1.3.4 1.8-.5 3z" fill="#5bb81f"/>
  <path d="M277.8-59.1c-1.5.3-2.9-.9-2.9-.9s.9-1.6 2.4-1.9 2.9.9 2.9.9-1 1.6-2.4 1.9zm-34 12c-1 1.1-2.8 1.1-2.8 1.1s-.3-1.8.7-2.9c1-1.1 2.8-1.1 2.8-1.1s.3 1.8-.7 2.9zm-11.4 0c4 .2 7 4.2 7 4.2s-3.4 3.6-7.4 3.4c-4-.2-7-4.2-7-4.2s3.4-3.6 7.4-3.4z" fill="#5bb81f"/>
  <path d="M237.2-39.4c.1-2 2.1-3.5 2.1-3.5s1.8 1.7 1.7 3.7c-.1 2-2.1 3.5-2.1 3.5s-1.8-1.7-1.7-3.7z" fill="#5bb81f"/>
  <path d="M279.5-47.2c.8.6 1.7.9 2.6 1 .7.1 1.5 0 2.3-.2 1.9-.6 3.2-2.2 3.6-4-1.8-2.1-4.8-3-7.6-2.1-1.2.4-2.3 1.1-3.1 2 0 .2.1.4.2.6.4 1.2 1.1 2.1 2 2.7z" fill="#fd0"/>
  <path d="M288-50.4c.2-.9.2-1.9-.2-2.8-.9-2.8-4-4.4-6.9-3.4-2.6.9-4.1 3.6-3.6 6.2.8-.9 1.8-1.6 3.1-2 2.8-1 5.8-.1 7.6 2z" fill="#ffee7a"/>
  <path d="M285.1-55.1c1.9 1.4 2.3 4 .9 5.9-1.4 1.9-4 2.3-5.9.9-1.9-1.4-2.3-4-.9-5.9 1.4-1.8 4-2.2 5.9-.9z" fill="#e1a32d"/>
  <path d="M284.9-54.9c1.8 1.3 2.2 3.7.9 5.5-1.3 1.8-3.7 2.2-5.5.9-1.8-1.3-2.2-3.7-.9-5.5 1.3-1.7 3.8-2.1 5.5-.9z" fill="#af7520"/>
  <path d="M278.8-51.8c0 .5 0 1 .2 1.5.7 2 2.8 3.1 4.9 2.4 1.7-.6 2.7-2.2 2.6-3.9-.5.4-1.2.8-1.9 1-2.1.8-4.2.3-5.8-1z" fill="#fad351"/>
  <path d="M281.4-55.1c-1.5.5-2.5 1.8-2.6 3.3 1.6 1.3 3.7 1.8 5.8 1.1.7-.2 1.3-.6 1.9-1 0-.3-.1-.6-.2-.9-.7-2.1-2.9-3.2-4.9-2.5z" fill="#fac500"/>
  <path d="M284.6-48.1c2.9.8 4.5 4.2 4.5 4.2s-3.1 2.1-6 1.3-4.5-4.2-4.5-4.2 3.1-2.1 6-1.3zM265-75c-3.4 3.4-9.3 2.9-9.3 2.9s-.5-5.9 2.9-9.3c3.4-3.4 9.3-2.9 9.3-2.9s.4 6-2.9 9.3z" fill="#5bb81f"/>
  <path d="M254.8-72.9c1.3.2 2.7.1 3.9-.4 1-.4 1.9-.9 2.7-1.7 2-2 2.6-4.8 2-7.3-3.6-1.5-7.9-.8-10.8 2.1-1.3 1.3-2.1 2.8-2.6 4.5.2.2.4.5.6.7 1.3 1.2 2.7 1.9 4.2 2.1z" fill="#fd0"/>
  <path d="M263.4-82.3c-.3-1.3-1-2.5-2-3.5-3-3-7.8-3-10.7 0-2.7 2.7-2.9 7.1-.6 10 .4-1.6 1.3-3.2 2.6-4.5 2.9-2.8 7.1-3.5 10.7-2z" fill="#ffee7a"/>
  <path d="M256.9-86.3c3.2.5 5.4 3.6 4.9 6.8-.5 3.2-3.6 5.4-6.8 4.9-3.2-.5-5.4-3.6-4.9-6.8.6-3.2 3.6-5.4 6.8-4.9z" fill="#e1a32d"/>
  <path d="M256.8-85.9c3 .5 5.1 3.3 4.6 6.3s-3.3 5.1-6.3 4.6-5.1-3.3-4.6-6.3c.5-3.1 3.3-5.1 6.3-4.6z" fill="#af7520"/>
  <path d="M251.1-78.3c.3.7.7 1.3 1.2 1.8 2.1 2.1 5.5 2.1 7.6 0 1.8-1.8 2-4.5.8-6.5-.4.9-1 1.7-1.7 2.5-2.2 2.1-5.2 2.9-7.9 2.2z" fill="#fad351"/>
  <path d="M252.3-84.1c-1.6 1.6-2 3.9-1.2 5.8 2.7.6 5.7-.1 7.9-2.3.7-.7 1.3-1.6 1.7-2.5-.2-.4-.5-.7-.8-1.1-2.1-2-5.5-2-7.6.1z" fill="#fac500"/>
  <path d="M252.9-78.5c3 1.8 3.8 6.1 3.8 6.1s-4.2 1.5-7.2-.3-3.8-6.1-3.8-6.1 4.1-1.5 7.2.3z" fill="#5bb81f"/>
  <path fill="#dfe0ed" d="M245-16.4h22v1.3h-22z"/>
  <path fill="#fff" d="M248.6-16.4h2.6v1.3h-2.6zm3.6 0h5.1v1.3h-5.1z"/>
  <path fill="#dfe0ed" d="M245-18.6h22v.4h-22z"/>
  <path fill="#fff" d="M248.6-18.6h2.6v.4h-2.6zm3.6 0h5.1v.4h-5.1z"/>
  <path d="M273 18.5V16c0-.1.1-.2.2-.2h13.3c.1 0 .2.1.2.2v2.4c0 .1-.1.2-.2.2h-13.3c-.1.1-.2 0-.2-.1z" fill="#fac500"/>
  <path fill="#fd0" d="M285.388 15.815v2.9h-10.4v-2.9z"/>
  <path fill="#ffee7a" d="M282.488 15.815v2.9h-3.9v-2.9z"/>
  <path d="M273 15.3v-2.4c0-.1.1-.2.2-.2h13.3c.1 0 .2.1.2.2v2.4c0 .1-.1.2-.2.2h-13.3c-.1.1-.2 0-.2-.2z" fill="#fac500"/>
  <path fill="#fd0" d="M285.442 12.669v2.9h-10.4v-2.9z"/>
  <path fill="#ffee7a" d="M282.542 12.669v2.9h-3.9v-2.9z"/>
  <path d="M273 12.2V9.7c0-.1.1-.2.2-.2h13.3c.1 0 .2.1.2.2v2.4c0 .1-.1.2-.2.2h-13.3c-.1.1-.2 0-.2-.1z" fill="#fac500"/>
  <path fill="#fd0" d="M285.396 9.522v2.9h-10.4v-2.9z"/>
  <path fill="#ffee7a" d="M282.495 9.522v2.9h-3.9v-2.9z"/>
  <path d="M273 9V6.6c0-.1.1-.2.2-.2h13.3c.1 0 .2.1.2.2V9c0 .1-.1.2-.2.2h-13.3c-.1.1-.2 0-.2-.2z" fill="#fac500"/>
  <path fill="#fd0" d="M285.45 6.376v2.9h-10.4v-2.9z"/>
  <path fill="#ffee7a" d="M282.45 6.376v2.9h-3.9v-2.9z"/>
  <path d="M273 5.9V3.4c0-.1.1-.2.2-.2h13.3c.1 0 .2.1.2.2v2.4c0 .1-.1.2-.2.2h-13.3c-.1.1-.2 0-.2-.1z" fill="#fac500"/>
  <path fill="#fd0" d="M285.403 3.23v2.9h-10.4v-2.9z"/>
  <path fill="#ffee7a" d="M282.503 3.23v2.9h-3.9v-2.9z"/>
  <path fill="#e1a32d" d="M273.6 15.6H286v.2h-12.4zm0-3.2H286v.2h-12.4zm0-3.1H286v.2h-12.4zm0-3.2H286v.2h-12.4zm0-3.1H286v.2h-12.4z"/>
  <path d="M273 2.7V.3c0-.1.1-.2.2-.2h13.3c.1 0 .2.1.2.2v2.4c0 .1-.1.2-.2.2h-13.3c-.1.1-.2 0-.2-.2z" fill="#fac500"/>
  <path fill="#fd0" d="M285.457.083v2.9h-10.4v-2.9z"/>
  <path fill="#ffee7a" d="M282.456.084v2.9h-3.9v-2.9z"/>
  <path d="M273-.4v-2.4c0-.1.1-.2.2-.2h13.3c.1 0 .2.1.2.2v2.4c0 .1-.1.2-.2.2h-13.3c-.1 0-.2-.1-.2-.2z" fill="#fac500"/>
  <path fill="#fd0" d="M285.41-3.063v2.9h-10.4v-2.9z"/>
  <path fill="#ffee7a" d="M282.51-3.063v2.9h-3.9v-2.9z"/>
  <path d="M273-3.6V-6c0-.1.1-.2.2-.2h13.3c.1 0 .2.1.2.2v2.4c0 .1-.1.2-.2.2h-13.3c-.1.1-.2 0-.2-.2z" fill="#fac500"/>
  <path fill="#fd0" d="M285.464-6.21v2.9h-10.4v-2.9z"/>
  <path fill="#ffee7a" d="M282.464-6.21v2.9h-3.9v-2.9z"/>
  <path d="M273-6.7v-2.4c0-.1.1-.2.2-.2h13.3c.1 0 .2.1.2.2v2.4c0 .1-.1.2-.2.2h-13.3c-.1 0-.2-.1-.2-.2z" fill="#fac500"/>
  <path fill="#fd0" d="M285.418-9.356v2.9h-10.4v-2.9z"/>
  <path fill="#ffee7a" d="M282.518-9.355v2.9h-3.9v-2.9z"/>
  <path d="M273-9.8v-2.4c0-.1.1-.2.2-.2h13.3c.1 0 .2.1.2.2v2.4c0 .1-.1.2-.2.2h-13.3c-.1 0-.2-.1-.2-.2z" fill="#fac500"/>
  <path fill="#fd0" d="M285.471-12.502v2.9h-10.4v-2.9z"/>
  <path fill="#ffee7a" d="M282.471-12.502v2.9h-3.9v-2.9z"/>
  <path fill="#e1a32d" d="M273.6-.2H286V0h-12.4zm0-3.1H286v.2h-12.4zm0-3.2H286v.2h-12.4zm0-3.1H286v.2h-12.4z"/>
  <path d="M263.6 20.7v-2.4c0-.1.1-.2.2-.2h13.3c.1 0 .2.1.2.2v2.4c0 .1-.1.2-.2.2h-13.3c-.1 0-.2-.1-.2-.2z" fill="#fac500"/>
  <path fill="#fd0" d="M275.91 17.98v2.9h-10.4v-2.9z"/>
  <path fill="#ffee7a" d="M273.01 17.98v2.9h-3.9v-2.9z"/>
  <path d="M263.6 17.5v-2.4c0-.1.1-.2.2-.2h13.3c.1 0 .2.1.2.2v2.4c0 .1-.1.2-.2.2h-13.3c-.1.1-.2-.1-.2-.2z" fill="#fac500"/>
  <path fill="#fd0" d="M275.965 14.834v2.9h-10.4v-2.9z"/>
  <path fill="#ffee7a" d="M273.064 14.834v2.9h-3.9v-2.9z"/>
  <path d="M263.6 14.4V12c0-.1.1-.2.2-.2h13.3c.1 0 .2.1.2.2v2.4c0 .1-.1.2-.2.2h-13.3c-.1 0-.2-.1-.2-.2z" fill="#fac500"/>
  <path fill="#fd0" d="M275.918 11.688v2.9h-10.4v-2.9z"/>
  <path fill="#ffee7a" d="M273.018 11.688v2.9h-3.9v-2.9z"/>
  <path d="M263.6 11.2V8.8c0-.1.1-.2.2-.2h13.3c.1 0 .2.1.2.2v2.4c0 .1-.1.2-.2.2h-13.3c-.1.1-.2 0-.2-.2z" fill="#fac500"/>
  <path fill="#fd0" d="M275.972 8.541v2.9h-10.4v-2.9z"/>
  <path fill="#ffee7a" d="M273.072 8.542v2.9h-3.9v-2.9z"/>
  <path d="M263.6 8.1V5.6c0-.1.1-.2.2-.2h13.3c.1 0 .2.1.2.2V8c0 .1-.1.2-.2.2h-13.3c-.1.1-.2 0-.2-.1z" fill="#fac500"/>
  <path fill="#fd0" d="M275.926 5.395v2.9h-10.4v-2.9z"/>
  <path fill="#ffee7a" d="M273.025 5.395v2.9h-3.9v-2.9z"/>
  <path fill="#e1a32d" d="M264.1 17.8h12.4v.2h-12.4zm0-3.2h12.4v.2h-12.4zm0-3.1h12.4v.2h-12.4zm0-3.2h12.4v.2h-12.4z"/>
  <path d="M255.1-80.2h-.6l-.2 1.3h-.7l.6-3.5h1.2c.4 0 .7.1.9.3.2.2.3.4.3.8 0 .5-.3.8-.8 1l.5 1.4h-.8l-.4-1.3zm-.5-.6h.5c.2 0 .3-.1.5-.2.1-.1.2-.2.2-.4s0-.3-.1-.4c-.1-.1-.2-.1-.3-.1h-.6l-.2 1.1zm3 .7l-.2 1.2h-.7l.6-3.5h1.2c.4 0 .7.1.9.3.2.2.3.5.3.8 0 .3-.2.6-.4.8-.3.2-.6.3-1 .3l-.7.1zm.1-.6h.6c.2 0 .3 0 .5-.1.1-.1.2-.2.2-.4s0-.3-.1-.4c-.1-.1-.2-.2-.3-.2h-.7l-.2 1.1zm-23.4 9.9h-.6l-.2 1.3h-.7l.6-3.5h1.2c.4 0 .7.1.9.3.2.2.3.4.3.8 0 .5-.3.8-.8 1l.5 1.4h-.8l-.4-1.3zm-.5-.6h.5c.2 0 .3-.1.5-.2.1-.1.2-.2.2-.4s0-.3-.1-.4-.2-.1-.3-.1h-.6l-.2 1.1zm3 .6l-.2 1.2h-.7l.6-3.5h1.2c.4 0 .7.1.9.3.2.2.3.5.3.8 0 .3-.2.6-.4.8-.3.2-.6.3-1 .3l-.7.1zm.1-.6h.6c.2 0 .3 0 .5-.1s.2-.2.2-.4 0-.3-.1-.4c-.1-.1-.2-.2-.3-.2h-.7l-.2 1.1zm-.7 18.9h-.6l-.2 1.3h-.7l.6-3.5h1.2c.4 0 .7.1.9.3.2.2.3.4.3.8 0 .5-.3.8-.8 1l.5 1.4h-.8l-.4-1.3zm-.4-.6h.5c.2 0 .3-.1.5-.2.1-.1.2-.2.2-.4s0-.3-.1-.4-.2-.1-.3-.1h-.6l-.2 1.1zm2.9.6l-.2 1.2h-.7l.6-3.5h1.2c.4 0 .7.1.9.3.2.2.3.5.3.8 0 .3-.2.6-.4.8-.3.2-.6.3-1 .3l-.7.1zm.1-.5h.6c.2 0 .3 0 .5-.1s.2-.2.2-.4 0-.3-.1-.4c-.1-.1-.2-.2-.3-.2h-.7l-.2 1.1zm42.3 1.8h-.6l-.2 1.3h-.7l.6-3.5h1.2c.4 0 .7.1.9.3.2.2.3.4.3.8 0 .5-.3.8-.8 1l.5 1.4h-.8l-.4-1.3zm-.4-.6h.5c.2 0 .3-.1.5-.2.1-.1.2-.2.2-.4s0-.3-.1-.4c-.1-.1-.2-.1-.3-.1h-.6l-.2 1.1zm2.9.6l-.2 1.2h-.7l.6-3.5h1.2c.4 0 .7.1.9.3.2.2.3.5.3.8 0 .3-.2.6-.4.8-.3.2-.6.3-1 .3l-.7.1zm.1-.6h.6c.2 0 .3 0 .5-.1.1-.1.2-.2.2-.4s0-.3-.1-.4-.2-.2-.3-.2h-.7l-.2 1.1z" fill="#d9901d"/>
  <path d="M65.3 46.6s-4.9-24.3 8.5-28.1C90 13.8 90.5 43.1 90.5 43.1l-25.2 3.5z" fill="#fddbbb"/>
  <path d="M87.4 4.2s6.3 18.4-18.8 19.5l.2 6.2s-2.5-2-2.8.9c-.3 3.3 2.4 1.5 2.4 1.5s-1.5 7.7-3.8 10.8c-.4-.4-11.9-27.1-.4-27.2 0-.8.8-5.9 7.1-8 9.6-3.2 10.5 5.2 16.1-3.7z" fill="#4f423a"/>
  <path d="M74.9 28.7c.3 1.1.1 2.1-.4 2.2-.5.1-1.1-.6-1.4-1.7-.3-1.1-.1-2.1.4-2.2.5-.1 1.1.6 1.4 1.7zm10.4-3.2c.3 1.1.1 2.1-.4 2.2-.5.1-1.1-.6-1.4-1.7-.3-1.1-.1-2.1.4-2.2.6-.2 1.2.6 1.4 1.7z" fill="#4f423a"/>
  <path d="M84.1 32.3s-4.7.7-7.4 2.3c0 0 .4 4.3 4.8 3.1 4.2-1.1 2.6-5.4 2.6-5.4z" fill="#eb7d86"/>
  <g opacity=".4">
    <path d="M57 111.5c0 1.8 10.7 3.2 23.9 3.2s23.9-1.5 23.9-3.2c0-1.8-10.7-3.2-23.9-3.2S57 109.8 57 111.5z" fill="#fff"/>
    <path d="M57 111.5c0 1.8 10.7 3.2 23.8 3.2 13.2 0 23.8-1.4 23.8-3.2 0-1.8-10.7-3.2-23.8-3.2-13.1 0-23.8 1.5-23.8 3.2z" opacity=".999" fill="#fefefe"/>
    <path d="M57.1 111.5c0 1.8 10.6 3.2 23.8 3.2 13.1 0 23.8-1.4 23.8-3.2 0-1.8-10.6-3.2-23.8-3.2-13.2 0-23.8 1.5-23.8 3.2z" opacity=".998" fill="#fdfdfd"/>
    <path d="M57.2 111.5c0 1.8 10.6 3.2 23.7 3.2s23.7-1.4 23.7-3.2c0-1.8-10.6-3.2-23.7-3.2s-23.7 1.5-23.7 3.2z" opacity=".997" fill="#fcfcfc"/>
    <path d="M57.2 111.5c0 1.8 10.6 3.2 23.7 3.2s23.7-1.4 23.7-3.2c0-1.8-10.6-3.2-23.7-3.2s-23.7 1.5-23.7 3.2z" opacity=".996" fill="#fbfbfb"/>
    <path d="M57.3 111.5c0 1.8 10.6 3.2 23.6 3.2 13 0 23.6-1.4 23.6-3.2 0-1.8-10.6-3.2-23.6-3.2-13.1 0-23.6 1.5-23.6 3.2z" opacity=".995" fill="#fafafa"/>
    <path d="M57.3 111.5c0 1.8 10.6 3.2 23.6 3.2 13 0 23.6-1.4 23.6-3.2 0-1.8-10.6-3.2-23.6-3.2-13 0-23.6 1.5-23.6 3.2z" opacity=".994" fill="#f9f9f9"/>
    <path d="M57.4 111.5c0 1.8 10.5 3.2 23.5 3.2s23.5-1.4 23.5-3.2c0-1.8-10.5-3.2-23.5-3.2s-23.5 1.5-23.5 3.2z" opacity=".993" fill="#f8f8f8"/>
    <path d="M57.4 111.5c0 1.8 10.5 3.2 23.5 3.2s23.5-1.4 23.5-3.2c0-1.8-10.5-3.2-23.5-3.2-13 .1-23.5 1.5-23.5 3.2z" opacity=".992" fill="#f7f7f7"/>
    <path d="M57.5 111.5c0 1.8 10.5 3.2 23.4 3.2 12.9 0 23.4-1.4 23.4-3.2 0-1.8-10.5-3.2-23.4-3.2-12.9.1-23.4 1.5-23.4 3.2z" opacity=".991" fill="#f6f6f6"/>
    <path d="M57.5 111.5c0 1.8 10.5 3.2 23.3 3.2 12.9 0 23.4-1.4 23.4-3.2 0-1.8-10.5-3.2-23.4-3.2-12.8.1-23.3 1.5-23.3 3.2z" opacity=".989" fill="#f5f5f5"/>
    <path d="M57.6 111.5c0 1.7 10.4 3.2 23.3 3.2s23.3-1.4 23.3-3.2c0-1.8-10.4-3.2-23.3-3.2-12.9.1-23.3 1.5-23.3 3.2z" opacity=".988" fill="#f4f4f4"/>
    <path d="M57.6 111.5c0 1.7 10.4 3.2 23.2 3.2 12.8 0 23.2-1.4 23.2-3.2 0-1.7-10.4-3.2-23.2-3.2-12.8.1-23.2 1.5-23.2 3.2z" opacity=".987" fill="#f3f3f3"/>
    <path d="M57.7 111.5c0 1.7 10.4 3.2 23.2 3.2 12.8 0 23.2-1.4 23.2-3.2 0-1.7-10.4-3.2-23.2-3.2-12.8.1-23.2 1.5-23.2 3.2z" opacity=".986" fill="#f2f2f2"/>
    <path d="M57.8 111.5c0 1.7 10.4 3.1 23.1 3.1 12.8 0 23.1-1.4 23.1-3.1 0-1.7-10.4-3.1-23.1-3.1-12.8 0-23.1 1.4-23.1 3.1z" opacity=".985" fill="#f1f1f1"/>
    <path d="M57.8 111.5c0 1.7 10.3 3.1 23.1 3.1 12.7 0 23.1-1.4 23.1-3.1 0-1.7-10.3-3.1-23.1-3.1s-23.1 1.4-23.1 3.1z" opacity=".984" fill="#f0f0f0"/>
    <path d="M57.9 111.5c0 1.7 10.3 3.1 23 3.1s23-1.4 23-3.1c0-1.7-10.3-3.1-23-3.1s-23 1.4-23 3.1z" opacity=".983" fill="#efefef"/>
    <path d="M57.9 111.5c0 1.7 10.3 3.1 23 3.1s23-1.4 23-3.1c0-1.7-10.3-3.1-23-3.1s-23 1.4-23 3.1z" opacity=".982" fill="#eee"/>
    <path d="M58 111.5c0 1.7 10.3 3.1 22.9 3.1 12.7 0 22.9-1.4 22.9-3.1 0-1.7-10.3-3.1-22.9-3.1-12.7 0-22.9 1.4-22.9 3.1z" opacity=".981" fill="#ededed"/>
    <path d="M58 111.5c0 1.7 10.2 3.1 22.9 3.1 12.6 0 22.9-1.4 22.9-3.1 0-1.7-10.2-3.1-22.9-3.1-12.6 0-22.9 1.4-22.9 3.1z" opacity=".98" fill="#ececec"/>
    <path d="M58.1 111.5c0 1.7 10.2 3.1 22.8 3.1 12.6 0 22.8-1.4 22.8-3.1 0-1.7-10.2-3.1-22.8-3.1-12.6 0-22.8 1.4-22.8 3.1z" opacity=".979" fill="#ebebeb"/>
    <path d="M58.1 111.5c0 1.7 10.2 3.1 22.8 3.1 12.6 0 22.8-1.4 22.8-3.1 0-1.7-10.2-3.1-22.8-3.1-12.6.1-22.8 1.4-22.8 3.1z" opacity=".978" fill="#eaeaea"/>
    <path d="M58.2 111.5c0 1.7 10.2 3.1 22.7 3.1s22.7-1.4 22.7-3.1c0-1.7-10.2-3.1-22.7-3.1-12.6.1-22.7 1.4-22.7 3.1z" opacity=".977" fill="#e9e9e9"/>
    <path d="M58.2 111.5c0 1.7 10.1 3.1 22.6 3.1 12.5 0 22.6-1.4 22.6-3.1 0-1.7-10.1-3.1-22.6-3.1-12.4.1-22.6 1.4-22.6 3.1z" opacity=".976" fill="#e8e8e8"/>
    <path d="M58.3 111.5c0 1.7 10.1 3.1 22.6 3.1 12.5 0 22.6-1.4 22.6-3.1 0-1.7-10.1-3.1-22.6-3.1-12.5.1-22.6 1.4-22.6 3.1z" opacity=".975" fill="#e7e7e7"/>
    <path d="M58.4 111.5c0 1.7 10.1 3.1 22.5 3.1s22.5-1.4 22.5-3.1c0-1.7-10.1-3.1-22.5-3.1-12.5.1-22.5 1.5-22.5 3.1z" opacity=".974" fill="#e6e6e6"/>
    <path d="M58.4 111.5c0 1.7 10.1 3.1 22.5 3.1s22.5-1.4 22.5-3.1c0-1.7-10.1-3.1-22.5-3.1-12.4.1-22.5 1.5-22.5 3.1z" opacity=".973" fill="#e5e5e5"/>
    <path d="M58.5 111.5c0 1.7 10 3 22.4 3 12.4 0 22.4-1.4 22.4-3 0-1.7-10-3-22.4-3-12.4 0-22.4 1.4-22.4 3z" opacity=".971" fill="#e4e4e4"/>
    <path d="M58.5 111.5c0 1.7 10 3 22.4 3 12.4 0 22.4-1.4 22.4-3 0-1.7-10-3-22.4-3-12.4 0-22.4 1.4-22.4 3z" opacity=".97" fill="#e3e3e3"/>
    <path d="M58.6 111.5c0 1.7 10 3 22.3 3s22.3-1.4 22.3-3c0-1.7-10-3-22.3-3s-22.3 1.4-22.3 3z" opacity=".969" fill="#e2e2e2"/>
    <path d="M58.6 111.5c0 1.7 10 3 22.3 3s22.3-1.4 22.3-3c0-1.7-10-3-22.3-3s-22.3 1.4-22.3 3z" opacity=".968" fill="#e1e1e1"/>
    <path d="M58.7 111.5c0 1.7 9.9 3 22.2 3 12.3 0 22.2-1.4 22.2-3 0-1.7-9.9-3-22.2-3-12.3 0-22.2 1.4-22.2 3z" opacity=".967" fill="#e0e0e0"/>
    <path d="M58.7 111.5c0 1.7 9.9 3 22.2 3 12.2 0 22.2-1.3 22.2-3s-9.9-3-22.2-3c-12.2 0-22.2 1.4-22.2 3z" opacity=".966" fill="#dfdfdf"/>
    <path d="M58.8 111.5c0 1.7 9.9 3 22.1 3 12.2 0 22.1-1.3 22.1-3s-9.9-3-22.1-3c-12.2 0-22.1 1.4-22.1 3z" opacity=".965" fill="#dedede"/>
    <path d="M58.8 111.5c0 1.7 9.9 3 22 3 12.2 0 22-1.3 22-3s-9.9-3-22-3-22 1.4-22 3z" opacity=".964" fill="#ddd"/>
    <path d="M58.9 111.5c0 1.7 9.8 3 22 3 12.1 0 22-1.3 22-3s-9.8-3-22-3c-12.2.1-22 1.4-22 3z" opacity=".963" fill="#dcdcdc"/>
    <path d="M58.9 111.5c0 1.6 9.8 3 21.9 3 12.1 0 21.9-1.3 21.9-3 0-1.6-9.8-3-21.9-3-12 .1-21.9 1.4-21.9 3z" opacity=".962" fill="#dbdbdb"/>
    <path d="M59 111.5c0 1.6 9.8 3 21.9 3 12.1 0 21.9-1.3 21.9-3 0-1.6-9.8-3-21.9-3-12.1.1-21.9 1.4-21.9 3z" opacity=".961" fill="#dadada"/>
    <path d="M59.1 111.5c0 1.6 9.8 3 21.8 3 12.1 0 21.8-1.3 21.8-3 0-1.6-9.8-3-21.8-3-12.1.1-21.8 1.4-21.8 3z" opacity=".96" fill="#d9d9d9"/>
    <path d="M59.1 111.5c0 1.6 9.7 3 21.8 3 12 0 21.8-1.3 21.8-3 0-1.6-9.7-3-21.8-3-12 .1-21.8 1.4-21.8 3z" opacity=".959" fill="#d8d8d8"/>
    <path d="M59.2 111.5c0 1.6 9.7 3 21.7 3s21.7-1.3 21.7-3c0-1.6-9.7-3-21.7-3-12 .1-21.7 1.4-21.7 3z" opacity=".958" fill="#d7d7d7"/>
    <path d="M59.2 111.5c0 1.6 9.7 2.9 21.7 2.9s21.7-1.3 21.7-2.9c0-1.6-9.7-2.9-21.7-2.9s-21.7 1.3-21.7 2.9z" opacity=".957" fill="#d6d6d6"/>
    <path d="M59.3 111.5c0 1.6 9.7 2.9 21.6 2.9 11.9 0 21.6-1.3 21.6-2.9 0-1.6-9.7-2.9-21.6-2.9-11.9 0-21.6 1.3-21.6 2.9z" opacity=".956" fill="#d5d5d5"/>
    <path d="M59.3 111.5c0 1.6 9.7 2.9 21.6 2.9 11.9 0 21.6-1.3 21.6-2.9 0-1.6-9.7-2.9-21.6-2.9-11.9 0-21.6 1.3-21.6 2.9z" opacity=".955" fill="#d4d4d4"/>
    <path d="M59.4 111.5c0 1.6 9.6 2.9 21.5 2.9s21.5-1.3 21.5-2.9c0-1.6-9.6-2.9-21.5-2.9s-21.5 1.3-21.5 2.9z" opacity=".953" fill="#d3d3d3"/>
    <path d="M59.4 111.5c0 1.6 9.6 2.9 21.4 2.9 11.8 0 21.4-1.3 21.4-2.9 0-1.6-9.6-2.9-21.4-2.9-11.8 0-21.4 1.3-21.4 2.9z" opacity=".952" fill="#d2d2d2"/>
    <path d="M59.5 111.5c0 1.6 9.6 2.9 21.4 2.9 11.8 0 21.4-1.3 21.4-2.9 0-1.6-9.6-2.9-21.4-2.9-11.8 0-21.4 1.3-21.4 2.9z" opacity=".951" fill="#d1d1d1"/>
    <path d="M59.5 111.5c0 1.6 9.6 2.9 21.3 2.9 11.8 0 21.3-1.3 21.3-2.9 0-1.6-9.6-2.9-21.3-2.9-11.7 0-21.3 1.3-21.3 2.9z" opacity=".95" fill="#d0d0d0"/>
    <path d="M59.6 111.5c0 1.6 9.5 2.9 21.3 2.9s21.3-1.3 21.3-2.9c0-1.6-9.5-2.9-21.3-2.9-11.8.1-21.3 1.3-21.3 2.9z" opacity=".949" fill="#cfcfcf"/>
    <path d="M59.7 111.5c0 1.6 9.5 2.9 21.2 2.9s21.2-1.3 21.2-2.9c0-1.6-9.5-2.9-21.2-2.9-11.7.1-21.2 1.4-21.2 2.9z" opacity=".948" fill="#cecece"/>
    <path d="M59.7 111.5c0 1.6 9.5 2.9 21.2 2.9s21.2-1.3 21.2-2.9c0-1.6-9.5-2.9-21.2-2.9-11.7.1-21.2 1.4-21.2 2.9z" opacity=".947" fill="#cdcdcd"/>
    <path d="M59.8 111.5c0 1.6 9.5 2.9 21.1 2.9 11.7 0 21.1-1.3 21.1-2.9 0-1.6-9.5-2.9-21.1-2.9-11.7.1-21.1 1.4-21.1 2.9z" opacity=".946" fill="#ccc"/>
    <path d="M59.8 111.5c0 1.6 9.4 2.9 21.1 2.9 11.6 0 21.1-1.3 21.1-2.9 0-1.6-9.4-2.9-21.1-2.9-11.6.1-21.1 1.4-21.1 2.9z" opacity=".945" fill="#cbcbcb"/>
    <path d="M59.9 111.5c0 1.6 9.4 2.9 21 2.9s21-1.3 21-2.9c0-1.6-9.4-2.9-21-2.9-11.6.1-21 1.4-21 2.9z" opacity=".944" fill="#cacaca"/>
    <path d="M59.9 111.5c0 1.6 9.4 2.8 21 2.8s21-1.3 21-2.8c0-1.6-9.4-2.8-21-2.8s-21 1.3-21 2.8z" opacity=".943" fill="#c9c9c9"/>
    <path d="M60 111.5c0 1.6 9.4 2.8 20.9 2.8 11.5 0 20.9-1.3 20.9-2.8 0-1.6-9.4-2.8-20.9-2.8-11.6 0-20.9 1.3-20.9 2.8z" opacity=".942" fill="#c8c8c8"/>
    <path d="M60 111.5c0 1.6 9.3 2.8 20.8 2.8s20.9-1.3 20.9-2.8c0-1.6-9.3-2.8-20.9-2.8-11.4 0-20.8 1.3-20.8 2.8z" opacity=".941" fill="#c7c7c7"/>
    <path d="M60.1 111.5c0 1.6 9.3 2.8 20.8 2.8s20.8-1.3 20.8-2.8c0-1.6-9.3-2.8-20.8-2.8s-20.8 1.3-20.8 2.8z" opacity=".94" fill="#c6c6c6"/>
    <path d="M60.1 111.5c0 1.6 9.3 2.8 20.7 2.8 11.5 0 20.7-1.3 20.7-2.8 0-1.6-9.3-2.8-20.7-2.8-11.4 0-20.7 1.3-20.7 2.8z" opacity=".939" fill="#c5c5c5"/>
    <path d="M60.2 111.5c0 1.6 9.3 2.8 20.7 2.8 11.4 0 20.7-1.3 20.7-2.8 0-1.6-9.3-2.8-20.7-2.8-11.4 0-20.7 1.3-20.7 2.8z" opacity=".938" fill="#c4c4c4"/>
    <path d="M60.3 111.5c0 1.5 9.2 2.8 20.6 2.8 11.4 0 20.6-1.3 20.6-2.8 0-1.6-9.2-2.8-20.6-2.8-11.4 0-20.6 1.3-20.6 2.8z" opacity=".936" fill="#c3c3c3"/>
    <path d="M60.3 111.5c0 1.5 9.2 2.8 20.6 2.8 11.4 0 20.6-1.3 20.6-2.8 0-1.5-9.2-2.8-20.6-2.8-11.4 0-20.6 1.3-20.6 2.8z" opacity=".935" fill="#c2c2c2"/>
    <path d="M60.4 111.5c0 1.5 9.2 2.8 20.5 2.8s20.5-1.2 20.5-2.8c0-1.5-9.2-2.8-20.5-2.8-11.3.1-20.5 1.3-20.5 2.8z" opacity=".934" fill="#c1c1c1"/>
    <path d="M60.4 111.5c0 1.5 9.2 2.8 20.5 2.8s20.5-1.2 20.5-2.8c0-1.5-9.2-2.8-20.5-2.8-11.3.1-20.5 1.3-20.5 2.8z" opacity=".933" fill="silver"/>
    <path d="M60.5 111.5c0 1.5 9.1 2.8 20.4 2.8 11.3 0 20.4-1.2 20.4-2.8 0-1.5-9.1-2.8-20.4-2.8-11.3.1-20.4 1.3-20.4 2.8z" opacity=".932" fill="#bfbfbf"/>
    <path d="M60.5 111.5c0 1.5 9.1 2.8 20.4 2.8 11.2 0 20.4-1.2 20.4-2.8 0-1.5-9.1-2.8-20.4-2.8-11.3.1-20.4 1.3-20.4 2.8z" opacity=".931" fill="#bebebe"/>
    <path d="M60.6 111.5c0 1.5 9.1 2.8 20.3 2.8 11.2 0 20.3-1.2 20.3-2.8 0-1.5-9.1-2.8-20.3-2.8-11.2.1-20.3 1.3-20.3 2.8z" opacity=".93" fill="#bdbdbd"/>
    <path d="M60.6 111.5c0 1.5 9.1 2.8 20.3 2.8 11.2 0 20.3-1.2 20.3-2.8 0-1.5-9.1-2.8-20.3-2.8-11.2.1-20.3 1.3-20.3 2.8z" opacity=".929" fill="#bcbcbc"/>
    <path d="M60.7 111.5c0 1.5 9 2.7 20.2 2.7s20.2-1.2 20.2-2.7c0-1.5-9-2.7-20.2-2.7s-20.2 1.2-20.2 2.7z" opacity=".928" fill="#bbb"/>
    <path d="M60.7 111.5c0 1.5 9 2.7 20.1 2.7 11.1 0 20.1-1.2 20.1-2.7 0-1.5-9-2.7-20.1-2.7-11 0-20.1 1.2-20.1 2.7z" opacity=".927" fill="#bababa"/>
    <path d="M60.8 111.5c0 1.5 9 2.7 20.1 2.7 11.1 0 20.1-1.2 20.1-2.7 0-1.5-9-2.7-20.1-2.7-11.1 0-20.1 1.2-20.1 2.7z" opacity=".926" fill="#b9b9b9"/>
    <path d="M60.9 111.5c0 1.5 9 2.7 20 2.7 11.1 0 20-1.2 20-2.7 0-1.5-9-2.7-20-2.7-11.1 0-20 1.2-20 2.7z" opacity=".925" fill="#b8b8b8"/>
    <path d="M60.9 111.5c0 1.5 8.9 2.7 20 2.7 11 0 20-1.2 20-2.7 0-1.5-8.9-2.7-20-2.7-11 0-20 1.2-20 2.7z" opacity=".924" fill="#b7b7b7"/>
    <path d="M61 111.5c0 1.5 8.9 2.7 19.9 2.7 11 0 19.9-1.2 19.9-2.7 0-1.5-8.9-2.7-19.9-2.7-11 0-19.9 1.2-19.9 2.7z" opacity=".923" fill="#b6b6b6"/>
    <path d="M61 111.5c0 1.5 8.9 2.7 19.9 2.7 11 0 19.9-1.2 19.9-2.7 0-1.5-8.9-2.7-19.9-2.7-11 0-19.9 1.3-19.9 2.7z" opacity=".922" fill="#b5b5b5"/>
    <path d="M61.1 111.5c0 1.5 8.9 2.7 19.8 2.7s19.8-1.2 19.8-2.7c0-1.5-8.9-2.7-19.8-2.7-11 .1-19.8 1.3-19.8 2.7z" opacity=".921" fill="#b4b4b4"/>
    <path d="M61.1 111.5c0 1.5 8.8 2.7 19.8 2.7 10.9 0 19.8-1.2 19.8-2.7 0-1.5-8.8-2.7-19.8-2.7-10.9.1-19.8 1.3-19.8 2.7z" opacity=".92" fill="#b3b3b3"/>
    <path d="M61.2 111.5c0 1.5 8.8 2.7 19.7 2.7 10.9 0 19.7-1.2 19.7-2.7 0-1.5-8.8-2.7-19.7-2.7-10.9.1-19.7 1.3-19.7 2.7z" opacity=".918" fill="#b2b2b2"/>
    <path d="M61.2 111.5c0 1.5 8.8 2.7 19.7 2.7 10.9 0 19.7-1.2 19.7-2.7 0-1.5-8.8-2.7-19.7-2.7-10.9.1-19.7 1.3-19.7 2.7z" opacity=".917" fill="#b1b1b1"/>
    <path d="M61.3 111.5c0 1.5 8.8 2.7 19.6 2.7s19.6-1.2 19.6-2.7c0-1.5-8.8-2.7-19.6-2.7-10.8.1-19.6 1.3-19.6 2.7z" opacity=".916" fill="#b0b0b0"/>
    <path d="M61.3 111.5c0 1.5 8.8 2.7 19.5 2.7 10.8 0 19.5-1.2 19.5-2.7 0-1.5-8.7-2.7-19.5-2.7-10.7.1-19.5 1.3-19.5 2.7z" opacity=".915" fill="#afafaf"/>
    <path d="M61.4 111.5c0 1.5 8.7 2.6 19.5 2.6s19.5-1.2 19.5-2.6c0-1.5-8.7-2.7-19.5-2.7-10.8.1-19.5 1.3-19.5 2.7z" opacity=".914" fill="#aeaeae"/>
    <path d="M61.4 111.5c0 1.5 8.7 2.6 19.4 2.6s19.4-1.2 19.4-2.6c0-1.5-8.7-2.6-19.4-2.6-10.6 0-19.4 1.2-19.4 2.6z" opacity=".913" fill="#adadad"/>
    <path d="M61.5 111.5c0 1.5 8.7 2.6 19.4 2.6s19.4-1.2 19.4-2.6c0-1.5-8.7-2.6-19.4-2.6s-19.4 1.2-19.4 2.6z" opacity=".912" fill="#acacac"/>
    <path d="M61.6 111.5c0 1.5 8.7 2.6 19.3 2.6 10.7 0 19.3-1.2 19.3-2.6 0-1.5-8.7-2.6-19.3-2.6-10.7 0-19.3 1.2-19.3 2.6z" opacity=".911" fill="#ababab"/>
    <path d="M61.6 111.5c0 1.4 8.6 2.6 19.3 2.6 10.6 0 19.3-1.2 19.3-2.6 0-1.4-8.6-2.6-19.3-2.6-10.7 0-19.3 1.2-19.3 2.6z" opacity=".91" fill="#aaa"/>
    <path d="M61.7 111.5c0 1.4 8.6 2.6 19.2 2.6s19.2-1.2 19.2-2.6c0-1.4-8.6-2.6-19.2-2.6s-19.2 1.2-19.2 2.6z" opacity=".909" fill="#a9a9a9"/>
    <path d="M61.7 111.5c0 1.4 8.6 2.6 19.2 2.6s19.2-1.2 19.2-2.6c0-1.4-8.6-2.6-19.2-2.6s-19.2 1.2-19.2 2.6z" opacity=".908" fill="#a8a8a8"/>
    <path d="M61.8 111.5c0 1.4 8.6 2.6 19.1 2.6 10.6 0 19.1-1.2 19.1-2.6 0-1.4-8.6-2.6-19.1-2.6-10.6 0-19.1 1.2-19.1 2.6z" opacity=".907" fill="#a7a7a7"/>
    <path d="M61.8 111.5c0 1.4 8.5 2.6 19.1 2.6 10.5 0 19.1-1.2 19.1-2.6 0-1.4-8.5-2.6-19.1-2.6-10.5.1-19.1 1.2-19.1 2.6z" opacity=".906" fill="#a6a6a6"/>
    <path d="M61.9 111.5c0 1.4 8.5 2.6 19 2.6s19-1.2 19-2.6c0-1.4-8.5-2.6-19-2.6-10.5.1-19 1.2-19 2.6z" opacity=".905" fill="#a5a5a5"/>
    <path d="M61.9 111.5c0 1.4 8.5 2.6 18.9 2.6 10.5 0 18.9-1.2 18.9-2.6 0-1.4-8.5-2.6-18.9-2.6-10.4.1-18.9 1.2-18.9 2.6z" opacity=".904" fill="#a4a4a4"/>
    <path d="M62 111.5c0 1.4 8.5 2.6 18.9 2.6 10.4 0 18.9-1.1 18.9-2.6 0-1.4-8.5-2.6-18.9-2.6-10.4.1-18.9 1.2-18.9 2.6z" opacity=".903" fill="#a3a3a3"/>
    <path d="M62 111.5c0 1.4 8.4 2.6 18.8 2.6s18.8-1.1 18.8-2.6c0-1.4-8.4-2.6-18.8-2.6-10.3.1-18.8 1.2-18.8 2.6z" opacity=".902" fill="#a2a2a2"/>
    <path d="M62.1 111.5c0 1.4 8.4 2.6 18.8 2.6s18.8-1.1 18.8-2.6c0-1.4-8.4-2.6-18.8-2.6-10.4.1-18.8 1.2-18.8 2.6z" opacity=".9" fill="#a1a1a1"/>
    <path d="M62.2 111.5c0 1.4 8.4 2.5 18.7 2.5 10.3 0 18.7-1.1 18.7-2.5s-8.4-2.5-18.7-2.5c-10.4 0-18.7 1.1-18.7 2.5z" opacity=".899" fill="#a0a0a0"/>
    <path d="M62.2 111.5c0 1.4 8.4 2.5 18.7 2.5 10.3 0 18.7-1.1 18.7-2.5s-8.4-2.5-18.7-2.5c-10.3 0-18.7 1.1-18.7 2.5z" opacity=".898" fill="#9f9f9f"/>
    <path d="M62.3 111.5c0 1.4 8.3 2.5 18.6 2.5s18.6-1.1 18.6-2.5-8.3-2.5-18.6-2.5-18.6 1.1-18.6 2.5z" opacity=".897" fill="#9e9e9e"/>
    <path d="M62.3 111.5c0 1.4 8.3 2.5 18.6 2.5s18.6-1.1 18.6-2.5-8.3-2.5-18.6-2.5-18.6 1.2-18.6 2.5z" opacity=".896" fill="#9d9d9d"/>
    <path d="M62.4 111.5c0 1.4 8.3 2.5 18.5 2.5s18.5-1.1 18.5-2.5-8.3-2.5-18.5-2.5-18.5 1.2-18.5 2.5z" opacity=".895" fill="#9c9c9c"/>
    <path d="M62.4 111.5c0 1.4 8.3 2.5 18.5 2.5s18.5-1.1 18.5-2.5-8.3-2.5-18.5-2.5-18.5 1.2-18.5 2.5z" opacity=".894" fill="#9b9b9b"/>
    <path d="M62.5 111.5c0 1.4 8.2 2.5 18.4 2.5s18.4-1.1 18.4-2.5-8.2-2.5-18.4-2.5-18.4 1.2-18.4 2.5z" opacity=".893" fill="#9a9a9a"/>
    <path d="M62.5 111.5c0 1.4 8.2 2.5 18.3 2.5 10.1 0 18.3-1.1 18.3-2.5s-8.2-2.5-18.3-2.5c-10 .1-18.3 1.2-18.3 2.5z" opacity=".892" fill="#999"/>
    <path d="M62.6 111.5c0 1.4 8.2 2.5 18.3 2.5 10.1 0 18.3-1.1 18.3-2.5S91 109 80.9 109c-10.1.1-18.3 1.2-18.3 2.5z" opacity=".891" fill="#989898"/>
    <path d="M62.6 111.5c0 1.4 8.2 2.5 18.2 2.5 10.1 0 18.2-1.1 18.2-2.5s-8.2-2.5-18.2-2.5c-10 .1-18.2 1.2-18.2 2.5z" opacity=".89" fill="#979797"/>
    <path d="M62.7 111.5c0 1.4 8.1 2.5 18.2 2.5 10 0 18.2-1.1 18.2-2.5S91 109 80.9 109c-10.1.1-18.2 1.2-18.2 2.5z" opacity=".889" fill="#969696"/>
    <path d="M62.8 111.5c0 1.4 8.1 2.5 18.1 2.5 10 0 18.1-1.1 18.1-2.5s-8.1-2.5-18.1-2.5c-10 .1-18.1 1.2-18.1 2.5z" opacity=".888" fill="#959595"/>
    <path d="M62.8 111.5c0 1.4 8.1 2.5 18.1 2.5 10 0 18.1-1.1 18.1-2.5s-8.1-2.5-18.1-2.5c-10 .1-18.1 1.2-18.1 2.5z" opacity=".887" fill="#949494"/>
    <path d="M62.9 111.5c0 1.4 8.1 2.4 18 2.4 10 0 18-1.1 18-2.4 0-1.4-8.1-2.5-18-2.5-10 .1-18 1.2-18 2.5z" opacity=".886" fill="#939393"/>
    <path d="M62.9 111.5c0 1.3 8 2.4 18 2.4 9.9 0 18-1.1 18-2.4 0-1.4-8-2.4-18-2.4-9.9 0-18 1.1-18 2.4z" opacity=".885" fill="#929292"/>
    <path d="M63 111.5c0 1.3 8 2.4 17.9 2.4 9.9 0 17.9-1.1 17.9-2.4 0-1.3-8-2.4-17.9-2.4-9.9 0-17.9 1.1-17.9 2.4z" opacity=".884" fill="#919191"/>
    <path d="M63 111.5c0 1.3 8 2.4 17.9 2.4 9.9 0 17.9-1.1 17.9-2.4 0-1.3-8-2.4-17.9-2.4-9.9 0-17.9 1.1-17.9 2.4z" opacity=".882" fill="#909090"/>
    <path d="M63.1 111.5c0 1.3 8 2.4 17.8 2.4s17.8-1.1 17.8-2.4c0-1.3-8-2.4-17.8-2.4s-17.8 1.1-17.8 2.4z" opacity=".881" fill="#8f8f8f"/>
    <path d="M63.1 111.5c0 1.3 7.9 2.4 17.7 2.4 9.8 0 17.8-1.1 17.8-2.4 0-1.3-7.9-2.4-17.8-2.4-9.7 0-17.7 1.1-17.7 2.4z" opacity=".88" fill="#8e8e8e"/>
    <path d="M63.2 111.5c0 1.3 7.9 2.4 17.7 2.4 9.8 0 17.7-1.1 17.7-2.4 0-1.3-7.9-2.4-17.7-2.4-9.8 0-17.7 1.1-17.7 2.4z" opacity=".879" fill="#8d8d8d"/>
    <path d="M63.2 111.5c0 1.3 7.9 2.4 17.6 2.4 9.7 0 17.6-1.1 17.6-2.4 0-1.3-7.9-2.4-17.6-2.4-9.7 0-17.6 1.1-17.6 2.4z" opacity=".878" fill="#8c8c8c"/>
    <path d="M63.3 111.5c0 1.3 7.9 2.4 17.6 2.4 9.7 0 17.6-1.1 17.6-2.4 0-1.3-7.9-2.4-17.6-2.4-9.7.1-17.6 1.1-17.6 2.4z" opacity=".877" fill="#8b8b8b"/>
    <path d="M63.4 111.5c0 1.3 7.9 2.4 17.5 2.4 9.7 0 17.5-1.1 17.5-2.4 0-1.3-7.8-2.4-17.5-2.4-9.7.1-17.5 1.1-17.5 2.4z" opacity=".876" fill="#8a8a8a"/>
    <path d="M63.4 111.5c0 1.3 7.8 2.4 17.5 2.4s17.5-1.1 17.5-2.4c0-1.3-7.8-2.4-17.5-2.4-9.7.1-17.5 1.1-17.5 2.4z" opacity=".875" fill="#898989"/>
    <path d="M63.5 111.5c0 1.3 7.8 2.4 17.4 2.4 9.6 0 17.4-1.1 17.4-2.4 0-1.3-7.8-2.4-17.4-2.4-9.6.1-17.4 1.1-17.4 2.4z" opacity=".874" fill="#888"/>
    <path d="M63.5 111.5c0 1.3 7.8 2.4 17.4 2.4 9.6 0 17.4-1.1 17.4-2.4 0-1.3-7.8-2.4-17.4-2.4-9.6.1-17.4 1.1-17.4 2.4z" opacity=".873" fill="#878787"/>
    <path d="M63.6 111.5c0 1.3 7.8 2.4 17.3 2.4 9.6 0 17.3-1.1 17.3-2.4 0-1.3-7.8-2.4-17.3-2.4-9.6.1-17.3 1.1-17.3 2.4z" opacity=".872" fill="#868686"/>
    <path d="M63.6 111.5c0 1.3 7.7 2.3 17.3 2.3 9.5 0 17.3-1 17.3-2.3 0-1.3-7.7-2.3-17.3-2.3-9.5 0-17.3 1-17.3 2.3z" opacity=".871" fill="#858585"/>
    <path d="M63.7 111.5c0 1.3 7.7 2.3 17.2 2.3s17.2-1 17.2-2.3c0-1.3-7.7-2.3-17.2-2.3s-17.2 1.1-17.2 2.3z" opacity=".87" fill="#848484"/>
    <path d="M63.7 111.5c0 1.3 7.7 2.3 17.2 2.3s17.2-1 17.2-2.3c0-1.3-7.7-2.3-17.2-2.3s-17.2 1.1-17.2 2.3z" opacity=".869" fill="#838383"/>
    <path d="M63.8 111.5c0 1.3 7.7 2.3 17.1 2.3 9.4 0 17.1-1 17.1-2.3 0-1.3-7.7-2.3-17.1-2.3-9.5 0-17.1 1.1-17.1 2.3z" opacity=".868" fill="#828282"/>
    <path d="M63.8 111.5c0 1.3 7.6 2.3 17 2.3s17-1 17-2.3c0-1.3-7.6-2.3-17-2.3-9.3 0-17 1.1-17 2.3z" opacity=".867" fill="#818181"/>
    <path d="M63.9 111.5c0 1.3 7.6 2.3 17 2.3s17-1 17-2.3c0-1.3-7.6-2.3-17-2.3s-17 1.1-17 2.3z" opacity=".866" fill="gray"/>
    <path d="M63.9 111.5c0 1.3 7.6 2.3 16.9 2.3 9.4 0 16.9-1 16.9-2.3 0-1.3-7.6-2.3-16.9-2.3-9.3 0-16.9 1.1-16.9 2.3z" opacity=".865" fill="#7f7f7f"/>
    <path d="M64 111.5c0 1.3 7.6 2.3 16.9 2.3 9.3 0 16.9-1 16.9-2.3 0-1.3-7.6-2.3-16.9-2.3-9.3.1-16.9 1.1-16.9 2.3z" opacity=".864" fill="#7e7e7e"/>
    <path d="M64.1 111.5c0 1.3 7.5 2.3 16.8 2.3s16.8-1 16.8-2.3c0-1.3-7.5-2.3-16.8-2.3-9.3.1-16.8 1.1-16.8 2.3z" opacity=".862" fill="#7d7d7d"/>
    <path d="M64.1 111.5c0 1.3 7.5 2.3 16.8 2.3s16.8-1 16.8-2.3c0-1.3-7.5-2.3-16.8-2.3-9.3.1-16.8 1.1-16.8 2.3z" opacity=".861" fill="#7c7c7c"/>
    <path d="M64.2 111.5c0 1.3 7.5 2.3 16.7 2.3s16.7-1 16.7-2.3c0-1.3-7.5-2.3-16.7-2.3-9.2.1-16.7 1.1-16.7 2.3z" opacity=".86" fill="#7b7b7b"/>
    <path d="M64.2 111.5c0 1.3 7.5 2.3 16.7 2.3s16.7-1 16.7-2.3c0-1.3-7.5-2.3-16.7-2.3-9.2.1-16.7 1.1-16.7 2.3z" opacity=".859" fill="#7a7a7a"/>
    <path d="M64.3 111.5c0 1.2 7.4 2.3 16.6 2.3 9.2 0 16.6-1 16.6-2.3 0-1.2-7.4-2.3-16.6-2.3-9.2.1-16.6 1.1-16.6 2.3z" opacity=".858" fill="#797979"/>
    <path d="M64.3 111.5c0 1.2 7.4 2.2 16.6 2.2 9.1 0 16.6-1 16.6-2.2 0-1.2-7.4-2.3-16.6-2.3-9.2.1-16.6 1.1-16.6 2.3z" opacity=".857" fill="#787878"/>
    <path d="M64.4 111.5c0 1.2 7.4 2.2 16.5 2.2s16.5-1 16.5-2.2c0-1.2-7.4-2.2-16.5-2.2s-16.5 1-16.5 2.2z" opacity=".856" fill="#777"/>
    <path d="M64.4 111.5c0 1.2 7.4 2.2 16.4 2.2 9.1 0 16.4-1 16.4-2.2 0-1.2-7.4-2.2-16.4-2.2-9 0-16.4 1-16.4 2.2z" opacity=".855" fill="#767676"/>
    <path d="M64.5 111.5c0 1.2 7.3 2.2 16.4 2.2 9.1 0 16.4-1 16.4-2.2 0-1.2-7.3-2.2-16.4-2.2-9.1 0-16.4 1-16.4 2.2z" opacity=".854" fill="#757575"/>
    <path d="M64.5 111.5c0 1.2 7.3 2.2 16.3 2.2s16.3-1 16.3-2.2c0-1.2-7.3-2.2-16.3-2.2-8.9 0-16.3 1-16.3 2.2z" opacity=".853" fill="#747474"/>
    <path d="M64.6 111.5c0 1.2 7.3 2.2 16.3 2.2s16.3-1 16.3-2.2c0-1.2-7.3-2.2-16.3-2.2s-16.3 1-16.3 2.2z" opacity=".852" fill="#737373"/>
    <path d="M64.7 111.5c0 1.2 7.3 2.2 16.2 2.2 9 0 16.2-1 16.2-2.2 0-1.2-7.3-2.2-16.2-2.2-9 0-16.2 1-16.2 2.2z" opacity=".851" fill="#727272"/>
    <path d="M64.7 111.5c0 1.2 7.2 2.2 16.2 2.2 8.9 0 16.2-1 16.2-2.2 0-1.2-7.2-2.2-16.2-2.2-8.9 0-16.2 1-16.2 2.2z" opacity=".85" fill="#717171"/>
    <path d="M64.8 111.5c0 1.2 7.2 2.2 16.1 2.2 8.9 0 16.1-1 16.1-2.2 0-1.2-7.2-2.2-16.1-2.2-8.9.1-16.1 1-16.1 2.2z" opacity=".849" fill="#707070"/>
    <path d="M64.8 111.5c0 1.2 7.2 2.2 16.1 2.2 8.9 0 16.1-1 16.1-2.2 0-1.2-7.2-2.2-16.1-2.2-8.9.1-16.1 1-16.1 2.2z" opacity=".848" fill="#6f6f6f"/>
    <path d="M64.9 111.5c0 1.2 7.2 2.2 16 2.2s16-1 16-2.2c0-1.2-7.2-2.2-16-2.2-8.9.1-16 1-16 2.2z" opacity=".847" fill="#6e6e6e"/>
    <path d="M64.9 111.5c0 1.2 7.1 2.2 16 2.2 8.8 0 16-1 16-2.2 0-1.2-7.1-2.2-16-2.2-8.8.1-16 1-16 2.2z" opacity=".846" fill="#6d6d6d"/>
    <path d="M65 111.5c0 1.2 7.1 2.2 15.9 2.2s15.9-1 15.9-2.2c0-1.2-7.1-2.2-15.9-2.2-8.8.1-15.9 1.1-15.9 2.2z" opacity=".844" fill="#6c6c6c"/>
    <path d="M65 111.5c0 1.2 7.1 2.2 15.8 2.2 8.8 0 15.8-1 15.8-2.2 0-1.2-7.1-2.2-15.8-2.2-8.7.1-15.8 1.1-15.8 2.2z" opacity=".843" fill="#6b6b6b"/>
    <path d="M65.1 111.5c0 1.2 7.1 2.1 15.8 2.1 8.7 0 15.8-1 15.8-2.1 0-1.2-7.1-2.1-15.8-2.1-8.7 0-15.8 1-15.8 2.1z" opacity=".842" fill="#6a6a6a"/>
    <path d="M65.1 111.5c0 1.2 7 2.1 15.7 2.1s15.7-1 15.7-2.1c0-1.2-7-2.1-15.7-2.1-8.6 0-15.7 1-15.7 2.1z" opacity=".841" fill="#696969"/>
    <path d="M65.2 111.5c0 1.2 7 2.1 15.7 2.1s15.7-1 15.7-2.1c0-1.2-7-2.1-15.7-2.1s-15.7 1-15.7 2.1z" opacity=".84" fill="#686868"/>
    <path d="M65.3 111.5c0 1.2 7 2.1 15.6 2.1s15.6-.9 15.6-2.1c0-1.2-7-2.1-15.6-2.1s-15.6 1-15.6 2.1z" opacity=".839" fill="#676767"/>
    <path d="M65.3 111.5c0 1.2 7 2.1 15.6 2.1s15.6-.9 15.6-2.1c0-1.2-7-2.1-15.6-2.1s-15.6 1-15.6 2.1z" opacity=".838" fill="#666"/>
    <path d="M65.4 111.5c0 1.2 7 2.1 15.5 2.1 8.6 0 15.5-.9 15.5-2.1 0-1.2-6.9-2.1-15.5-2.1s-15.5 1-15.5 2.1z" opacity=".837" fill="#656565"/>
    <path d="M65.4 111.5c0 1.2 6.9 2.1 15.5 2.1 8.5 0 15.5-.9 15.5-2.1 0-1.2-6.9-2.1-15.5-2.1s-15.5 1-15.5 2.1z" opacity=".836" fill="#646464"/>
    <path d="M65.5 111.5c0 1.2 6.9 2.1 15.4 2.1s15.4-.9 15.4-2.1c0-1.2-6.9-2.1-15.4-2.1-8.5.1-15.4 1-15.4 2.1z" opacity=".835" fill="#636363"/>
    <path d="M65.5 111.5c0 1.2 6.9 2.1 15.4 2.1s15.4-.9 15.4-2.1c0-1.2-6.9-2.1-15.4-2.1-8.5.1-15.4 1-15.4 2.1z" opacity=".834" fill="#626262"/>
    <path d="M65.6 111.5c0 1.1 6.9 2.1 15.3 2.1 8.5 0 15.3-.9 15.3-2.1 0-1.2-6.9-2.1-15.3-2.1-8.5.1-15.3 1-15.3 2.1z" opacity=".833" fill="#616161"/>
    <path d="M65.6 111.5c0 1.1 6.8 2.1 15.2 2.1 8.4 0 15.3-.9 15.3-2.1 0-1.1-6.8-2.1-15.3-2.1-8.3.1-15.2 1-15.2 2.1z" opacity=".832" fill="#606060"/>
    <path d="M65.7 111.5c0 1.1 6.8 2.1 15.2 2.1 8.4 0 15.2-.9 15.2-2.1 0-1.1-6.8-2.1-15.2-2.1-8.4.1-15.2 1-15.2 2.1z" opacity=".831" fill="#5f5f5f"/>
    <path d="M65.7 111.5c0 1.1 6.8 2.1 15.1 2.1 8.4 0 15.1-.9 15.1-2.1 0-1.1-6.8-2.1-15.1-2.1-8.3.1-15.1 1-15.1 2.1z" opacity=".83" fill="#5e5e5e"/>
    <path d="M65.8 111.5c0 1.1 6.8 2 15.1 2s15.1-.9 15.1-2-6.8-2.1-15.1-2.1c-8.3.1-15.1 1-15.1 2.1z" opacity=".829" fill="#5d5d5d"/>
    <path d="M65.9 111.5c0 1.1 6.7 2 15 2s15-.9 15-2-6.7-2-15-2-15 .9-15 2z" opacity=".828" fill="#5c5c5c"/>
    <path d="M65.9 111.5c0 1.1 6.7 2 15 2s15-.9 15-2-6.7-2-15-2-15 .9-15 2z" opacity=".827" fill="#5b5b5b"/>
    <path d="M66 111.5c0 1.1 6.7 2 14.9 2s14.9-.9 14.9-2-6.7-2-14.9-2c-8.3 0-14.9.9-14.9 2z" opacity=".825" fill="#5a5a5a"/>
    <path d="M66 111.5c0 1.1 6.7 2 14.9 2s14.9-.9 14.9-2-6.7-2-14.9-2-14.9.9-14.9 2z" opacity=".824" fill="#595959"/>
    <path d="M66.1 111.5c0 1.1 6.6 2 14.8 2 8.2 0 14.8-.9 14.8-2s-6.6-2-14.8-2c-8.2 0-14.8.9-14.8 2z" opacity=".823" fill="#585858"/>
    <path d="M66.1 111.5c0 1.1 6.6 2 14.8 2 8.2 0 14.8-.9 14.8-2s-6.6-2-14.8-2c-8.2 0-14.8.9-14.8 2z" opacity=".822" fill="#575757"/>
    <path d="M66.2 111.5c0 1.1 6.6 2 14.7 2s14.7-.9 14.7-2-6.6-2-14.7-2-14.7.9-14.7 2z" opacity=".821" fill="#565656"/>
    <path d="M66.2 111.5c0 1.1 6.6 2 14.7 2s14.7-.9 14.7-2-6.6-2-14.7-2c-8.1.1-14.7.9-14.7 2z" opacity=".82" fill="#555"/>
    <path d="M66.3 111.5c0 1.1 6.5 2 14.6 2s14.6-.9 14.6-2-6.5-2-14.6-2c-8.1.1-14.6.9-14.6 2z" opacity=".819" fill="#545454"/>
    <path d="M66.3 111.5c0 1.1 6.5 2 14.5 2s14.5-.9 14.5-2-6.5-2-14.5-2c-7.9.1-14.5 1-14.5 2z" opacity=".818" fill="#535353"/>
    <path d="M66.4 111.5c0 1.1 6.5 2 14.5 2s14.5-.9 14.5-2-6.5-2-14.5-2c-8 .1-14.5 1-14.5 2z" opacity=".817" fill="#525252"/>
    <path d="M66.5 111.5c0 1.1 6.5 2 14.4 2 8 0 14.4-.9 14.4-2s-6.5-2-14.4-2c-8 .1-14.4 1-14.4 2z" opacity=".816" fill="#515151"/>
    <path d="M66.5 111.5c0 1.1 6.4 2 14.4 2 7.9 0 14.4-.9 14.4-2s-6.4-2-14.4-2c-8 .1-14.4 1-14.4 2z" opacity=".815" fill="#505050"/>
    <path d="M66.6 111.5c0 1.1 6.4 1.9 14.3 1.9s14.3-.9 14.3-1.9c0-1.1-6.4-1.9-14.3-1.9s-14.3.9-14.3 1.9z" opacity=".814" fill="#4f4f4f"/>
    <path d="M66.6 111.5c0 1.1 6.4 1.9 14.3 1.9s14.3-.9 14.3-1.9c0-1.1-6.4-1.9-14.3-1.9s-14.3.9-14.3 1.9z" opacity=".813" fill="#4e4e4e"/>
    <path d="M66.7 111.5c0 1.1 6.4 1.9 14.2 1.9 7.9 0 14.2-.9 14.2-1.9 0-1.1-6.4-1.9-14.2-1.9-7.9 0-14.2.9-14.2 1.9z" opacity=".812" fill="#4d4d4d"/>
    <path d="M66.7 111.5c0 1.1 6.3 1.9 14.2 1.9 7.8 0 14.2-.9 14.2-1.9 0-1.1-6.3-1.9-14.2-1.9-7.8 0-14.2.9-14.2 1.9z" opacity=".811" fill="#4c4c4c"/>
    <path d="M66.8 111.5c0 1.1 6.3 1.9 14.1 1.9s14.1-.9 14.1-1.9c0-1.1-6.3-1.9-14.1-1.9s-14.1.9-14.1 1.9z" opacity=".809" fill="#4b4b4b"/>
    <path d="M66.8 111.5c0 1.1 6.3 1.9 14.1 1.9s14.1-.9 14.1-1.9c0-1.1-6.3-1.9-14.1-1.9s-14.1.9-14.1 1.9z" opacity=".808" fill="#4a4a4a"/>
    <path d="M66.9 111.5c0 1.1 6.3 1.9 14 1.9s14-.9 14-1.9c0-1.1-6.3-1.9-14-1.9s-14 .9-14 1.9z" opacity=".807" fill="#494949"/>
    <path d="M66.9 111.5c0 1 6.2 1.9 13.9 1.9s13.9-.8 13.9-1.9c0-1-6.2-1.9-13.9-1.9-7.6.1-13.9.9-13.9 1.9z" opacity=".806" fill="#484848"/>
    <path d="M67 111.5c0 1 6.2 1.9 13.9 1.9s13.9-.8 13.9-1.9c0-1-6.2-1.9-13.9-1.9-7.7.1-13.9.9-13.9 1.9z" opacity=".805" fill="#474747"/>
    <path d="M67 111.5c0 1 6.2 1.9 13.8 1.9 7.6 0 13.8-.8 13.8-1.9 0-1-6.2-1.9-13.8-1.9-7.6.1-13.8.9-13.8 1.9z" opacity=".804" fill="#464646"/>
    <path d="M67.1 111.5c0 1 6.2 1.9 13.8 1.9 7.6 0 13.8-.8 13.8-1.9 0-1-6.2-1.9-13.8-1.9-7.6.1-13.8.9-13.8 1.9z" opacity=".803" fill="#454545"/>
    <path d="M67.2 111.5c0 1 6.1 1.9 13.7 1.9s13.7-.8 13.7-1.9c0-1-6.1-1.9-13.7-1.9-7.6.1-13.7.9-13.7 1.9z" opacity=".802" fill="#444"/>
    <path d="M67.2 111.5c0 1 6.1 1.9 13.7 1.9s13.7-.8 13.7-1.9c0-1-6.1-1.9-13.7-1.9-7.6.1-13.7.9-13.7 1.9z" opacity=".801" fill="#434343"/>
    <path d="M67.3 111.5c0 1 6.1 1.8 13.6 1.8s13.6-.8 13.6-1.8-6.1-1.9-13.6-1.9c-7.5.1-13.6.9-13.6 1.9z" opacity=".8" fill="#424242"/>
  </g>
  <linearGradient id="vVw_Riwc2Ojla" gradientUnits="userSpaceOnUse" x1="8728.522" y1="-26.412" x2="8755.661" y2="-26.412" gradientTransform="scale(-1 1) rotate(1.329 776.937 -380085.247)">
    <stop offset=".077" stop-color="#bdbdbd"/>
    <stop offset=".13" stop-color="#c2c2c2"/>
    <stop offset=".37" stop-color="#d7d7d7"/>
    <stop offset=".527" stop-color="#dfdfdf"/>
    <stop offset="1" stop-color="#cdcdcd"/>
  </linearGradient>
  <path d="M90.1 38.6c.5 5.2 1.5 30.2 1.4 30.4l-23.9 4.5c0-1-4.2-30.6-3.9-32.3l19.8 4.1 6.6-6.7z" fill="url(#vVw_Riwc2Ojla)"/>
  <path d="M91.5 69s.2 6.7-1.8 8.6c-2 1.9-13.4 7.2-20.2 2.1-1.4-1.3-2.1-4.7-2-6.8l24-3.9z" fill="#424242"/>
  <path opacity=".35" d="M84.2 64.4l-1.6 3.1-4.6-5.4 2-13.4.2-3.6z"/>
  <path fill="#5f2900" d="M85 46.6l3.1 13.8-4.4 6.2-4.9-5.3 1.9-14.5z"/>
  <path fill="#5f2900" d="M85.2 43.5l.3 3.1-5.2.9-.3-3.7z"/>
  <path opacity=".36" d="M80.5 48.1l.2-1.3 4.3-.2.2.8z"/>
  <path fill="#5f2900" d="M85.7 44l.2 2.9-6.2.9-.2-3.4z"/>
  <path d="M79.2 58.3l7-6.1-.8-3.5-5.7 5.7-.5 3.9zm.2 3.6l1.7 1.8 6.3-6.7-.4-2-7.6 6.9z" fill="#873a00"/>
  <path d="M80.7 52.6c0 .5.4.8.7.8l5.1-.4c.4 0 .6-.4.6-.9s-.4-.8-.7-.8l-5.1.4c-.3 0-.6.4-.6.9z" fill="#ffa81f"/>
  <path d="M84.3 52.3c0 .3.1.5.2.5l1.6-.1c.1 0 .2-.3.2-.5 0-.3-.1-.5-.2-.5l-1.6.1c-.1 0-.2.2-.2.5z" fill="#fff"/>
  <path d="M68.2 45.9s-4.3 21 23.2 24.9c.1-1.4-.3-3.4-.3-3.4l1.2-5.6-1-2.4S78.5 63 70.7 46.7l-2.5-.8z" opacity=".2"/>
  <path fill="#4d3d2d" d="M90.1 53.3l4.7-2.8 20.4 1.1 4.8 1.5-9.2 4.8z"/>
  <path fill="#f7e6d3" d="M105.9 46.3l11.5-2.3-.6.6.7.4v1l-.4.6.5.3v1.5l.9.5-.9.8v1.8l.8.6-.8.4V54l-.5.7.8.3.4 1.4-13.2 2.5z"/>
  <path d="M105.4 54.2l-.1 1.1.3.5.1-1.7-.3.1zm12.5.9l-.8-.3-11.1 1.3-.3-.2v.6l12.2-1.4zm-12.2-5v.8l.1.3.2-.2v-1l-.3.1zm-.1 1.4v.9l.2.2h.1v-1.1h-.3zm12.8.6l-.8-.7-11.8 1.1-.1 1.6 11.9-1.6.8-.4zm-.9-6.1l-.1-1h-.1c-2.1.7-11.4 3.9-11.5 3.9v1.2l11.5-3.9.2-.2zm1 2.9l-.9-.5-10.6 2.7-.9-.4-.3.3v.4c3-.5 11.8-1.8 11.8-1.8l.9-.7z" opacity=".1"/>
  <path fill="#dbccbb" d="M92.1 58.1l.3-1.6-.4-.8 1-.8-.5-.6-.6-.8.6-.8.4-1-.2-1-.7-.7 1-1.5-.6-1 .7-.4-.1-1.8-1-.6 1.2-.4 12.7 2 .7.7-.7.7.4.5-.4.7.3 1.3.8.9h-.8l.1 1.3.9.1-1 1.1-.3.7.2.6.2 1.2.5.8-.4 1.1"/>
  <path d="M106.3 56L93 54.9l.1.1-1 .8 14.4 2.1.4-1-.6-.9zm.7-4.9l-.8-.9v-.1L93 48.5l-.9 1.4 14.8 1.2h.1zm-1.1-2.2l.4-.6-.5-.6L93 45.3l.1 1.8 12.8 1.8zm.1 5.2l.3-.5 1-1.1h-1l-13.4-.8v.1l-.3.9 13.4 1.4z" opacity=".1"/>
  <path fill="#b08c69" d="M90.1 53.3l22.2 2.4 6.5-1.2-.4 15.2-5.6 2.6-21.5-1.8z"/>
  <path fill="#bd9671" d="M113 72.2l6.4-2.5.6-16.6-7.6 2.6z"/>
  <path fill="#f7e6d3" d="M106.3 33.6l11.6-1.7-.6.6.6.5v.9l-.4.6.4.4v1.4l.8.6-.8.7-.1 1.8.8.7-.9.4-.1 1.4-.5.7.8.4.3 1.4-13 2.2z"/>
  <path d="M105.5 41.5l-.1 1.1.3.5.1-1.7-.3.1zm12.4 1.5l-.8-.4-11.2.8-.3-.2v.6l12.3-.8zm-12-5.6l-.1.8.1.3.2-.2.1-1-.3.1zm-.2 1.4l-.1.8.2.2h.1l.1-1.1c-.1.1-.2.1-.3.1zm12.9 1.3l-.8-.7-11.9.5-.1 1.6 11.9-1 .9-.4zm-.7-6.2v-1h-.1c-2.2.6-11.5 3.2-11.6 3.3l-.1 1.2 11.7-3.3.1-.2zm.8 3l-.9-.6-10.6 2.1-.9-.4-.3.3v.4c3-.4 11.9-1.2 11.9-1.2l.8-.6z" opacity=".1"/>
  <path fill="#dbccbb" d="M91.9 44.7l.4-1.6-.3-.8 1.1-.7-.6-.7-.5-.8.6-.8.4-.9-.1-1.1-.7-.7 1.1-1.5-.6-1 .8-.4-.1-1.8-1.5-.7 1.7-.2 12.7 2.6.6.8-.7.6.4.6-.4.6.3 1.3.7.9h-.8v1.4l.9.1-1 1-.4.7.2.7.1 1.1.6.9-.8 2.6"/>
  <path fill="#fff5eb" d="M93.6 31l11.4-2.1 12.9 3-11.5 2.4z"/>
  <path d="M106.2 43.3L93 41.5l.1.1-1.1.7 14.3 2.9.4-.9-.5-1zm1-4.9l-.8-.9v-.1l-13.2-2.3-1 1.3 14.7 2h.3zm-1-2.2l.4-.6-.4-.6-12.8-3.1v1.8l12.8 2.5zm-.2 5.2l.3-.5 1-1.1-1-.1L93 38.3v.1l-.4.9 13.4 2.1z" opacity=".1"/>
  <path fill="#4d3d2d" d="M104.4 68.1l-8.4-.8.1-2.1 8.5.8z"/>
  <path opacity=".2" d="M91.2 69.7h7.5l2.7-.4.1-1.8-.8-.9 2.4-.4V63l-1.7-.4 1.2-.9-.7-2.9-4.4.8-.2-1.8h-5.1l-1.7 1z"/>
  <g fill="#e88e47">
    <path d="M88.5 68.3l2.5.5 4.8.4 4.9-.4-.1-1.8-4 .3-.1-1 5.7-.9-.2-2.2-5.4 1.2-.2-1 5.5-1.9-.5-2-5.5 1.6-4.3-.2-3.3 1.6z"/>
    <path d="M91.6 60.9l2.3.1-.3.3-.3 4-2.3.6-2.7-3.2.5-.5z"/>
    <path d="M87.9 62.8l3.8-3.9 3.2-.7 1.7-.1.1 1.4-2.1.4-1.4 1.5-.4 3.4-2.2 1.2z"/>
  </g>
  <linearGradient id="vVw_Riwc2Ojlb" gradientUnits="userSpaceOnUse" x1="68.192" y1="57.822" x2="89.441" y2="57.822">
    <stop offset=".077" stop-color="#bdbdbd"/>
    <stop offset=".13" stop-color="#c2c2c2"/>
    <stop offset=".37" stop-color="#d7d7d7"/>
    <stop offset=".527" stop-color="#dfdfdf"/>
    <stop offset="1" stop-color="#cdcdcd"/>
  </linearGradient>
  <path d="M68.2 45.9s-1.4 19.3 21.2 23.8c.1-2-.6-8.7-.6-8.7-7.5-.6-18.6-3.8-17.6-14.6l-3-.5z" fill="url(#vVw_Riwc2Ojlb)"/>
  <path d="M107.7 91.6l4.5-3.1s2.2-3.8 4.4-2.8c1.5.6 2 .9 2 .9-2.6 3.3-9.4 11.8-9.4 11.8-1-.9-3.3-3.8-3.3-3.8l1.8-3z" fill="#5f2900"/>
  <path d="M87.9 74.1s13.6-2.4 20.3 17.3c.1.9-2.3 3.1-2.3 3.1-2.8-5.4-5-19.4-20.8-14.8l2.8-5.6zm-12.6 6S75 100.1 51 89c-.7-.5-1-3.9-1-3.9 5.6.4 21.4 9.4 20.6-7.5l4.7 2.5z" fill="#424242"/>
  <path d="M51.7 89l-3.6 4.3s-1.2 4.3-3.5 4c-1.5-.2-2.1-.3-2.1-.3 1.7-3.9 6.2-14.1 6.2-14.1 1.2.6 4.1 2.7 4.1 2.7L51.7 89z" fill="#5f2900"/>
</svg>
