<svg version="1.1" xmlns="http://www.w3.org/2000/svg" x="0" y="0" viewBox="0 0 154.9 119" xml:space="preserve">
  <path d="M-38.1-253.4c-1.2 0-2.2-1-2.2-2.2v-4.1h-22.3v4.1c0 1.2-1 2.2-2.2 2.2-2.3 0-4.2 1.9-4.2 4.2v25.3c0 2.3 1.9 4.2 4.2 4.2h26.6c2.3 0 4.2-1.9 4.2-4.2v-25.3c.1-2.4-1.8-4.2-4.1-4.2z" fill="#d3d4e7"/>
  <path d="M-51.4-225.6c-6.3 0-12.1 1.3-17 3.5.7 1.3 2.1 2.2 3.7 2.2h26.6c1.6 0 3-.9 3.7-2.2-4.9-2.2-10.7-3.5-17-3.5z" fill="#8d6600"/>
  <path d="M-62.4-223.6c-1.8 0-3.3-1.5-3.3-3.3v-19.2c0-1.8 1.5-3.3 3.3-3.3 1.8 0 3.3 1.5 3.3 3.3v19.2c0 1.8-1.5 3.3-3.3 3.3zm22.8 0h-6.2c-1.4 0-2.5-1.1-2.5-2.5v-20.7c0-1.4 1.1-2.5 2.5-2.5h6.2c1.4 0 2.5 1.1 2.5 2.5v20.7c0 1.4-1.1 2.5-2.5 2.5z" fill="#fff"/>
  <path d="M-51.9-237.4s-1.4.4-2.5-.2c-1.1-.6-1.5-2-1.5-2s1.4-.4 2.5.2c1.2.6 1.5 2 1.5 2z" fill="#766600"/>
  <path d="M-55.8-239.6s.4 1.4 1.5 2c1.1.6 2.5.2 2.5.2l-4-2.2z" fill="#6c4a00"/>
  <path d="M-52.9-246.5s-.1-1.4.8-2.3c.8-.9 2.3-1 2.3-1s.1 1.4-.8 2.3c-.9 1-2.3 1-2.3 1z" fill="#766600"/>
  <path d="M-49.9-249.8s-1.4.1-2.3 1c-.8.9-.8 2.3-.8 2.3l3.1-3.3z" fill="#6c4a00"/>
  <path d="M-50.3-269.6s-1.4 0-2.3-.9c-.9-.9-.8-2.3-.8-2.3s1.4 0 2.3.9c.8.9.8 2.3.8 2.3z" fill="#766600"/>
  <path d="M-53.4-272.8s0 1.4.8 2.3 2.3.9 2.3.9l-3.1-3.2z" fill="#6c4a00"/>
  <path d="M-52.8-262.4s-1-1-1-2.3c0-1.2 1-2.3 1-2.3s1 1 1 2.3c0 1.3-1 2.3-1 2.3z" fill="#766600"/>
  <path d="M-52.8-266.9s-1 1-1 2.3c0 1.2 1 2.3 1 2.3v-4.6z" fill="#6c4a00"/>
  <path d="M-47.7-226.2s-.7 1.2-1.9 1.6c-1.2.3-2.4-.4-2.4-.4s.7-1.2 1.9-1.6 2.4.4 2.4.4z" fill="#766600"/>
  <path d="M-52-225s1.2.7 2.4.4c1.2-.3 1.9-1.6 1.9-1.6L-52-225z" fill="#6c4a00"/>
  <path d="M-55.6-226.7s1.2-.8 2.4-.6c1.2.2 2.1 1.4 2.1 1.4s-1.2.8-2.4.6c-1.3-.2-2.1-1.4-2.1-1.4z" fill="#766600"/>
  <path d="M-51.1-226s-.8-1.2-2.1-1.4c-1.2-.2-2.4.6-2.4.6l4.5.8z" fill="#6c4a00"/>
  <path fill="#dfe0ed" d="M-64.1-257.1h25.4v1.5h-25.4z"/>
  <path fill="#fff" d="M-59.9-257.1h3v1.5h-3zm4.1 0h5.9v1.5h-5.9z"/>
  <path fill="#dfe0ed" d="M-64.1-259.7h25.4v.5h-25.4z"/>
  <path fill="#fff" d="M-59.9-259.7h3v.5h-3zm4.1 0h5.9v.5h-5.9z"/>
  <path d="M.5-253.4c-1.2 0-2.2-1-2.2-2.2v-4.1H-24v4.1c0 1.2-1 2.2-2.2 2.2-2.3 0-4.2 1.9-4.2 4.2v25.3c0 2.3 1.9 4.2 4.2 4.2H.5c2.3 0 4.2-1.9 4.2-4.2v-25.3c0-2.4-1.9-4.2-4.2-4.2z" fill="#d3d4e7"/>
  <path d="M-12.8-225.6c-6.3 0-12.1 1.3-17 3.5.7 1.3 2.1 2.2 3.7 2.2H.5c1.6 0 3-.9 3.7-2.2-4.9-2.2-10.7-3.5-17-3.5z" fill="#8d6600"/>
  <path d="M-6.6-232.6c-2.5 2.5-6.9 2.1-6.9 2.1s-.4-4.4 2.1-6.9 6.9-2.1 6.9-2.1.4 4.3-2.1 6.9z" fill="#5bb81f"/>
  <path d="M-13.3-234.2c.8 1.6-.1 3.6-.1 3.6s-2.2-.5-2.9-2.1c-.8-1.6.1-3.6.1-3.6s2.1.5 2.9 2.1z" fill="#5bb81f"/>
  <path fill="#5bb81f" d="M-13.5-231.3h.5v6.3h-.5z"/>
  <path d="M-23.8-223.6c-1.8 0-3.3-1.5-3.3-3.3v-19.2c0-1.8 1.5-3.3 3.3-3.3 1.8 0 3.3 1.5 3.3 3.3v19.2c0 1.8-1.5 3.3-3.3 3.3zm22.8 0h-6.2c-1.4 0-2.5-1.1-2.5-2.5v-20.7c0-1.4 1.1-2.5 2.5-2.5H-1c1.4 0 2.5 1.1 2.5 2.5v20.7c0 1.4-1.1 2.5-2.5 2.5z" fill="#fff"/>
  <path fill="#dfe0ed" d="M-25.5-257.1H-.1v1.5h-25.4z"/>
  <path fill="#fff" d="M-21.4-257.1h3v1.5h-3zm4.2 0h5.9v1.5h-5.9z"/>
  <path fill="#dfe0ed" d="M-25.5-259.7H-.1v.5h-25.4z"/>
  <path fill="#fff" d="M-21.4-259.7h3v.5h-3zm4.2 0h5.9v.5h-5.9z"/>
  <path d="M23.4-284.7c.2 0 .1-.3-.4-.6-.2-.1-.6-.2-.9-.3-.4-.1-.8-.2-1.3-.2-1-.2-2.1-.3-3.3-.7-1.2-.4-2.5-1.3-3.1-2.4-1.4-2.1-1.4-4.1-2-5.7-.3-.8-.7-1.6-1.3-2.1-.6-.6-1.5-1-2.5-.8.8-.5 2-.4 2.9 0 1 .4 1.8 1.2 2.4 2 .6.8 1.1 1.7 1.6 2.5.5.7 1 1.4 1.5 1.8.5.4 1 .4 1.6.5.6 0 1.4-.1 2.3-.2.4-.1 1-.1 1.5-.2h1.8c.7.1 1.4.2 2.2.5.8.3 1.6.8 2.3 1.5 1.2 1.5 1.1 3.6-.4 4.9s-3.7 1-4.9-.5z" fill="#b56600"/>
  <path d="M7.7-291.9c1.3-.5 2.5-1.3 3.4-2.5.7-.9 1.3-1.9 1.6-3 .8-2.9-.1-5.8-2.1-7.8-4.1.5-7.7 3.5-8.8 7.7-.5 1.9-.5 3.7 0 5.5l.9.3c1.8.5 3.5.3 5-.2z" fill="#fd0"/>
  <path d="M10.7-305.2c-1-1-2.2-1.8-3.7-2.1-4.3-1.2-8.8 1.4-9.9 5.7-1.1 4 1 8.1 4.8 9.6-.5-1.7-.5-3.6 0-5.5 1.1-4.2 4.7-7.2 8.8-7.7z" fill="#ffee7a"/>
  <path d="M2.5-305.4c3.2-1.2 6.9.4 8.1 3.6 1.2 3.2-.4 6.9-3.6 8.1-3.2 1.2-6.9-.4-8.1-3.6-1.3-3.3.4-6.9 3.6-8.1z" fill="#e1a32d"/>
  <path d="M2.6-305c3-1.2 6.4.4 7.6 3.4 1.2 3-.4 6.4-3.4 7.6-3 1.2-6.4-.4-7.6-3.4-1.1-3.1.4-6.5 3.4-7.6z" fill="#af7520"/>
  <path d="M1.4-294.9c.6.5 1.3.8 2.1 1 3.1.8 6.2-1 7-4 .7-2.6-.5-5.2-2.7-6.5.1 1 0 2.1-.3 3.2-.8 3.1-3.2 5.4-6.1 6.3z" fill="#fad351"/>
  <path d="M-.6-300.9c-.6 2.3.2 4.6 2 6 2.9-.9 5.2-3.2 6.1-6.3.3-1.1.4-2.2.3-3.2-.4-.2-.8-.4-1.3-.5-3.1-.8-6.3 1-7.1 4z" fill="#fac500"/>
  <path d="M39.1-253.4c-1.2 0-2.2-1-2.2-2.2v-4.1H14.6v4.1c0 1.2-1 2.2-2.2 2.2-2.3 0-4.2 1.9-4.2 4.2v25.3c0 2.3 1.9 4.2 4.2 4.2H39c2.3 0 4.2-1.9 4.2-4.2v-25.3c.1-2.4-1.8-4.2-4.1-4.2z" fill="#d3d4e7"/>
  <path d="M25.8-225.6c-6.3 0-12.1 1.3-17 3.5.7 1.3 2.1 2.2 3.7 2.2h26.6c1.6 0 3-.9 3.7-2.2-4.9-2.2-10.7-3.5-17-3.5z" fill="#8d6600"/>
  <path d="M14.8-223.6c-1.8 0-3.3-1.5-3.3-3.3v-19.2c0-1.8 1.5-3.3 3.3-3.3 1.8 0 3.3 1.5 3.3 3.3v19.2c-.1 1.8-1.5 3.3-3.3 3.3zm22.8 0h-6.2c-1.4 0-2.5-1.1-2.5-2.5v-20.7c0-1.4 1.1-2.5 2.5-2.5h6.2c1.4 0 2.5 1.1 2.5 2.5v20.7c0 1.4-1.1 2.5-2.5 2.5z" fill="#fff"/>
  <path fill="#b56600" d="M27.9-224.7h-3.6l.7-109.5h2.1z"/>
  <path d="M23.4-309.9c.7-1.4 1.8-2.5 2.9-3.2 1.1-.7 2.2-1 3.3-1.2 2.2-.4 4.1-.2 5.8-.2 1.7 0 3.2-.3 4.6-1.3 1.3-1 2.4-2.5 2.8-4.3.1 1.8-.6 3.8-1.8 5.3-.6.8-1.4 1.5-2.3 2-.9.5-1.9.9-2.8 1.2-1.9.6-3.7.9-4.9 1.5-.6.3-1.2.7-1.5 1.1-.4.4-.4.8-.4 1 .1 1.7-1.1 3.3-2.9 3.4-1.7.1-3.3-1.1-3.4-2.9 0-.6.1-1.1.3-1.5l.3-.9zm-.2 30c.6-2.2 2-4 3.5-5.1 1.5-1.2 3.2-1.9 4.8-2.4 3.2-.9 6-1.1 8.4-2.2 1.2-.6 2.3-1.3 3-2.3.8-1 1.1-2.3 1.2-3.7.1-1.4.1-3 .5-4.5.3-1.5 1.1-3 2.4-3.8-1.2 1-1.6 2.5-1.7 3.9-.1 1.4.2 2.9.3 4.4.1 1.5 0 3.3-.8 4.9-.8 1.6-2.1 2.8-3.4 3.7-2.8 1.9-5.9 2.6-8.3 3.8-1.2.6-2.2 1.3-2.9 2.1-.7.8-1.1 1.7-1.1 2.4 0 1.7-1.4 3-3.1 2.9-1.7 0-3-1.4-2.9-3.1 0-.2 0-.5.1-.7v-.3zm1.2-21.4c.9-.8 2-1.3 2.9-1.5 1-.3 1.8-.3 2.6-.3 1.6 0 2.9.1 4.1 0 2.3-.2 4.9-2 5.9-4.7 0 1.4-.5 2.9-1.3 4.3-.8 1.3-2.1 2.5-3.6 3.2-1.5.7-3 1.1-4.3 1.6-.6.2-1.1.5-1.5.8-.4.3-.5.6-.6.8-.5 1.7-2.3 2.6-4 2.1-1.7-.5-2.6-2.3-2.1-4 .2-.6.5-1.1 1-1.5l.9-.8z" fill="#b56600"/>
  <path d="M23.1-299.9c-.8-1.7-2-3.3-3.5-4.6-.8-.7-1.6-1.2-2.5-1.7-.4-.3-.9-.5-1.4-.7-.5-.2-1.1-.4-1.7-.7-.6-.3-1.4-.7-2-1.4-.6-.7-1-1.6-1-2.4 0-1.6.4-2.6.3-3.4-.1-.9-.7-1.8-1.6-2.4-.9-.6-2-1-3.1-1.4 1.2.1 2.3.2 3.5.6 1.1.5 2.3 1.3 2.9 2.7.5 1.4.3 2.7.6 3.5.1.4.3.5.5.6.2.1.6.2 1 .3.5.1 1 .1 1.6.2.6.1 1.3.2 1.9.4 1.3.3 2.5.8 3.7 1.4 2.4 1.2 4.6 2.9 6.4 5.1l.1.1c1.2 1.5 1.1 3.7-.4 4.9-1.5 1.2-3.7 1.1-4.9-.4-.1-.1-.3-.4-.4-.7zm10.5-14.3c1.1-.5 2.1-1.4 2.6-2.6.5-1.2.3-2.7 0-4.2-.2-.8-.3-1.6-.5-2.4-.1-.8-.2-1.6-.2-2.5 0-.8.1-1.7.5-2.5.4-.7 1-1.4 1.8-1.6-.7.3-1.2 1-1.4 1.7-.2.7-.2 1.5-.1 2.3.1.7.3 1.5.6 2.3.2.7.5 1.5.8 2.2.3.8.6 1.6.7 2.4.2.9.2 1.8 0 2.8-.4 1.9-1.6 3.6-3.3 4.6H35c-.7.4-1.6.2-2.1-.5s-.2-1.6.5-2.1c0 .2.1.1.2.1zm3.1 11.4c.7.9 2 1.5 3.3 1.5.7 0 1.3-.2 1.9-.5.6-.3 1-.9 1.5-1.5.8-1.2 1.6-2.7 3-3.6 1.3-.9 2.9-1.4 4.4-1.3-1.5.1-3 .7-4.1 1.7-1.2 1-1.7 2.3-2.4 3.7-.4.7-.9 1.4-1.6 1.9-.7.5-1.5.9-2.4 1-1.7.3-3.7-.3-5-1.7-.4-.4-.3-1 .1-1.4s.9-.3 1.3.2zm4.1 13c2.3.3 4.2 1 6.1.9 1.9-.2 3.9-1.2 5.1-2.9-.8 2-2.6 3.6-4.8 4.4-1.1.4-2.3.5-3.4.5s-2.2 0-3.1.1c-.8.1-1.5-.5-1.6-1.4s.5-1.5 1.4-1.6h.3zm-22.9 2.5c-.8.2-1.6.7-2.6 1.3-1 .5-2.2 1.1-3.4 1.1-2.4.2-4.7-.9-5.9-2.7 1.7 1.3 3.9 1.4 5.5.8.8-.3 1.4-.9 2.1-1.6.7-.7 1.4-1.5 2.4-2.3l.1-.1c.9-.7 2.2-.5 2.8.4.7.9.5 2.2-.4 2.8-.1.2-.3.3-.6.3z" fill="#b56600"/>
  <path d="M17.8-307.2c-.8-.4-1.3-1.1-1.5-1.7-.2-.6-.3-1.3-.2-1.9.2-1.2.7-2.1.8-3.1.3-1.9-.4-4.1-1.9-5.6 1.7 1.3 2.8 3.4 2.9 5.7 0 1.2-.3 2.2-.3 3.1 0 .9.5 1.7.9 1.7.6 0 1 .5.9 1.1s-.5 1-1.1.9c-.1 0-.2 0-.3-.1l-.2-.1z" fill="#b56600"/>
  <path d="M1.3-314.1c1.1.2 2.2.1 3.3-.3.8-.3 1.6-.8 2.2-1.4 1.6-1.6 2.2-3.9 1.6-6-3-1.2-6.5-.7-8.9 1.8-1.1 1.1-1.8 2.3-2.1 3.7.2.2.3.4.5.6 1 .8 2.2 1.4 3.4 1.6z" fill="#fd0"/>
  <path d="M8.4-321.8c-.3-1-.8-2-1.6-2.9-2.5-2.5-6.4-2.5-8.9 0-2.3 2.3-2.4 5.8-.5 8.3.4-1.3 1.1-2.6 2.1-3.7 2.4-2.4 6-3 8.9-1.7z" fill="#ffee7a"/>
  <path d="M3-325.2c2.7.4 4.5 2.9 4 5.6-.4 2.7-2.9 4.5-5.6 4-2.7-.4-4.5-2.9-4-5.6.5-2.6 3-4.4 5.6-4z" fill="#e1a32d"/>
  <path d="M3-324.8c2.5.4 4.2 2.8 3.8 5.2-.4 2.5-2.8 4.2-5.2 3.8-2.5-.4-4.2-2.8-3.8-5.2.3-2.6 2.7-4.3 5.2-3.8z" fill="#af7520"/>
  <path d="M-1.8-318.5c.2.5.5 1.1 1 1.5 1.7 1.7 4.5 1.7 6.3 0 1.5-1.5 1.7-3.7.7-5.4-.3.7-.8 1.4-1.4 2.1-1.8 1.7-4.3 2.3-6.6 1.8z" fill="#fad351"/>
  <path d="M-.8-323.3c-1.3 1.3-1.6 3.2-1 4.8 2.3.5 4.8-.1 6.5-1.9.6-.6 1.1-1.3 1.4-2.1-.2-.3-.4-.6-.7-.9-1.7-1.6-4.5-1.6-6.2.1z" fill="#fac500"/>
  <path d="M45.9-309c-2.1 3.4-7 4.2-7 4.2s-1.6-4.8.5-8.2c2.1-3.4 7-4.2 7-4.2s1.6 4.8-.5 8.2zm-30 6.3c.1 3.8-3.5 7-3.5 7s-3.8-3-3.9-6.8c-.1-3.8 3.5-7 3.5-7s3.8 3 3.9 6.8zm35.3 5.2c2 1.9 1.7 5.4 1.7 5.4s-3.4.3-5.4-1.6c-2-1.9-1.7-5.4-1.7-5.4s3.5-.3 5.4 1.6zM34.8-290c.1 2.7-2.5 5-2.5 5s-2.7-2.2-2.7-4.9c-.1-2.7 2.5-5 2.5-5s2.7 2.1 2.7 4.9zm4.5 3.6c2.5 1.1 3.5 4.4 3.5 4.4s-3.1 1.5-5.6.4c-2.5-1.1-3.5-4.4-3.5-4.4s3.1-1.5 5.6-.4zm11.4-22.7c-1 1.4-3.2 1.5-3.2 1.5s-.5-2.1.5-3.5 3.2-1.5 3.2-1.5.5 2.2-.5 3.5z" fill="#5bb81f"/>
  <path d="M50.9-306.5c-1.7.3-3.3-1-3.3-1s1.1-1.9 2.7-2.2c1.7-.3 3.3 1 3.3 1s-1 1.9-2.7 2.2zm-39.2 13.9c-1.1 1.3-3.3 1.2-3.3 1.2s-.3-2.1.8-3.4 3.3-1.2 3.3-1.2.4 2.2-.8 3.4zm-13.2.1c4.6.3 8.1 4.9 8.1 4.9s-4 4.2-8.6 3.9c-4.6-.3-8.1-4.9-8.1-4.9s4-4.2 8.6-3.9z" fill="#5bb81f"/>
  <path d="M4.1-283.6c.1-2.3 2.4-4 2.4-4s2.1 2 1.9 4.3c-.1 2.3-2.4 4-2.4 4s-2-2-1.9-4.3z" fill="#5bb81f"/>
  <path d="M52.9-292.6c.9.7 1.9 1.1 3.1 1.2.9.1 1.8 0 2.6-.3 2.2-.7 3.7-2.5 4.2-4.6-2.1-2.4-5.5-3.5-8.8-2.4-1.4.5-2.6 1.3-3.5 2.3.1.2.1.5.2.7.4 1.3 1.2 2.3 2.2 3.1z" fill="#fd0"/>
  <path d="M62.8-296.4c.2-1.1.2-2.2-.2-3.3-1.1-3.3-4.6-5.1-7.9-4-3 1-4.8 4.1-4.2 7.2.9-1 2.1-1.9 3.5-2.3 3.2-1.1 6.7 0 8.8 2.4z" fill="#ffee7a"/>
  <path d="M59.4-301.8c2.2 1.6 2.7 4.6 1.1 6.8s-4.6 2.7-6.8 1.1-2.7-4.6-1.1-6.8 4.7-2.7 6.8-1.1z" fill="#e1a32d"/>
  <path d="M59.2-301.5c2 1.5 2.5 4.3 1 6.4-1.5 2-4.3 2.5-6.4 1-2-1.5-2.5-4.3-1-6.4 1.5-2.1 4.4-2.5 6.4-1z" fill="#af7520"/>
  <path d="M52.1-298c0 .6 0 1.2.2 1.8.8 2.3 3.3 3.6 5.6 2.8 2-.7 3.2-2.6 3-4.5-.6.5-1.4.9-2.2 1.2-2.3.7-4.8.2-6.6-1.3z" fill="#fad351"/>
  <path d="M55.2-301.8c-1.7.6-2.9 2.1-3 3.8 1.8 1.5 4.3 2 6.7 1.3.8-.3 1.6-.7 2.2-1.2 0-.4-.1-.7-.2-1.1-.9-2.4-3.4-3.6-5.7-2.8z" fill="#fac500"/>
  <path d="M58.8-293.7c3.4.9 5.2 4.9 5.2 4.9s-3.6 2.5-7 1.5c-3.4-.9-5.2-4.9-5.2-4.9s3.6-2.4 7-1.5zm-22.7-31.1c-3.9 3.9-10.7 3.3-10.7 3.3s-.6-6.9 3.3-10.7c3.9-3.9 10.7-3.3 10.7-3.3s.6 6.9-3.3 10.7z" fill="#5bb81f"/>
  <path d="M24.4-322.4c1.5.3 3.1.1 4.6-.4 1.1-.4 2.2-1.1 3.1-2 2.3-2.3 3-5.5 2.3-8.4-4.1-1.7-9.1-.9-12.4 2.5-1.5 1.5-2.5 3.3-3 5.1.2.3.5.6.7.8 1.3 1.3 3 2.1 4.7 2.4z" fill="#fd0"/>
  <path d="M34.4-333.2c-.4-1.5-1.1-2.9-2.3-4-3.4-3.4-9-3.4-12.4 0-3.2 3.2-3.4 8.2-.7 11.6.5-1.9 1.5-3.7 3-5.1 3.3-3.4 8.2-4.2 12.4-2.5z" fill="#ffee7a"/>
  <path d="M26.8-337.9c3.7.6 6.2 4.1 5.6 7.8-.6 3.7-4.1 6.2-7.8 5.6-3.7-.6-6.2-4.1-5.6-7.8.6-3.6 4.1-6.2 7.8-5.6z" fill="#e1a32d"/>
  <path d="M26.7-337.4c3.5.6 5.8 3.8 5.3 7.3-.6 3.5-3.8 5.8-7.3 5.3-3.5-.6-5.8-3.8-5.3-7.3.6-3.5 3.9-5.9 7.3-5.3z" fill="#af7520"/>
  <path d="M20.1-328.6c.3.8.8 1.5 1.4 2.1 2.4 2.4 6.4 2.4 8.8 0 2-2 2.4-5.2.9-7.6-.5 1-1.1 2-2 2.9-2.5 2.5-5.9 3.4-9.1 2.6z" fill="#fad351"/>
  <path d="M21.5-335.3c-1.8 1.8-2.3 4.5-1.4 6.7 3.2.7 6.6-.1 9.1-2.6.9-.9 1.5-1.8 2-2.9l-.9-1.2c-2.5-2.4-6.4-2.4-8.8 0z" fill="#fac500"/>
  <path d="M22.2-328.9c3.5 2.1 4.4 7.1 4.4 7.1s-4.8 1.7-8.3-.4-4.4-7.1-4.4-7.1 4.8-1.6 8.3.4z" fill="#5bb81f"/>
  <path fill="#dfe0ed" d="M13.1-257.1h25.4v1.5H13.1z"/>
  <path fill="#fff" d="M17.2-257.1h3v1.5h-3zm4.2 0h5.9v1.5h-5.9z"/>
  <path fill="#dfe0ed" d="M13.1-259.7h25.4v.5H13.1z"/>
  <path fill="#fff" d="M17.2-259.7h3v.5h-3zm4.2 0h5.9v.5h-5.9z"/>
  <path d="M45.5-216.8v-2.8c0-.2.1-.3.3-.3h15.4c.2 0 .3.1.3.3v2.8c0 .2-.1.3-.3.3H45.7c-.1 0-.2-.1-.2-.3z" fill="#fac500"/>
  <path fill="#fd0" d="M59.797-219.883v3.4h-12v-3.4z"/>
  <path fill="#ffee7a" d="M56.443-219.83v3.4h-4.5v-3.4z"/>
  <path d="M45.5-220.4v-2.8c0-.2.1-.3.3-.3h15.4c.2 0 .3.1.3.3v2.8c0 .2-.1.3-.3.3H45.7c-.1 0-.2-.2-.2-.3z" fill="#fac500"/>
  <path fill="#fd0" d="M59.761-223.52v3.4h-12v-3.4z"/>
  <path fill="#ffee7a" d="M56.407-223.466v3.4h-4.5v-3.4z"/>
  <path d="M45.5-224.1v-2.8c0-.2.1-.3.3-.3h15.4c.2 0 .3.1.3.3v2.8c0 .2-.1.3-.3.3H45.7c-.1 0-.2-.1-.2-.3z" fill="#fac500"/>
  <path fill="#fd0" d="M59.825-227.155v3.4h-12v-3.4z"/>
  <path fill="#ffee7a" d="M56.371-227.102v3.4h-4.5v-3.4z"/>
  <path d="M45.5-227.7v-2.8c0-.2.1-.3.3-.3h15.4c.2 0 .3.1.3.3v2.8c0 .2-.1.3-.3.3H45.7c-.1 0-.2-.1-.2-.3z" fill="#fac500"/>
  <path fill="#fd0" d="M59.789-230.791v3.4h-12v-3.4z"/>
  <path fill="#ffee7a" d="M56.435-230.738v3.4h-4.5v-3.4z"/>
  <path d="M45.5-231.3v-2.8c0-.2.1-.3.3-.3h15.4c.2 0 .3.1.3.3v2.8c0 .2-.1.3-.3.3H45.7c-.1-.1-.2-.2-.2-.3z" fill="#fac500"/>
  <path fill="#fd0" d="M59.753-234.427v3.4h-12v-3.4z"/>
  <path fill="#ffee7a" d="M56.4-234.374v3.4h-4.5v-3.4z"/>
  <path fill="#e1a32d" d="M46.1-220.1h14.4v.3H46.1zm0-3.7h14.4v.3H46.1zm0-3.6h14.4v.3H46.1zm0-3.7h14.4v.3H46.1zm0-3.6h14.4v.3H46.1z"/>
  <path d="M45.5-235v-2.8c0-.2.1-.3.3-.3h15.4c.2 0 .3.1.3.3v2.8c0 .2-.1.3-.3.3H45.7c-.1 0-.2-.1-.2-.3z" fill="#fac500"/>
  <path fill="#fd0" d="M59.817-238.063v3.4h-12v-3.4z"/>
  <path fill="#ffee7a" d="M56.363-238.01v3.4h-4.5v-3.4z"/>
  <path d="M45.5-238.6v-2.8c0-.2.1-.3.3-.3h15.4c.2 0 .3.1.3.3v2.8c0 .2-.1.3-.3.3H45.7c-.1 0-.2-.1-.2-.3z" fill="#fac500"/>
  <path fill="#fd0" d="M59.781-241.7v3.4h-12v-3.4z"/>
  <path fill="#ffee7a" d="M56.428-241.646v3.4h-4.5v-3.4z"/>
  <path d="M45.5-242.2v-2.8c0-.2.1-.3.3-.3h15.4c.2 0 .3.1.3.3v2.8c0 .2-.1.3-.3.3H45.7c-.1-.1-.2-.2-.2-.3z" fill="#fac500"/>
  <path fill="#fd0" d="M59.745-245.335v3.4h-12v-3.4z"/>
  <path fill="#ffee7a" d="M56.392-245.282v3.4h-4.5v-3.4z"/>
  <path d="M45.5-245.9v-2.8c0-.2.1-.3.3-.3h15.4c.2 0 .3.1.3.3v2.8c0 .2-.1.3-.3.3H45.7c-.1 0-.2-.1-.2-.3z" fill="#fac500"/>
  <path fill="#fd0" d="M59.809-248.971v3.4h-12v-3.4z"/>
  <path fill="#ffee7a" d="M56.356-248.918v3.4h-4.5v-3.4z"/>
  <path d="M45.5-249.5v-2.8c0-.2.1-.3.3-.3h15.4c.2 0 .3.1.3.3v2.8c0 .2-.1.3-.3.3H45.7c-.1 0-.2-.2-.2-.3z" fill="#fac500"/>
  <path fill="#fd0" d="M59.773-252.607v3.4h-12v-3.4z"/>
  <path fill="#ffee7a" d="M56.42-252.554v3.4h-4.5v-3.4z"/>
  <path fill="#e1a32d" d="M46.1-238.3h14.4v.3H46.1zm0-3.7h14.4v.3H46.1zm0-3.6h14.4v.3H46.1zm0-3.6h14.4v.3H46.1z"/>
  <path d="M34.5-214.2v-2.8c0-.2.1-.3.3-.3h15.4c.2 0 .3.1.3.3v2.8c0 .2-.1.3-.3.3H34.8c-.2-.1-.3-.2-.3-.3z" fill="#fac500"/>
  <path fill="#fd0" d="M48.787-217.302v3.4h-12v-3.4z"/>
  <path fill="#ffee7a" d="M45.433-217.349v3.4h-4.5v-3.4z"/>
  <path d="M34.5-217.9v-2.8c0-.2.1-.3.3-.3h15.4c.2 0 .3.1.3.3v2.8c0 .2-.1.3-.3.3H34.8c-.2 0-.3-.1-.3-.3z" fill="#fac500"/>
  <path fill="#fd0" d="M48.85-220.938v3.4h-12v-3.4z"/>
  <path fill="#ffee7a" d="M45.497-220.985v3.4h-4.5v-3.4z"/>
  <path d="M34.5-221.5v-2.8c0-.2.1-.3.3-.3h15.4c.2 0 .3.1.3.3v2.8c0 .2-.1.3-.3.3H34.8c-.2 0-.3-.2-.3-.3z" fill="#fac500"/>
  <path fill="#fd0" d="M48.815-224.574v3.4h-12v-3.4z"/>
  <path fill="#ffee7a" d="M45.461-224.62v3.4h-4.5v-3.4z"/>
  <path d="M34.5-225.2v-2.8c0-.2.1-.3.3-.3h15.4c.2 0 .3.1.3.3v2.8c0 .2-.1.3-.3.3H34.8c-.2 0-.3-.1-.3-.3z" fill="#fac500"/>
  <path fill="#fd0" d="M48.879-228.21v3.4h-12v-3.4z"/>
  <path fill="#ffee7a" d="M45.425-228.257v3.4h-4.5v-3.4z"/>
  <path d="M34.5-228.8v-2.8c0-.2.1-.3.3-.3h15.4c.2 0 .3.1.3.3v2.8c0 .2-.1.3-.3.3H34.8c-.2 0-.3-.1-.3-.3z" fill="#fac500"/>
  <path fill="#fd0" d="M48.843-231.846v3.4h-12v-3.4z"/>
  <path fill="#ffee7a" d="M45.49-231.893v3.4h-4.5v-3.4z"/>
  <path fill="#e1a32d" d="M35.2-217.6h14.4v.3H35.2zm0-3.6h14.4v.3H35.2zm0-3.7h14.4v.3H35.2zm0-3.6h14.4v.3H35.2z"/>
  <path d="M24.8-330.8h-.7l-.3 1.5H23l.7-4.1H25c.4 0 .8.1 1 .3.2.2.3.5.3.9 0 .6-.3.9-.9 1.2l.6 1.6h-.9l-.3-1.4zm-.6-.7h.6c.2 0 .4-.1.5-.2.1-.1.2-.3.3-.5 0-.2 0-.3-.1-.4-.1-.1-.2-.2-.4-.2h-.7l-.2 1.3zm3.4.8l-.3 1.4h-.8l.7-4.1h1.4c.4 0 .8.1 1 .4.3.2.4.6.3 1 0 .4-.2.7-.5 1-.3.2-.7.4-1.2.4l-.6-.1zm.2-.7h.7c.2 0 .4-.1.5-.2s.2-.3.3-.5c0-.2 0-.3-.1-.5-.1-.1-.2-.2-.4-.2H28l-.2 1.4zM.7-320H.1l-.3 1.5H-1l.7-4.1H1c.4 0 .8.1 1 .3.2.2.3.5.3.9 0 .6-.3.9-.9 1.2l.6 1.6h-.8L.7-320zm-.5-.7h.6c.2 0 .4-.1.5-.2.1-.1.2-.3.3-.5 0-.2 0-.3-.1-.4-.1-.1-.2-.2-.4-.2H.4l-.2 1.3zm3.4.8l-.3 1.4h-.8l.7-4.1h1.4c.4 0 .8.1 1 .4.3.2.4.6.3 1 0 .4-.2.7-.5 1-.3.2-.7.4-1.2.4l-.6-.1zm.1-.7h.7c.2 0 .4-.1.5-.2.1-.1.2-.3.3-.5 0-.2 0-.3-.1-.5-.1-.1-.2-.2-.4-.2h-.8l-.2 1.4zm-.8 21.8h-.6l-.3 1.5h-.8l.7-4.1h1.3c.4 0 .8.1 1 .3.2.2.3.5.3.9 0 .6-.3.9-.9 1.2l.6 1.6h-.8l-.5-1.4zm-.5-.7H3c.2 0 .4-.1.5-.2.1-.1.2-.3.3-.5 0-.2 0-.3-.1-.4-.1-.1-.2-.2-.4-.2h-.7l-.2 1.3zm3.4.7l-.3 1.4h-.7l.7-4.1h1.4c.4 0 .8.1 1 .4.3.2.4.6.3 1 0 .4-.2.7-.5 1-.3.2-.7.4-1.2.4l-.7-.1zm.1-.6h.7c.2 0 .4-.1.5-.2s.2-.3.3-.5c0-.2 0-.3-.1-.5-.1-.1-.2-.2-.4-.2h-.8l-.2 1.4zm48.9 2h-.7l-.3 1.5H53l.7-4.1H55c.4 0 .8.1 1 .3.2.2.3.5.3.9 0 .6-.3.9-.9 1.2l.6 1.6h-.9l-.3-1.4zm-.5-.6h.6c.2 0 .4-.1.5-.2.1-.1.2-.3.3-.5 0-.2 0-.3-.1-.4-.1-.1-.2-.2-.4-.2h-.7l-.2 1.3zm3.4.7l-.3 1.4h-.8l.7-4.1h1.4c.4 0 .8.1 1 .4.3.2.4.6.3 1 0 .4-.2.7-.5 1-.3.2-.7.4-1.2.4l-.6-.1zm.1-.7h.7c.2 0 .4-.1.5-.2.1-.1.2-.3.3-.5 0-.2 0-.3-.1-.5-.1-.1-.2-.2-.4-.2H58l-.2 1.4z" fill="#d9901d"/>
  <path d="M76.4 50.8c-.3-.4-.8-.7-1.5-.9-.7-.2-1.4-.2-2.2-.3-.8-.1-1.7-.1-2.6-.4-.9-.2-1.7-.8-2.3-1.5-1.1-1.4-1.4-3.1-2-4.5-.3-.7-.8-1.4-1.4-1.8-.6-.4-1.5-.7-2.3-.5.8-.3 1.7-.2 2.4.2s1.3 1.1 1.7 1.8c.9 1.4 1.3 3 2.4 4.1 1 1.1 2.5 1.1 4.1 1 .8 0 1.7-.1 2.6.1.9.1 1.9.5 2.7 1.3.4.4.4 1-.1 1.4-.4.5-1 .5-1.5 0 .1.1 0 .1 0 0z" fill="#b56600"/>
  <path d="M61.3 45.8c1.2-.4 2.2-1.2 3-2.1.6-.7 1.1-1.6 1.4-2.6.7-2.5-.1-5-1.8-6.7-3.5.5-6.6 3-7.6 6.7-.4 1.6-.4 3.2 0 4.7.3.1.5.2.8.3 1.4.3 2.9.2 4.2-.3z" fill="#fd0"/>
  <path d="M63.9 34.3c-.8-.9-1.9-1.5-3.2-1.9-3.7-1-7.6 1.2-8.6 5-.9 3.5.9 7 4.1 8.3-.4-1.5-.4-3.1 0-4.7 1.1-3.7 4.1-6.2 7.7-6.7z" fill="#ffee7a"/>
  <path d="M56.8 34.1c2.8-1.1 5.9.3 7 3.2 1.1 2.8-.3 5.9-3.2 7-2.8 1.1-5.9-.3-7-3.2-1-2.8.4-5.9 3.2-7z" fill="#e1a32d"/>
  <path d="M56.9 34.5c2.6-1 5.6.3 6.6 3 1 2.6-.3 5.6-3 6.6-2.6 1-5.6-.3-6.6-3-.9-2.7.4-5.6 3-6.6z" fill="#af7520"/>
  <path d="M55.9 43.3c.5.4 1.1.7 1.8.9 2.6.7 5.4-.9 6.1-3.5.6-2.2-.4-4.5-2.4-5.6.1.9 0 1.8-.2 2.8-.8 2.6-2.8 4.6-5.3 5.4z" fill="#fad351"/>
  <path d="M54.2 38.1c-.5 2 .2 4 1.7 5.2 2.5-.8 4.5-2.7 5.3-5.4.2-.9.3-1.9.2-2.8-.4-.2-.7-.4-1.1-.5-2.7-.7-5.4.8-6.1 3.5z" fill="#fac500"/>
  <path d="M88.5 79.1c-1 0-1.9-.8-1.9-1.9v-3.5H67.3v3.5c0 1-.8 1.9-1.9 1.9-2 0-3.6 1.6-3.6 3.6v21.9c0 2 1.6 3.6 3.6 3.6h23c2 0 3.6-1.6 3.6-3.6V82.7c.1-2-1.5-3.6-3.5-3.6z" fill="#d3d4e7"/>
  <path d="M77 103.2c-5.4 0-10.5 1.1-14.7 3.1.6 1.1 1.8 1.9 3.2 1.9h23c1.4 0 2.6-.8 3.2-1.9-4.3-2-9.3-3.1-14.7-3.1z" fill="#8d6600"/>
  <path d="M67.4 105c-1.6 0-2.8-1.3-2.8-2.8V85.5c0-1.6 1.3-2.8 2.8-2.8 1.6 0 2.8 1.3 2.8 2.8v16.6c.1 1.6-1.2 2.9-2.8 2.9zm19.8 0h-5.4c-1.2 0-2.2-1-2.2-2.2V84.9c0-1.2 1-2.2 2.2-2.2h5.4c1.2 0 2.2 1 2.2 2.2v17.9c-.1 1.2-1 2.2-2.2 2.2z" fill="#fff"/>
  <path fill="#b56600" d="M78.8 104h-3.2l.7-94.8h1.8z"/>
  <path d="M76.4 30.8c.4-.9 1.1-1.7 1.8-2.2.8-.5 1.6-.8 2.4-1 1.7-.4 3.3-.4 4.8-.5 1.5-.1 3-.6 4.1-1.6 1.1-1 2-2.4 2.2-4-.1 1.6-.7 3.1-1.8 4.3-.6.6-1.2 1.1-2 1.5-.7.4-1.5.6-2.3.8-1.6.3-3.2.5-4.5 1-1.3.5-2.5 1.4-2.8 2.5-.1.5-.7.9-1.2.7-.5-.1-.9-.7-.7-1.2-.1-.2-.1-.2 0-.3zm-.2 25.7c.4-1.5 1.3-2.8 2.4-3.7 1.1-.9 2.4-1.5 3.6-2 2.5-.9 5.1-1.2 7.3-2.4 1.1-.6 2.1-1.3 2.7-2.4.7-1 .9-2.2 1-3.5.1-1.3 0-2.6.2-3.9.2-1.3.8-2.6 1.9-3.3-1.1.8-1.5 2.1-1.7 3.3-.2 1.3 0 2.5 0 3.8 0 1.3-.1 2.7-.8 3.9-.7 1.2-1.7 2.1-2.9 2.8-2.3 1.4-5 1.9-7.2 2.9-1.1.5-2.2 1.1-3 1.9-.8.8-1.4 1.8-1.6 2.8-.1.5-.6.9-1.1.8-.5.2-.9-.4-.8-1 0 .1 0 .1 0 0zm.7-17.7c1.2-1.1 2.7-1.4 3.9-1.5 1.3-.1 2.5-.2 3.6-.4 2.2-.5 4.2-2.4 4.9-4.8-.3 2.5-2.1 4.8-4.6 5.7-1.2.5-2.5.7-3.7 1-1.2.3-2.2.7-2.7 1.5-.3.4-1 .5-1.4.2-.4-.3-.5-1-.2-1.4.1-.2.1-.2.2-.3zm-.6-1c-1-1.6-2.3-3-3.9-4.1-.8-.5-1.6-1-2.5-1.4-.9-.4-1.8-.6-2.8-1-.5-.2-1-.5-1.4-.9-.4-.4-.7-1-.7-1.6-.1-1.1.2-2.1 0-3-.2-.9-.9-1.7-1.7-2.2-.9-.5-1.8-.7-2.8-1 1 .2 2 .3 2.9.8.9.4 1.8 1.2 2.1 2.2.3 1.1.1 2.1.3 3 .1.9.9 1.4 1.8 1.6.9.2 2 .4 2.9.8 1 .3 1.9.8 2.9 1.3 1.8 1.1 3.4 2.5 4.7 4.2.3.4.2 1.1-.2 1.4-.6.5-1.3.4-1.6-.1 0 .1 0 .1 0 0z" fill="#b56600"/>
  <path d="M84.1 27.2c1.1-.6 2-1.6 2.4-2.8.4-1.2.1-2.6-.2-3.9-.4-1.3-.7-2.7-.8-4.1 0-.7 0-1.4.3-2.1.3-.6.8-1.2 1.5-1.4-.6.3-1.1.8-1.3 1.5-.3.6-.3 1.3-.2 2 .2 1.4.6 2.7 1 4 .4 1.3.8 2.8.4 4.3-.4 1.4-1.3 2.7-2.7 3.5-.2.1-.5.1-.7-.2-.1-.3 0-.6.3-.8zm2 9.5c.7.9 1.9 1.4 3.1 1.3.6 0 1.2-.2 1.7-.5s.9-.8 1.3-1.3c.7-1.1 1.3-2.4 2.5-3.1 1.1-.8 2.4-1.2 3.8-1.2-1.3 0-2.6.5-3.6 1.4-1 .8-1.5 2-2.2 3.2-.3.6-.8 1.2-1.4 1.6-.6.4-1.3.7-2 .8-1.4.2-3-.3-4-1.4-.2-.2-.2-.5 0-.7.3-.4.6-.4.8-.1 0-.1 0 0 0 0zm3.8 11.8c1.9.2 3.6.7 5.4.3 1.7-.3 3.4-1.4 4.4-2.9-.8 1.6-2.4 2.9-4.2 3.4-1.9.5-3.8.1-5.5.2-.3 0-.5-.2-.5-.5-.1-.3.1-.5.4-.5zm-20.3.3c-.7.4-1.5.9-2.2 1.4-.8.5-1.6 1-2.6 1.1-1.9.3-3.8-.4-5-1.7 1.3 1.2 3.2 1.7 4.9 1.2.8-.2 1.5-.7 2.2-1.2.7-.6 1.3-1.2 2.2-1.7.2-.1.5-.1.7.2.1.2.1.5-.2.7zm.6-16.5c-.6-.3-1-.8-1.1-1.3-.2-.5-.2-1-.2-1.5.1-1 .5-1.8.6-2.7.2-1.7-.5-3.6-1.8-4.9 1.4 1.1 2.3 3 2.3 4.9 0 1-.3 1.9-.3 2.7 0 .8.3 1.7.9 1.8.3.1.4.4.3.6-.1.3-.3.5-.7.4.1 0 .1 0 0 0z" fill="#b56600"/>
  <path d="M55.8 26.7c.9.2 1.9.1 2.8-.3.7-.3 1.4-.7 1.9-1.2 1.4-1.4 1.9-3.4 1.4-5.2-2.6-1.1-5.6-.6-7.7 1.5-.9.9-1.5 2-1.8 3.2.1.2.3.3.4.5.9.8 1.9 1.3 3 1.5z" fill="#fd0"/>
  <path d="M61.9 19.9c-.2-.9-.7-1.8-1.4-2.5-2.1-2.1-5.6-2.1-7.7 0-2 2-2.1 5.1-.4 7.2.3-1.2.9-2.3 1.8-3.2 2.1-2 5.2-2.5 7.7-1.5z" fill="#ffee7a"/>
  <path d="M57.3 17.1c2.3.4 3.9 2.5 3.5 4.8-.4 2.3-2.5 3.9-4.8 3.5-2.3-.4-3.9-2.5-3.5-4.8.3-2.3 2.5-3.9 4.8-3.5z" fill="#e1a32d"/>
  <path d="M57.2 17.3c2.2.4 3.6 2.4 3.3 4.5-.4 2.2-2.4 3.6-4.5 3.3-2.2-.4-3.6-2.4-3.3-4.5.3-2.2 2.4-3.6 4.5-3.3z" fill="#af7520"/>
  <path d="M53.1 22.8c.2.5.5.9.9 1.3 1.5 1.5 3.9 1.5 5.4 0 1.3-1.3 1.5-3.2.6-4.7-.3.6-.7 1.2-1.2 1.8-1.6 1.5-3.7 2.1-5.7 1.6z" fill="#fad351"/>
  <path d="M54 18.7c-1.1 1.1-1.4 2.8-.9 4.1 2 .5 4.1-.1 5.6-1.6.5-.5.9-1.1 1.2-1.8-.2-.3-.4-.5-.6-.8-1.4-1.4-3.8-1.4-5.3.1z" fill="#fac500"/>
  <path d="M94.3 31.1c-1.8 2.9-6.1 3.6-6.1 3.6s-1.3-4.1.5-7.1c1.8-2.9 6.1-3.6 6.1-3.6s1.3 4.1-.5 7.1zm-25.9 5.4c.1 3.3-3 6.1-3 6.1s-3.2-2.6-3.3-5.9c-.1-3.3 3-6.1 3-6.1s3.2 2.6 3.3 5.9zM99 41c1.7 1.7 1.5 4.6 1.5 4.6s-3 .3-4.7-1.4c-1.7-1.7-1.5-4.6-1.5-4.6s3-.3 4.7 1.4zm-14.2 6.5c.1 2.4-2.2 4.4-2.2 4.4s-2.3-1.9-2.4-4.2c-.1-2.4 2.2-4.4 2.2-4.4s2.4 1.8 2.4 4.2zm3.9 3.1c2.2 1 3 3.8 3 3.8s-2.7 1.3-4.9.3-3-3.8-3-3.8 2.7-1.2 4.9-.3zM98.5 31c-.9 1.2-2.7 1.3-2.7 1.3s-.4-1.8.5-3S99 28 99 28s.4 1.8-.5 3z" fill="#5bb81f"/>
  <path d="M98.7 33.2c-1.5.3-2.9-.9-2.9-.9s.9-1.6 2.4-1.9c1.5-.3 2.9.9 2.9.9s-.9 1.7-2.4 1.9zM64.8 45.3c-1 1.1-2.8 1.1-2.8 1.1s-.3-1.8.7-2.9c1-1.1 2.8-1.1 2.8-1.1s.3 1.8-.7 2.9zm-11.4 0c4 .2 7 4.2 7 4.2S57 53.1 53 52.9s-7-4.2-7-4.2 3.4-3.6 7.4-3.4z" fill="#5bb81f"/>
  <path d="M58.2 53c.1-2 2.1-3.5 2.1-3.5s1.8 1.7 1.7 3.7c-.1 2-2.1 3.5-2.1 3.5S58.1 55 58.2 53z" fill="#5bb81f"/>
  <path d="M100.4 45.2c.8.6 1.7.9 2.6 1 .7.1 1.5 0 2.3-.2 1.9-.6 3.2-2.2 3.6-4-1.8-2.1-4.8-3-7.6-2.1-1.2.4-2.3 1.1-3.1 2 0 .2.1.4.2.6.5 1.2 1.2 2.1 2 2.7z" fill="#fd0"/>
  <path d="M109 42c.2-.9.2-1.9-.2-2.8-.9-2.8-4-4.4-6.9-3.4-2.6.9-4.1 3.6-3.6 6.2.8-.9 1.8-1.6 3.1-2 2.8-1.1 5.8-.1 7.6 2z" fill="#ffee7a"/>
  <path d="M106.1 37.3c1.9 1.4 2.3 4 .9 5.9-1.4 1.9-4 2.3-5.9.9-1.9-1.4-2.3-4-.9-5.9 1.4-1.8 4-2.3 5.9-.9z" fill="#e1a32d"/>
  <path d="M105.9 37.5c1.8 1.3 2.2 3.7.9 5.5-1.3 1.8-3.7 2.2-5.5.9-1.8-1.3-2.2-3.7-.9-5.5 1.3-1.8 3.7-2.2 5.5-.9z" fill="#af7520"/>
  <path d="M99.8 40.6c0 .5 0 1 .2 1.5.7 2 2.8 3.1 4.9 2.4 1.7-.6 2.7-2.2 2.6-3.9-.5.4-1.2.8-1.9 1-2.1.7-4.3.3-5.8-1z" fill="#fad351"/>
  <path d="M102.4 37.2c-1.5.5-2.5 1.8-2.6 3.3 1.6 1.3 3.7 1.8 5.8 1.1.7-.2 1.3-.6 1.9-1 0-.3-.1-.6-.2-.9-.7-2-2.9-3.1-4.9-2.5z" fill="#fac500"/>
  <path d="M105.5 44.3c2.9.8 4.5 4.2 4.5 4.2s-3.1 2.1-6 1.3-4.5-4.2-4.5-4.2 3.1-2.1 6-1.3zM85.9 17.4c-3.4 3.4-9.3 2.9-9.3 2.9s-.5-5.9 2.9-9.3c3.4-3.4 9.3-2.9 9.3-2.9s.5 6-2.9 9.3z" fill="#5bb81f"/>
  <path d="M75.8 19.5c1.3.2 2.7.1 3.9-.4 1-.4 1.9-.9 2.7-1.7 2-2 2.6-4.8 2-7.3-3.6-1.5-7.9-.8-10.8 2.1-1.3 1.3-2.1 2.8-2.6 4.5.2.2.4.5.6.7 1.2 1.1 2.7 1.8 4.2 2.1z" fill="#fd0"/>
  <path d="M84.4 10.1c-.3-1.3-1-2.5-2-3.5-3-3-7.8-3-10.7 0-2.7 2.7-2.9 7.1-.6 10 .4-1.6 1.3-3.2 2.6-4.5 2.8-2.8 7.1-3.5 10.7-2z" fill="#ffee7a"/>
  <path d="M77.9 6.1c3.2.5 5.4 3.6 4.9 6.8-.5 3.2-3.6 5.4-6.8 4.9-3.2-.5-5.4-3.6-4.9-6.8.5-3.3 3.6-5.4 6.8-4.9z" fill="#e1a32d"/>
  <path d="M77.8 6.5c3 .5 5.1 3.3 4.6 6.3s-3.3 5.1-6.3 4.6C73 16.9 71 14 71.4 11c.5-3 3.4-5 6.4-4.5z" fill="#af7520"/>
  <path d="M72 14.1c.3.7.7 1.3 1.2 1.8 2.1 2.1 5.5 2.1 7.6 0 1.8-1.8 2-4.5.8-6.5-.4.9-1 1.7-1.7 2.5-2.1 2.1-5.1 2.8-7.9 2.2z" fill="#fad351"/>
  <path d="M73.2 8.3c-1.6 1.6-2 3.9-1.2 5.8 2.7.6 5.7-.1 7.9-2.3.7-.7 1.3-1.6 1.7-2.5-.2-.4-.5-.7-.8-1.1-2.1-2-5.5-2-7.6.1z" fill="#fac500"/>
  <path d="M73.8 13.9c3 1.8 3.8 6.1 3.8 6.1s-4.2 1.5-7.2-.3-3.8-6.1-3.8-6.1 4.2-1.5 7.2.3z" fill="#5bb81f"/>
  <path fill="#dfe0ed" d="M66 76h22v1.3H66z"/>
  <path fill="#fff" d="M69.6 76h2.6v1.3h-2.6zm3.6 0h5.1v1.3h-5.1z"/>
  <path fill="#dfe0ed" d="M66 73.7h22v.4H66z"/>
  <path fill="#fff" d="M69.6 73.7h2.6v.4h-2.6zm3.6 0h5.1v.4h-5.1z"/>
  <path d="M94 110.8v-2.4c0-.1.1-.2.2-.2h13.3c.1 0 .2.1.2.2v2.4c0 .1-.1.2-.2.2H94.2c-.1.1-.2 0-.2-.2z" fill="#fac500"/>
  <path fill="#fd0" d="M106.425 108.13v2.9h-10.4v-2.9z"/>
  <path fill="#ffee7a" d="M103.425 108.13v2.9h-3.9v-2.9z"/>
  <path d="M94 107.7v-2.4c0-.1.1-.2.2-.2h13.3c.1 0 .2.1.2.2v2.4c0 .1-.1.2-.2.2H94.2c-.1 0-.2-.1-.2-.2z" fill="#fac500"/>
  <path fill="#fd0" d="M106.379 104.983v2.9h-10.4v-2.9z"/>
  <path fill="#ffee7a" d="M103.479 104.983v2.9h-3.9v-2.9z"/>
  <path d="M94 104.6v-2.4c0-.1.1-.2.2-.2h13.3c.1 0 .2.1.2.2v2.4c0 .1-.1.2-.2.2H94.2c-.1 0-.2-.1-.2-.2z" fill="#fac500"/>
  <path fill="#fd0" d="M106.433 101.836v2.9h-10.4v-2.9z"/>
  <path fill="#ffee7a" d="M103.432 101.837v2.9h-3.9v-2.9z"/>
  <path d="M94 101.4V99c0-.1.1-.2.2-.2h13.3c.1 0 .2.1.2.2v2.4c0 .1-.1.2-.2.2H94.2c-.1 0-.2-.1-.2-.2z" fill="#fac500"/>
  <path fill="#fd0" d="M106.386 98.69v2.9h-10.4v-2.9z"/>
  <path fill="#ffee7a" d="M103.486 98.69v2.9h-3.9v-2.9z"/>
  <path d="M94 98.3v-2.4c0-.1.1-.2.2-.2h13.3c.1 0 .2.1.2.2v2.4c0 .1-.1.2-.2.2H94.2c-.1 0-.2-.1-.2-.2z" fill="#fac500"/>
  <path fill="#fd0" d="M106.34 95.544v2.9h-10.4v-2.9z"/>
  <path fill="#ffee7a" d="M103.44 95.544v2.9h-3.9v-2.9z"/>
  <path fill="#e1a32d" d="M94.6 107.9H107v.2H94.6zm0-3.1H107v.2H94.6zm0-3.2H107v.2H94.6zm0-3.1H107v.2H94.6zm0-3.1H107v.2H94.6z"/>
  <path d="M94 95.1v-2.4c0-.1.1-.2.2-.2h13.3c.1 0 .2.1.2.2v2.4c0 .1-.1.2-.2.2H94.2c-.1.1-.2-.1-.2-.2z" fill="#fac500"/>
  <path fill="#fd0" d="M106.394 92.397v2.9h-10.4v-2.9z"/>
  <path fill="#ffee7a" d="M103.493 92.398v2.9h-3.9v-2.9z"/>
  <path d="M94 92v-2.4c0-.1.1-.2.2-.2h13.3c.1 0 .2.1.2.2V92c0 .1-.1.2-.2.2H94.2c-.1 0-.2-.1-.2-.2z" fill="#fac500"/>
  <path fill="#fd0" d="M106.347 89.251v2.9h-10.4v-2.9z"/>
  <path fill="#ffee7a" d="M103.447 89.251v2.9h-3.9v-2.9z"/>
  <path d="M94 88.8v-2.4c0-.1.1-.2.2-.2h13.3c.1 0 .2.1.2.2v2.4c0 .1-.1.2-.2.2H94.2c-.1.1-.2 0-.2-.2z" fill="#fac500"/>
  <path fill="#fd0" d="M106.401 86.105v2.9h-10.4v-2.9z"/>
  <path fill="#ffee7a" d="M103.5 86.105v2.9h-3.9v-2.9z"/>
  <path d="M94 85.7v-2.4c0-.1.1-.2.2-.2h13.3c.1 0 .2.1.2.2v2.4c0 .1-.1.2-.2.2H94.2c-.1 0-.2-.1-.2-.2z" fill="#fac500"/>
  <path fill="#fd0" d="M106.355 82.958v2.9h-10.4v-2.9z"/>
  <path fill="#ffee7a" d="M103.454 82.959v2.9h-3.9v-2.9z"/>
  <path d="M94 82.5v-2.4c0-.1.1-.2.2-.2h13.3c.1 0 .2.1.2.2v2.4c0 .1-.1.2-.2.2H94.2c-.1.1-.2 0-.2-.2z" fill="#fac500"/>
  <path fill="#fd0" d="M106.408 79.812v2.9h-10.4v-2.9z"/>
  <path fill="#ffee7a" d="M103.408 79.812v2.9h-3.9v-2.9z"/>
  <path fill="#e1a32d" d="M94.6 92.2H107v.2H94.6zm0-3.1H107v.2H94.6zm0-3.2H107v.2H94.6zm0-3.1H107v.2H94.6z"/>
  <path d="M84.5 113v-2.4c0-.1.1-.2.2-.2H98c.1 0 .2.1.2.2v2.4c0 .1-.1.2-.2.2H84.7c-.1.1-.2 0-.2-.2z" fill="#fac500"/>
  <path fill="#fd0" d="M96.948 110.395v2.9h-10.4v-2.9z"/>
  <path fill="#ffee7a" d="M93.948 110.395v2.9h-3.9v-2.9z"/>
  <path d="M84.5 109.9v-2.4c0-.1.1-.2.2-.2H98c.1 0 .2.1.2.2v2.4c0 .1-.1.2-.2.2H84.7c-.1 0-.2-.1-.2-.2z" fill="#fac500"/>
  <path fill="#fd0" d="M96.901 107.248v2.9h-10.4v-2.9z"/>
  <path fill="#ffee7a" d="M94.001 107.249v2.9h-3.9v-2.9z"/>
  <path d="M84.5 106.7v-2.4c0-.1.1-.2.2-.2H98c.1 0 .2.1.2.2v2.4c0 .1-.1.2-.2.2H84.7c-.1.1-.2 0-.2-.2z" fill="#fac500"/>
  <path fill="#fd0" d="M96.955 104.102v2.9h-10.4v-2.9z"/>
  <path fill="#ffee7a" d="M93.955 104.102v2.9h-3.9v-2.9z"/>
  <path d="M84.5 103.6v-2.4c0-.1.1-.2.2-.2H98c.1 0 .2.1.2.2v2.4c0 .1-.1.2-.2.2H84.7c-.1 0-.2-.1-.2-.2z" fill="#fac500"/>
  <path fill="#fd0" d="M96.909 100.956v2.9h-10.4v-2.9z"/>
  <path fill="#ffee7a" d="M94.009 100.956v2.9h-3.9v-2.9z"/>
  <path d="M84.5 100.5V98c0-.1.1-.2.2-.2H98c.1 0 .2.1.2.2v2.4c0 .1-.1.2-.2.2H84.7c-.1.1-.2 0-.2-.1z" fill="#fac500"/>
  <path fill="#fd0" d="M96.862 97.81v2.9h-10.4v-2.9z"/>
  <path fill="#ffee7a" d="M93.962 97.81v2.9h-3.9v-2.9z"/>
  <path fill="#e1a32d" d="M85.1 110.1h12.4v.2H85.1zm0-3.1h12.4v.2H85.1zm0-3.2h12.4v.2H85.1zm0-3.1h12.4v.2H85.1z"/>
  <path d="M76.1 12.2h-.6l-.2 1.3h-.7l.6-3.5h1.2c.4 0 .7.1.9.3.2.2.3.4.3.8 0 .5-.3.8-.8 1l.5 1.4h-.8l-.4-1.3zm-.5-.6h.5c.2 0 .3-.1.5-.2.1-.1.2-.2.2-.4s0-.3-.1-.4c-.1-.1-.2-.1-.3-.1h-.6l-.2 1.1zm3 .7l-.2 1.2h-.7l.6-3.5h1.2c.4 0 .7.1.9.3.2.2.3.5.3.8 0 .3-.2.6-.4.8-.3.2-.6.3-1 .3l-.7.1zm.1-.6h.6c.2 0 .3 0 .5-.1.1-.1.2-.2.2-.4s0-.3-.1-.4c-.1-.1-.2-.2-.3-.2h-.7l-.2 1.1zm-23.4 9.8h-.6l-.2 1.3h-.7l.6-3.5h1.2c.4 0 .7.1.9.3.2.2.3.4.3.8 0 .5-.3.8-.8 1l.5 1.4h-.8l-.4-1.3zm-.5-.6h.5c.2 0 .3-.1.5-.2.1-.1.2-.2.2-.4s0-.3-.1-.4c-.1-.1-.2-.1-.3-.1H55l-.2 1.1zm3 .7l-.2 1.2h-.7l.6-3.5h1.2c.4 0 .7.1.9.3.2.2.3.5.3.8 0 .3-.2.6-.4.8-.3.2-.6.3-1 .3l-.7.1zm.1-.6h.6c.2 0 .3 0 .5-.1s.2-.2.2-.4 0-.3-.1-.4c-.1-.1-.2-.2-.3-.2h-.7l-.2 1.1zm-.7 18.9h-.6l-.2 1.3h-.7l.6-3.5h1.2c.4 0 .7.1.9.3.2.2.3.4.3.8 0 .5-.3.8-.8 1l.5 1.4h-.8l-.4-1.3zm-.5-.6h.5c.2 0 .3-.1.5-.2.1-.1.2-.2.2-.4s0-.3-.1-.4c-.1-.1-.2-.1-.3-.1h-.6l-.2 1.1zm3 .6l-.2 1.2h-.7l.6-3.5h1.2c.4 0 .7.1.9.3.2.2.3.5.3.8 0 .3-.2.6-.4.8-.3.2-.6.3-1 .3l-.7.1zm.1-.6h.6c.2 0 .3 0 .5-.1.1-.1.2-.2.2-.4s0-.3-.1-.4c-.1-.1-.2-.2-.3-.2H60l-.2 1.1zm42.3 1.8h-.6l-.2 1.3h-.7l.6-3.5h1.2c.4 0 .7.1.9.3.2.2.3.4.3.8 0 .5-.3.8-.8 1l.5 1.4h-.8l-.4-1.3zm-.5-.6h.5c.2 0 .3-.1.5-.2.1-.1.2-.2.2-.4s0-.3-.1-.4c-.1-.1-.2-.1-.3-.1h-.6l-.2 1.1zm3 .7l-.2 1.2h-.7l.6-3.5h1.2c.4 0 .7.1.9.3.2.2.3.5.3.8 0 .3-.2.6-.4.8-.3.2-.6.3-1 .3l-.7.1zm.1-.6h.6c.2 0 .3 0 .5-.1s.2-.2.2-.4 0-.3-.1-.4-.2-.2-.3-.2h-.7l-.2 1.1z" fill="#d9901d"/>
</svg>
